<?xml version="1.0" encoding="utf-8" standalone="no"?>
<!DOCTYPE svg PUBLIC "-//W3C//DTD SVG 1.1//EN"
  "http://www.w3.org/Graphics/SVG/1.1/DTD/svg11.dtd">
<svg xmlns:xlink="http://www.w3.org/1999/xlink" width="543.445273pt" height="233.983088pt" viewBox="0 0 543.445273 233.983088" xmlns="http://www.w3.org/2000/svg" version="1.1">
 <metadata>
  <rdf:RDF xmlns:dc="http://purl.org/dc/elements/1.1/" xmlns:cc="http://creativecommons.org/ns#" xmlns:rdf="http://www.w3.org/1999/02/22-rdf-syntax-ns#">
   <cc:Work>
    <dc:type rdf:resource="http://purl.org/dc/dcmitype/StillImage"/>
    <dc:date>2026-04-28T20:09:18.064619</dc:date>
    <dc:format>image/svg+xml</dc:format>
    <dc:creator>
     <cc:Agent>
      <dc:title>Matplotlib v3.10.9, https://matplotlib.org/</dc:title>
     </cc:Agent>
    </dc:creator>
   </cc:Work>
  </rdf:RDF>
 </metadata>
 <defs>
  <style type="text/css">*{stroke-linejoin: round; stroke-linecap: butt}</style>
 </defs>
 <g id="figure_1">
  <g id="patch_1">
   <path d="M 0 233.983088 
L 543.445273 233.983088 
L 543.445273 0 
L 0 0 
z
" style="fill: #ffffff"/>
  </g>
  <g id="axes_1">
   <g id="patch_2">
    <path d="M 133.032344 202.800275 
L 315.650526 202.800275 
L 315.650526 25.392275 
L 133.032344 25.392275 
z
" style="fill: #ffffff"/>
   </g>
   <g id="matplotlib.axis_1">
    <g id="xtick_1">
     <g id="line2d_1">
      <defs>
       <path id="mce88289ce3" d="M 0 0 
L 0 2.5 
" style="stroke: #000000; stroke-width: 0.75"/>
      </defs>
      <g>
       <use xlink:href="#mce88289ce3" x="133.032344" y="202.800275" style="stroke: #000000; stroke-width: 0.75"/>
      </g>
     </g>
     <g id="text_1">
      <!-- 0.000 -->
      <g transform="translate(124.274687 213.873088) scale(0.07 -0.07)">
       <defs>
        <path id="LiberationSans-30" d="M 3309 2203 
Q 3309 1100 2920 518 
Q 2531 -63 1772 -63 
Q 1013 -63 631 515 
Q 250 1094 250 2203 
Q 250 3338 620 3903 
Q 991 4469 1791 4469 
Q 2569 4469 2939 3897 
Q 3309 3325 3309 2203 
z
M 2738 2203 
Q 2738 3156 2517 3584 
Q 2297 4013 1791 4013 
Q 1272 4013 1045 3591 
Q 819 3169 819 2203 
Q 819 1266 1048 831 
Q 1278 397 1778 397 
Q 2275 397 2506 840 
Q 2738 1284 2738 2203 
z
" transform="scale(0.015625)"/>
        <path id="LiberationSans-2e" d="M 584 0 
L 584 684 
L 1194 684 
L 1194 0 
L 584 0 
z
" transform="scale(0.015625)"/>
       </defs>
       <use xlink:href="#LiberationSans-30"/>
       <use xlink:href="#LiberationSans-2e" transform="translate(55.615234 0)"/>
       <use xlink:href="#LiberationSans-30" transform="translate(83.398438 0)"/>
       <use xlink:href="#LiberationSans-30" transform="translate(139.013672 0)"/>
       <use xlink:href="#LiberationSans-30" transform="translate(194.628906 0)"/>
      </g>
     </g>
    </g>
    <g id="xtick_2">
     <g id="line2d_2">
      <g>
       <use xlink:href="#mce88289ce3" x="158.077123" y="202.800275" style="stroke: #000000; stroke-width: 0.75"/>
      </g>
     </g>
     <g id="text_2">
      <!-- 0.001 -->
      <g transform="translate(149.319467 213.873088) scale(0.07 -0.07)">
       <defs>
        <path id="LiberationSans-31" d="M 488 0 
L 488 478 
L 1609 478 
L 1609 3866 
L 616 3156 
L 616 3688 
L 1656 4403 
L 2175 4403 
L 2175 478 
L 3247 478 
L 3247 0 
L 488 0 
z
" transform="scale(0.015625)"/>
       </defs>
       <use xlink:href="#LiberationSans-30"/>
       <use xlink:href="#LiberationSans-2e" transform="translate(55.615234 0)"/>
       <use xlink:href="#LiberationSans-30" transform="translate(83.398438 0)"/>
       <use xlink:href="#LiberationSans-30" transform="translate(139.013672 0)"/>
       <use xlink:href="#LiberationSans-31" transform="translate(194.628906 0)"/>
      </g>
     </g>
    </g>
    <g id="xtick_3">
     <g id="line2d_3">
      <g>
       <use xlink:href="#mce88289ce3" x="183.121902" y="202.800275" style="stroke: #000000; stroke-width: 0.75"/>
      </g>
     </g>
     <g id="text_3">
      <!-- 0.002 -->
      <g transform="translate(174.364246 213.873088) scale(0.07 -0.07)">
       <defs>
        <path id="LiberationSans-32" d="M 322 0 
L 322 397 
Q 481 763 711 1042 
Q 941 1322 1194 1548 
Q 1447 1775 1695 1969 
Q 1944 2163 2144 2356 
Q 2344 2550 2467 2762 
Q 2591 2975 2591 3244 
Q 2591 3606 2378 3806 
Q 2166 4006 1788 4006 
Q 1428 4006 1195 3811 
Q 963 3616 922 3263 
L 347 3316 
Q 409 3844 795 4156 
Q 1181 4469 1788 4469 
Q 2453 4469 2811 4155 
Q 3169 3841 3169 3263 
Q 3169 3006 3051 2753 
Q 2934 2500 2703 2247 
Q 2472 1994 1819 1463 
Q 1459 1169 1246 933 
Q 1034 697 941 478 
L 3238 478 
L 3238 0 
L 322 0 
z
" transform="scale(0.015625)"/>
       </defs>
       <use xlink:href="#LiberationSans-30"/>
       <use xlink:href="#LiberationSans-2e" transform="translate(55.615234 0)"/>
       <use xlink:href="#LiberationSans-30" transform="translate(83.398438 0)"/>
       <use xlink:href="#LiberationSans-30" transform="translate(139.013672 0)"/>
       <use xlink:href="#LiberationSans-32" transform="translate(194.628906 0)"/>
      </g>
     </g>
    </g>
    <g id="xtick_4">
     <g id="line2d_4">
      <g>
       <use xlink:href="#mce88289ce3" x="208.166681" y="202.800275" style="stroke: #000000; stroke-width: 0.75"/>
      </g>
     </g>
     <g id="text_4">
      <!-- 0.003 -->
      <g transform="translate(199.409025 213.873088) scale(0.07 -0.07)">
       <defs>
        <path id="LiberationSans-33" d="M 3278 1216 
Q 3278 606 2890 271 
Q 2503 -63 1784 -63 
Q 1116 -63 717 239 
Q 319 541 244 1131 
L 825 1184 
Q 938 403 1784 403 
Q 2209 403 2451 612 
Q 2694 822 2694 1234 
Q 2694 1594 2417 1795 
Q 2141 1997 1619 1997 
L 1300 1997 
L 1300 2484 
L 1606 2484 
Q 2069 2484 2323 2686 
Q 2578 2888 2578 3244 
Q 2578 3597 2370 3801 
Q 2163 4006 1753 4006 
Q 1381 4006 1151 3815 
Q 922 3625 884 3278 
L 319 3322 
Q 381 3863 767 4166 
Q 1153 4469 1759 4469 
Q 2422 4469 2789 4161 
Q 3156 3853 3156 3303 
Q 3156 2881 2920 2617 
Q 2684 2353 2234 2259 
L 2234 2247 
Q 2728 2194 3003 1916 
Q 3278 1638 3278 1216 
z
" transform="scale(0.015625)"/>
       </defs>
       <use xlink:href="#LiberationSans-30"/>
       <use xlink:href="#LiberationSans-2e" transform="translate(55.615234 0)"/>
       <use xlink:href="#LiberationSans-30" transform="translate(83.398438 0)"/>
       <use xlink:href="#LiberationSans-30" transform="translate(139.013672 0)"/>
       <use xlink:href="#LiberationSans-33" transform="translate(194.628906 0)"/>
      </g>
     </g>
    </g>
    <g id="xtick_5">
     <g id="line2d_5">
      <g>
       <use xlink:href="#mce88289ce3" x="233.211461" y="202.800275" style="stroke: #000000; stroke-width: 0.75"/>
      </g>
     </g>
     <g id="text_5">
      <!-- 0.004 -->
      <g transform="translate(224.453804 213.873088) scale(0.07 -0.07)">
       <defs>
        <path id="LiberationSans-34" d="M 2753 997 
L 2753 0 
L 2222 0 
L 2222 997 
L 147 997 
L 147 1434 
L 2163 4403 
L 2753 4403 
L 2753 1441 
L 3372 1441 
L 3372 997 
L 2753 997 
z
M 2222 3769 
Q 2216 3750 2134 3603 
Q 2053 3456 2013 3397 
L 884 1734 
L 716 1503 
L 666 1441 
L 2222 1441 
L 2222 3769 
z
" transform="scale(0.015625)"/>
       </defs>
       <use xlink:href="#LiberationSans-30"/>
       <use xlink:href="#LiberationSans-2e" transform="translate(55.615234 0)"/>
       <use xlink:href="#LiberationSans-30" transform="translate(83.398438 0)"/>
       <use xlink:href="#LiberationSans-30" transform="translate(139.013672 0)"/>
       <use xlink:href="#LiberationSans-34" transform="translate(194.628906 0)"/>
      </g>
     </g>
    </g>
    <g id="xtick_6">
     <g id="line2d_6">
      <g>
       <use xlink:href="#mce88289ce3" x="258.25624" y="202.800275" style="stroke: #000000; stroke-width: 0.75"/>
      </g>
     </g>
     <g id="text_6">
      <!-- 0.005 -->
      <g transform="translate(249.498584 213.873088) scale(0.07 -0.07)">
       <defs>
        <path id="LiberationSans-35" d="M 3291 1434 
Q 3291 738 2877 337 
Q 2463 -63 1728 -63 
Q 1113 -63 734 206 
Q 356 475 256 984 
L 825 1050 
Q 1003 397 1741 397 
Q 2194 397 2450 670 
Q 2706 944 2706 1422 
Q 2706 1838 2448 2094 
Q 2191 2350 1753 2350 
Q 1525 2350 1328 2278 
Q 1131 2206 934 2034 
L 384 2034 
L 531 4403 
L 3034 4403 
L 3034 3925 
L 1044 3925 
L 959 2528 
Q 1325 2809 1869 2809 
Q 2519 2809 2905 2428 
Q 3291 2047 3291 1434 
z
" transform="scale(0.015625)"/>
       </defs>
       <use xlink:href="#LiberationSans-30"/>
       <use xlink:href="#LiberationSans-2e" transform="translate(55.615234 0)"/>
       <use xlink:href="#LiberationSans-30" transform="translate(83.398438 0)"/>
       <use xlink:href="#LiberationSans-30" transform="translate(139.013672 0)"/>
       <use xlink:href="#LiberationSans-35" transform="translate(194.628906 0)"/>
      </g>
     </g>
    </g>
    <g id="xtick_7">
     <g id="line2d_7">
      <g>
       <use xlink:href="#mce88289ce3" x="283.301019" y="202.800275" style="stroke: #000000; stroke-width: 0.75"/>
      </g>
     </g>
     <g id="text_7">
      <!-- 0.006 -->
      <g transform="translate(274.543363 213.873088) scale(0.07 -0.07)">
       <defs>
        <path id="LiberationSans-36" d="M 3278 1441 
Q 3278 744 2900 340 
Q 2522 -63 1856 -63 
Q 1113 -63 719 490 
Q 325 1044 325 2100 
Q 325 3244 734 3856 
Q 1144 4469 1900 4469 
Q 2897 4469 3156 3572 
L 2619 3475 
Q 2453 4013 1894 4013 
Q 1413 4013 1148 3564 
Q 884 3116 884 2266 
Q 1038 2550 1316 2698 
Q 1594 2847 1953 2847 
Q 2563 2847 2920 2465 
Q 3278 2084 3278 1441 
z
M 2706 1416 
Q 2706 1894 2472 2153 
Q 2238 2413 1819 2413 
Q 1425 2413 1183 2183 
Q 941 1953 941 1550 
Q 941 1041 1192 716 
Q 1444 391 1838 391 
Q 2244 391 2475 664 
Q 2706 938 2706 1416 
z
" transform="scale(0.015625)"/>
       </defs>
       <use xlink:href="#LiberationSans-30"/>
       <use xlink:href="#LiberationSans-2e" transform="translate(55.615234 0)"/>
       <use xlink:href="#LiberationSans-30" transform="translate(83.398438 0)"/>
       <use xlink:href="#LiberationSans-30" transform="translate(139.013672 0)"/>
       <use xlink:href="#LiberationSans-36" transform="translate(194.628906 0)"/>
      </g>
     </g>
    </g>
    <g id="xtick_8">
     <g id="line2d_8">
      <g>
       <use xlink:href="#mce88289ce3" x="308.345798" y="202.800275" style="stroke: #000000; stroke-width: 0.75"/>
      </g>
     </g>
     <g id="text_8">
      <!-- 0.007 -->
      <g transform="translate(299.588142 213.873088) scale(0.07 -0.07)">
       <defs>
        <path id="LiberationSans-37" d="M 3238 3947 
Q 2563 2916 2284 2331 
Q 2006 1747 1867 1178 
Q 1728 609 1728 0 
L 1141 0 
Q 1141 844 1498 1776 
Q 1856 2709 2694 3925 
L 328 3925 
L 328 4403 
L 3238 4403 
L 3238 3947 
z
" transform="scale(0.015625)"/>
       </defs>
       <use xlink:href="#LiberationSans-30"/>
       <use xlink:href="#LiberationSans-2e" transform="translate(55.615234 0)"/>
       <use xlink:href="#LiberationSans-30" transform="translate(83.398438 0)"/>
       <use xlink:href="#LiberationSans-30" transform="translate(139.013672 0)"/>
       <use xlink:href="#LiberationSans-37" transform="translate(194.628906 0)"/>
      </g>
     </g>
    </g>
    <g id="text_9">
     <!-- Drop -->
     <g transform="translate(215.67206 225.123088) scale(0.08 -0.08)">
      <defs>
       <path id="LiberationSans-44" d="M 4316 2247 
Q 4316 1566 4050 1055 
Q 3784 544 3296 272 
Q 2809 0 2172 0 
L 525 0 
L 525 4403 
L 1981 4403 
Q 3100 4403 3708 3842 
Q 4316 3281 4316 2247 
z
M 3716 2247 
Q 3716 3066 3267 3495 
Q 2819 3925 1969 3925 
L 1122 3925 
L 1122 478 
L 2103 478 
Q 2588 478 2955 690 
Q 3322 903 3519 1303 
Q 3716 1703 3716 2247 
z
" transform="scale(0.015625)"/>
       <path id="LiberationSans-72" d="M 444 0 
L 444 2594 
Q 444 2950 425 3381 
L 956 3381 
Q 981 2806 981 2691 
L 994 2691 
Q 1128 3125 1303 3284 
Q 1478 3444 1797 3444 
Q 1909 3444 2025 3413 
L 2025 2897 
Q 1913 2928 1725 2928 
Q 1375 2928 1190 2626 
Q 1006 2325 1006 1763 
L 1006 0 
L 444 0 
z
" transform="scale(0.015625)"/>
       <path id="LiberationSans-6f" d="M 3291 1694 
Q 3291 806 2900 371 
Q 2509 -63 1766 -63 
Q 1025 -63 647 389 
Q 269 841 269 1694 
Q 269 3444 1784 3444 
Q 2559 3444 2925 3017 
Q 3291 2591 3291 1694 
z
M 2700 1694 
Q 2700 2394 2492 2711 
Q 2284 3028 1794 3028 
Q 1300 3028 1079 2704 
Q 859 2381 859 1694 
Q 859 1025 1076 689 
Q 1294 353 1759 353 
Q 2266 353 2483 678 
Q 2700 1003 2700 1694 
z
" transform="scale(0.015625)"/>
       <path id="LiberationSans-70" d="M 3291 1706 
Q 3291 -63 2047 -63 
Q 1266 -63 997 525 
L 981 525 
Q 994 500 994 -6 
L 994 -1328 
L 431 -1328 
L 431 2691 
Q 431 3213 413 3381 
L 956 3381 
Q 959 3369 965 3292 
Q 972 3216 980 3056 
Q 988 2897 988 2838 
L 1000 2838 
Q 1150 3150 1397 3295 
Q 1644 3441 2047 3441 
Q 2672 3441 2981 3022 
Q 3291 2603 3291 1706 
z
M 2700 1694 
Q 2700 2400 2509 2703 
Q 2319 3006 1903 3006 
Q 1569 3006 1380 2865 
Q 1191 2725 1092 2426 
Q 994 2128 994 1650 
Q 994 984 1206 668 
Q 1419 353 1897 353 
Q 2316 353 2508 661 
Q 2700 969 2700 1694 
z
" transform="scale(0.015625)"/>
      </defs>
      <use xlink:href="#LiberationSans-44"/>
      <use xlink:href="#LiberationSans-72" transform="translate(72.216797 0)"/>
      <use xlink:href="#LiberationSans-6f" transform="translate(105.517578 0)"/>
      <use xlink:href="#LiberationSans-70" transform="translate(161.132812 0)"/>
     </g>
    </g>
   </g>
   <g id="matplotlib.axis_2">
    <g id="ytick_1">
     <g id="line2d_9">
      <path d="M 133.032344 185.249216 
L 315.650526 185.249216 
" clip-path="url(#p1d1993fd52)" style="fill: none; stroke: #b0b0b0; stroke-opacity: 0.2; stroke-width: 0.6; stroke-linecap: square"/>
     </g>
     <g id="line2d_10">
      <defs>
       <path id="m65b6d28f93" d="M 0 0 
L -2.5 0 
" style="stroke: #000000; stroke-width: 0.75"/>
      </defs>
      <g>
       <use xlink:href="#m65b6d28f93" x="133.032344" y="185.249216" style="stroke: #000000; stroke-width: 0.75"/>
      </g>
     </g>
     <g id="text_10">
      <!-- remove random matched top-10 count -->
      <g transform="translate(8.367031 187.785622) scale(0.07 -0.07)">
       <defs>
        <path id="LiberationSans-65" d="M 863 1572 
Q 863 991 1103 675 
Q 1344 359 1806 359 
Q 2172 359 2392 506 
Q 2613 653 2691 878 
L 3184 738 
Q 2881 -63 1806 -63 
Q 1056 -63 664 384 
Q 272 831 272 1713 
Q 272 2550 664 2997 
Q 1056 3444 1784 3444 
Q 3275 3444 3275 1647 
L 3275 1572 
L 863 1572 
z
M 2694 2003 
Q 2647 2538 2422 2783 
Q 2197 3028 1775 3028 
Q 1366 3028 1127 2754 
Q 888 2481 869 2003 
L 2694 2003 
z
" transform="scale(0.015625)"/>
        <path id="LiberationSans-6d" d="M 2400 0 
L 2400 2144 
Q 2400 2634 2265 2821 
Q 2131 3009 1781 3009 
Q 1422 3009 1212 2734 
Q 1003 2459 1003 1959 
L 1003 0 
L 444 0 
L 444 2659 
Q 444 3250 425 3381 
L 956 3381 
Q 959 3366 962 3297 
Q 966 3228 970 3139 
Q 975 3050 981 2803 
L 991 2803 
Q 1172 3163 1406 3303 
Q 1641 3444 1978 3444 
Q 2363 3444 2586 3291 
Q 2809 3138 2897 2803 
L 2906 2803 
Q 3081 3144 3329 3294 
Q 3578 3444 3931 3444 
Q 4444 3444 4676 3166 
Q 4909 2888 4909 2253 
L 4909 0 
L 4353 0 
L 4353 2144 
Q 4353 2634 4218 2821 
Q 4084 3009 3734 3009 
Q 3366 3009 3161 2736 
Q 2956 2463 2956 1959 
L 2956 0 
L 2400 0 
z
" transform="scale(0.015625)"/>
        <path id="LiberationSans-76" d="M 1916 0 
L 1250 0 
L 22 3381 
L 622 3381 
L 1366 1181 
Q 1406 1056 1581 441 
L 1691 806 
L 1813 1175 
L 2581 3381 
L 3178 3381 
L 1916 0 
z
" transform="scale(0.015625)"/>
        <path id="LiberationSans-20" transform="scale(0.015625)"/>
        <path id="LiberationSans-61" d="M 1294 -63 
Q 784 -63 528 206 
Q 272 475 272 944 
Q 272 1469 617 1750 
Q 963 2031 1731 2050 
L 2491 2063 
L 2491 2247 
Q 2491 2659 2316 2837 
Q 2141 3016 1766 3016 
Q 1388 3016 1216 2887 
Q 1044 2759 1009 2478 
L 422 2531 
Q 566 3444 1778 3444 
Q 2416 3444 2737 3151 
Q 3059 2859 3059 2306 
L 3059 850 
Q 3059 600 3125 473 
Q 3191 347 3375 347 
Q 3456 347 3559 369 
L 3559 19 
Q 3347 -31 3125 -31 
Q 2813 -31 2670 133 
Q 2528 297 2509 647 
L 2491 647 
Q 2275 259 1989 98 
Q 1703 -63 1294 -63 
z
M 1422 359 
Q 1731 359 1972 500 
Q 2213 641 2352 886 
Q 2491 1131 2491 1391 
L 2491 1669 
L 1875 1656 
Q 1478 1650 1273 1575 
Q 1069 1500 959 1344 
Q 850 1188 850 934 
Q 850 659 998 509 
Q 1147 359 1422 359 
z
" transform="scale(0.015625)"/>
        <path id="LiberationSans-6e" d="M 2578 0 
L 2578 2144 
Q 2578 2478 2512 2662 
Q 2447 2847 2303 2928 
Q 2159 3009 1881 3009 
Q 1475 3009 1240 2731 
Q 1006 2453 1006 1959 
L 1006 0 
L 444 0 
L 444 2659 
Q 444 3250 425 3381 
L 956 3381 
Q 959 3366 962 3297 
Q 966 3228 970 3139 
Q 975 3050 981 2803 
L 991 2803 
Q 1184 3153 1439 3298 
Q 1694 3444 2072 3444 
Q 2628 3444 2886 3167 
Q 3144 2891 3144 2253 
L 3144 0 
L 2578 0 
z
" transform="scale(0.015625)"/>
        <path id="LiberationSans-64" d="M 2566 544 
Q 2409 219 2151 78 
Q 1894 -63 1513 -63 
Q 872 -63 570 368 
Q 269 800 269 1675 
Q 269 3444 1513 3444 
Q 1897 3444 2153 3303 
Q 2409 3163 2566 2856 
L 2572 2856 
L 2566 3234 
L 2566 4638 
L 3128 4638 
L 3128 697 
Q 3128 169 3147 0 
L 2609 0 
Q 2600 50 2589 231 
Q 2578 413 2578 544 
L 2566 544 
z
M 859 1694 
Q 859 984 1046 678 
Q 1234 372 1656 372 
Q 2134 372 2350 703 
Q 2566 1034 2566 1731 
Q 2566 2403 2350 2715 
Q 2134 3028 1663 3028 
Q 1238 3028 1048 2714 
Q 859 2400 859 1694 
z
" transform="scale(0.015625)"/>
        <path id="LiberationSans-74" d="M 1731 25 
Q 1453 -50 1163 -50 
Q 488 -50 488 716 
L 488 2972 
L 97 2972 
L 97 3381 
L 509 3381 
L 675 4138 
L 1050 4138 
L 1050 3381 
L 1675 3381 
L 1675 2972 
L 1050 2972 
L 1050 838 
Q 1050 594 1129 495 
Q 1209 397 1406 397 
Q 1519 397 1731 441 
L 1731 25 
z
" transform="scale(0.015625)"/>
        <path id="LiberationSans-63" d="M 859 1706 
Q 859 1031 1071 706 
Q 1284 381 1713 381 
Q 2013 381 2214 543 
Q 2416 706 2463 1044 
L 3031 1006 
Q 2966 519 2616 228 
Q 2266 -63 1728 -63 
Q 1019 -63 645 385 
Q 272 834 272 1694 
Q 272 2547 647 2995 
Q 1022 3444 1722 3444 
Q 2241 3444 2583 3175 
Q 2925 2906 3013 2434 
L 2434 2391 
Q 2391 2672 2212 2837 
Q 2034 3003 1706 3003 
Q 1259 3003 1059 2706 
Q 859 2409 859 1706 
z
" transform="scale(0.015625)"/>
        <path id="LiberationSans-68" d="M 991 2803 
Q 1172 3134 1426 3289 
Q 1681 3444 2072 3444 
Q 2622 3444 2883 3170 
Q 3144 2897 3144 2253 
L 3144 0 
L 2578 0 
L 2578 2144 
Q 2578 2500 2512 2673 
Q 2447 2847 2297 2928 
Q 2147 3009 1881 3009 
Q 1484 3009 1245 2734 
Q 1006 2459 1006 1994 
L 1006 0 
L 444 0 
L 444 4638 
L 1006 4638 
L 1006 3431 
Q 1006 3241 995 3037 
Q 984 2834 981 2803 
L 991 2803 
z
" transform="scale(0.015625)"/>
        <path id="LiberationSans-2d" d="M 284 1450 
L 284 1950 
L 1847 1950 
L 1847 1450 
L 284 1450 
z
" transform="scale(0.015625)"/>
        <path id="LiberationSans-75" d="M 981 3381 
L 981 1238 
Q 981 903 1047 718 
Q 1113 534 1256 453 
Q 1400 372 1678 372 
Q 2084 372 2318 650 
Q 2553 928 2553 1422 
L 2553 3381 
L 3116 3381 
L 3116 722 
Q 3116 131 3134 0 
L 2603 0 
Q 2600 16 2597 84 
Q 2594 153 2589 242 
Q 2584 331 2578 578 
L 2569 578 
Q 2375 228 2120 82 
Q 1866 -63 1488 -63 
Q 931 -63 673 214 
Q 416 491 416 1128 
L 416 3381 
L 981 3381 
z
" transform="scale(0.015625)"/>
       </defs>
       <use xlink:href="#LiberationSans-72"/>
       <use xlink:href="#LiberationSans-65" transform="translate(33.300781 0)"/>
       <use xlink:href="#LiberationSans-6d" transform="translate(88.916016 0)"/>
       <use xlink:href="#LiberationSans-6f" transform="translate(172.216797 0)"/>
       <use xlink:href="#LiberationSans-76" transform="translate(227.832031 0)"/>
       <use xlink:href="#LiberationSans-65" transform="translate(277.832031 0)"/>
       <use xlink:href="#LiberationSans-20" transform="translate(333.447266 0)"/>
       <use xlink:href="#LiberationSans-72" transform="translate(361.230469 0)"/>
       <use xlink:href="#LiberationSans-61" transform="translate(394.53125 0)"/>
       <use xlink:href="#LiberationSans-6e" transform="translate(450.146484 0)"/>
       <use xlink:href="#LiberationSans-64" transform="translate(505.761719 0)"/>
       <use xlink:href="#LiberationSans-6f" transform="translate(561.376953 0)"/>
       <use xlink:href="#LiberationSans-6d" transform="translate(616.992188 0)"/>
       <use xlink:href="#LiberationSans-20" transform="translate(700.292969 0)"/>
       <use xlink:href="#LiberationSans-6d" transform="translate(728.076172 0)"/>
       <use xlink:href="#LiberationSans-61" transform="translate(811.376953 0)"/>
       <use xlink:href="#LiberationSans-74" transform="translate(866.992188 0)"/>
       <use xlink:href="#LiberationSans-63" transform="translate(894.775391 0)"/>
       <use xlink:href="#LiberationSans-68" transform="translate(944.775391 0)"/>
       <use xlink:href="#LiberationSans-65" transform="translate(1000.390625 0)"/>
       <use xlink:href="#LiberationSans-64" transform="translate(1056.005859 0)"/>
       <use xlink:href="#LiberationSans-20" transform="translate(1111.621094 0)"/>
       <use xlink:href="#LiberationSans-74" transform="translate(1139.404297 0)"/>
       <use xlink:href="#LiberationSans-6f" transform="translate(1167.1875 0)"/>
       <use xlink:href="#LiberationSans-70" transform="translate(1222.802734 0)"/>
       <use xlink:href="#LiberationSans-2d" transform="translate(1278.417969 0)"/>
       <use xlink:href="#LiberationSans-31" transform="translate(1311.71875 0)"/>
       <use xlink:href="#LiberationSans-30" transform="translate(1367.333984 0)"/>
       <use xlink:href="#LiberationSans-20" transform="translate(1422.949219 0)"/>
       <use xlink:href="#LiberationSans-63" transform="translate(1450.732422 0)"/>
       <use xlink:href="#LiberationSans-6f" transform="translate(1500.732422 0)"/>
       <use xlink:href="#LiberationSans-75" transform="translate(1556.347656 0)"/>
       <use xlink:href="#LiberationSans-6e" transform="translate(1611.962891 0)"/>
       <use xlink:href="#LiberationSans-74" transform="translate(1667.578125 0)"/>
      </g>
     </g>
    </g>
    <g id="ytick_2">
     <g id="line2d_11">
      <path d="M 133.032344 161.531569 
L 315.650526 161.531569 
" clip-path="url(#p1d1993fd52)" style="fill: none; stroke: #b0b0b0; stroke-opacity: 0.2; stroke-width: 0.6; stroke-linecap: square"/>
     </g>
     <g id="line2d_12">
      <g>
       <use xlink:href="#m65b6d28f93" x="133.032344" y="161.531569" style="stroke: #000000; stroke-width: 0.75"/>
      </g>
     </g>
     <g id="text_11">
      <!-- remove all T4 -->
      <g transform="translate(84.754531 164.067975) scale(0.07 -0.07)">
       <defs>
        <path id="LiberationSans-6c" d="M 431 0 
L 431 4638 
L 994 4638 
L 994 0 
L 431 0 
z
" transform="scale(0.015625)"/>
        <path id="LiberationSans-54" d="M 2250 3916 
L 2250 0 
L 1656 0 
L 1656 3916 
L 144 3916 
L 144 4403 
L 3763 4403 
L 3763 3916 
L 2250 3916 
z
" transform="scale(0.015625)"/>
       </defs>
       <use xlink:href="#LiberationSans-72"/>
       <use xlink:href="#LiberationSans-65" transform="translate(33.300781 0)"/>
       <use xlink:href="#LiberationSans-6d" transform="translate(88.916016 0)"/>
       <use xlink:href="#LiberationSans-6f" transform="translate(172.216797 0)"/>
       <use xlink:href="#LiberationSans-76" transform="translate(227.832031 0)"/>
       <use xlink:href="#LiberationSans-65" transform="translate(277.832031 0)"/>
       <use xlink:href="#LiberationSans-20" transform="translate(333.447266 0)"/>
       <use xlink:href="#LiberationSans-61" transform="translate(361.230469 0)"/>
       <use xlink:href="#LiberationSans-6c" transform="translate(416.845703 0)"/>
       <use xlink:href="#LiberationSans-6c" transform="translate(439.0625 0)"/>
       <use xlink:href="#LiberationSans-20" transform="translate(461.279297 0)"/>
       <use xlink:href="#LiberationSans-54" transform="translate(487.3125 0)"/>
       <use xlink:href="#LiberationSans-34" transform="translate(548.396484 0)"/>
      </g>
     </g>
    </g>
    <g id="ytick_3">
     <g id="line2d_13">
      <path d="M 133.032344 137.813922 
L 315.650526 137.813922 
" clip-path="url(#p1d1993fd52)" style="fill: none; stroke: #b0b0b0; stroke-opacity: 0.2; stroke-width: 0.6; stroke-linecap: square"/>
     </g>
     <g id="line2d_14">
      <g>
       <use xlink:href="#m65b6d28f93" x="133.032344" y="137.813922" style="stroke: #000000; stroke-width: 0.75"/>
      </g>
     </g>
     <g id="text_12">
      <!-- remove random matched top-5 count -->
      <g transform="translate(12.259687 140.350328) scale(0.07 -0.07)">
       <use xlink:href="#LiberationSans-72"/>
       <use xlink:href="#LiberationSans-65" transform="translate(33.300781 0)"/>
       <use xlink:href="#LiberationSans-6d" transform="translate(88.916016 0)"/>
       <use xlink:href="#LiberationSans-6f" transform="translate(172.216797 0)"/>
       <use xlink:href="#LiberationSans-76" transform="translate(227.832031 0)"/>
       <use xlink:href="#LiberationSans-65" transform="translate(277.832031 0)"/>
       <use xlink:href="#LiberationSans-20" transform="translate(333.447266 0)"/>
       <use xlink:href="#LiberationSans-72" transform="translate(361.230469 0)"/>
       <use xlink:href="#LiberationSans-61" transform="translate(394.53125 0)"/>
       <use xlink:href="#LiberationSans-6e" transform="translate(450.146484 0)"/>
       <use xlink:href="#LiberationSans-64" transform="translate(505.761719 0)"/>
       <use xlink:href="#LiberationSans-6f" transform="translate(561.376953 0)"/>
       <use xlink:href="#LiberationSans-6d" transform="translate(616.992188 0)"/>
       <use xlink:href="#LiberationSans-20" transform="translate(700.292969 0)"/>
       <use xlink:href="#LiberationSans-6d" transform="translate(728.076172 0)"/>
       <use xlink:href="#LiberationSans-61" transform="translate(811.376953 0)"/>
       <use xlink:href="#LiberationSans-74" transform="translate(866.992188 0)"/>
       <use xlink:href="#LiberationSans-63" transform="translate(894.775391 0)"/>
       <use xlink:href="#LiberationSans-68" transform="translate(944.775391 0)"/>
       <use xlink:href="#LiberationSans-65" transform="translate(1000.390625 0)"/>
       <use xlink:href="#LiberationSans-64" transform="translate(1056.005859 0)"/>
       <use xlink:href="#LiberationSans-20" transform="translate(1111.621094 0)"/>
       <use xlink:href="#LiberationSans-74" transform="translate(1139.404297 0)"/>
       <use xlink:href="#LiberationSans-6f" transform="translate(1167.1875 0)"/>
       <use xlink:href="#LiberationSans-70" transform="translate(1222.802734 0)"/>
       <use xlink:href="#LiberationSans-2d" transform="translate(1278.417969 0)"/>
       <use xlink:href="#LiberationSans-35" transform="translate(1311.71875 0)"/>
       <use xlink:href="#LiberationSans-20" transform="translate(1367.333984 0)"/>
       <use xlink:href="#LiberationSans-63" transform="translate(1395.117188 0)"/>
       <use xlink:href="#LiberationSans-6f" transform="translate(1445.117188 0)"/>
       <use xlink:href="#LiberationSans-75" transform="translate(1500.732422 0)"/>
       <use xlink:href="#LiberationSans-6e" transform="translate(1556.347656 0)"/>
       <use xlink:href="#LiberationSans-74" transform="translate(1611.962891 0)"/>
      </g>
     </g>
    </g>
    <g id="ytick_4">
     <g id="line2d_15">
      <path d="M 133.032344 114.096275 
L 315.650526 114.096275 
" clip-path="url(#p1d1993fd52)" style="fill: none; stroke: #b0b0b0; stroke-opacity: 0.2; stroke-width: 0.6; stroke-linecap: square"/>
     </g>
     <g id="line2d_16">
      <g>
       <use xlink:href="#m65b6d28f93" x="133.032344" y="114.096275" style="stroke: #000000; stroke-width: 0.75"/>
      </g>
     </g>
     <g id="text_13">
      <!-- remove all T5 -->
      <g transform="translate(84.754531 116.632681) scale(0.07 -0.07)">
       <use xlink:href="#LiberationSans-72"/>
       <use xlink:href="#LiberationSans-65" transform="translate(33.300781 0)"/>
       <use xlink:href="#LiberationSans-6d" transform="translate(88.916016 0)"/>
       <use xlink:href="#LiberationSans-6f" transform="translate(172.216797 0)"/>
       <use xlink:href="#LiberationSans-76" transform="translate(227.832031 0)"/>
       <use xlink:href="#LiberationSans-65" transform="translate(277.832031 0)"/>
       <use xlink:href="#LiberationSans-20" transform="translate(333.447266 0)"/>
       <use xlink:href="#LiberationSans-61" transform="translate(361.230469 0)"/>
       <use xlink:href="#LiberationSans-6c" transform="translate(416.845703 0)"/>
       <use xlink:href="#LiberationSans-6c" transform="translate(439.0625 0)"/>
       <use xlink:href="#LiberationSans-20" transform="translate(461.279297 0)"/>
       <use xlink:href="#LiberationSans-54" transform="translate(487.3125 0)"/>
       <use xlink:href="#LiberationSans-35" transform="translate(548.396484 0)"/>
      </g>
     </g>
    </g>
    <g id="ytick_5">
     <g id="line2d_17">
      <path d="M 133.032344 90.378628 
L 315.650526 90.378628 
" clip-path="url(#p1d1993fd52)" style="fill: none; stroke: #b0b0b0; stroke-opacity: 0.2; stroke-width: 0.6; stroke-linecap: square"/>
     </g>
     <g id="line2d_18">
      <g>
       <use xlink:href="#m65b6d28f93" x="133.032344" y="90.378628" style="stroke: #000000; stroke-width: 0.75"/>
      </g>
     </g>
     <g id="text_14">
      <!-- remove top-5 ablation-sensitive types -->
      <g transform="translate(11.092656 92.915034) scale(0.07 -0.07)">
       <defs>
        <path id="LiberationSans-62" d="M 3291 1706 
Q 3291 -63 2047 -63 
Q 1663 -63 1408 76 
Q 1153 216 994 525 
L 988 525 
Q 988 428 975 229 
Q 963 31 956 0 
L 413 0 
Q 431 169 431 697 
L 431 4638 
L 994 4638 
L 994 3316 
Q 994 3113 981 2838 
L 994 2838 
Q 1150 3163 1408 3303 
Q 1666 3444 2047 3444 
Q 2688 3444 2989 3012 
Q 3291 2581 3291 1706 
z
M 2700 1688 
Q 2700 2397 2512 2703 
Q 2325 3009 1903 3009 
Q 1428 3009 1211 2684 
Q 994 2359 994 1653 
Q 994 988 1206 670 
Q 1419 353 1897 353 
Q 2322 353 2511 667 
Q 2700 981 2700 1688 
z
" transform="scale(0.015625)"/>
        <path id="LiberationSans-69" d="M 428 4100 
L 428 4638 
L 991 4638 
L 991 4100 
L 428 4100 
z
M 428 0 
L 428 3381 
L 991 3381 
L 991 0 
L 428 0 
z
" transform="scale(0.015625)"/>
        <path id="LiberationSans-73" d="M 2969 934 
Q 2969 456 2608 196 
Q 2247 -63 1597 -63 
Q 966 -63 623 145 
Q 281 353 178 794 
L 675 891 
Q 747 619 972 492 
Q 1197 366 1597 366 
Q 2025 366 2223 497 
Q 2422 628 2422 891 
Q 2422 1091 2284 1216 
Q 2147 1341 1841 1422 
L 1438 1528 
Q 953 1653 748 1773 
Q 544 1894 428 2066 
Q 313 2238 313 2488 
Q 313 2950 642 3192 
Q 972 3434 1603 3434 
Q 2163 3434 2492 3237 
Q 2822 3041 2909 2606 
L 2403 2544 
Q 2356 2769 2151 2889 
Q 1947 3009 1603 3009 
Q 1222 3009 1040 2893 
Q 859 2778 859 2544 
Q 859 2400 934 2306 
Q 1009 2213 1156 2147 
Q 1303 2081 1775 1966 
Q 2222 1853 2419 1758 
Q 2616 1663 2730 1547 
Q 2844 1431 2906 1279 
Q 2969 1128 2969 934 
z
" transform="scale(0.015625)"/>
        <path id="LiberationSans-79" d="M 597 -1328 
Q 366 -1328 209 -1294 
L 209 -872 
Q 328 -891 472 -891 
Q 997 -891 1303 -119 
L 1356 16 
L 16 3381 
L 616 3381 
L 1328 1513 
Q 1344 1469 1366 1408 
Q 1388 1347 1506 1000 
Q 1625 653 1634 613 
L 1853 1228 
L 2594 3381 
L 3188 3381 
L 1888 0 
Q 1678 -541 1497 -805 
Q 1316 -1069 1095 -1198 
Q 875 -1328 597 -1328 
z
" transform="scale(0.015625)"/>
       </defs>
       <use xlink:href="#LiberationSans-72"/>
       <use xlink:href="#LiberationSans-65" transform="translate(33.300781 0)"/>
       <use xlink:href="#LiberationSans-6d" transform="translate(88.916016 0)"/>
       <use xlink:href="#LiberationSans-6f" transform="translate(172.216797 0)"/>
       <use xlink:href="#LiberationSans-76" transform="translate(227.832031 0)"/>
       <use xlink:href="#LiberationSans-65" transform="translate(277.832031 0)"/>
       <use xlink:href="#LiberationSans-20" transform="translate(333.447266 0)"/>
       <use xlink:href="#LiberationSans-74" transform="translate(361.230469 0)"/>
       <use xlink:href="#LiberationSans-6f" transform="translate(389.013672 0)"/>
       <use xlink:href="#LiberationSans-70" transform="translate(444.628906 0)"/>
       <use xlink:href="#LiberationSans-2d" transform="translate(500.244141 0)"/>
       <use xlink:href="#LiberationSans-35" transform="translate(533.544922 0)"/>
       <use xlink:href="#LiberationSans-20" transform="translate(589.160156 0)"/>
       <use xlink:href="#LiberationSans-61" transform="translate(616.943359 0)"/>
       <use xlink:href="#LiberationSans-62" transform="translate(672.558594 0)"/>
       <use xlink:href="#LiberationSans-6c" transform="translate(728.173828 0)"/>
       <use xlink:href="#LiberationSans-61" transform="translate(750.390625 0)"/>
       <use xlink:href="#LiberationSans-74" transform="translate(806.005859 0)"/>
       <use xlink:href="#LiberationSans-69" transform="translate(833.789062 0)"/>
       <use xlink:href="#LiberationSans-6f" transform="translate(856.005859 0)"/>
       <use xlink:href="#LiberationSans-6e" transform="translate(911.621094 0)"/>
       <use xlink:href="#LiberationSans-2d" transform="translate(967.236328 0)"/>
       <use xlink:href="#LiberationSans-73" transform="translate(1000.537109 0)"/>
       <use xlink:href="#LiberationSans-65" transform="translate(1050.537109 0)"/>
       <use xlink:href="#LiberationSans-6e" transform="translate(1106.152344 0)"/>
       <use xlink:href="#LiberationSans-73" transform="translate(1161.767578 0)"/>
       <use xlink:href="#LiberationSans-69" transform="translate(1211.767578 0)"/>
       <use xlink:href="#LiberationSans-74" transform="translate(1233.984375 0)"/>
       <use xlink:href="#LiberationSans-69" transform="translate(1261.767578 0)"/>
       <use xlink:href="#LiberationSans-76" transform="translate(1283.984375 0)"/>
       <use xlink:href="#LiberationSans-65" transform="translate(1333.984375 0)"/>
       <use xlink:href="#LiberationSans-20" transform="translate(1389.599609 0)"/>
       <use xlink:href="#LiberationSans-74" transform="translate(1417.382812 0)"/>
       <use xlink:href="#LiberationSans-79" transform="translate(1445.166016 0)"/>
       <use xlink:href="#LiberationSans-70" transform="translate(1495.166016 0)"/>
       <use xlink:href="#LiberationSans-65" transform="translate(1550.78125 0)"/>
       <use xlink:href="#LiberationSans-73" transform="translate(1606.396484 0)"/>
      </g>
     </g>
    </g>
    <g id="ytick_6">
     <g id="line2d_19">
      <path d="M 133.032344 66.660981 
L 315.650526 66.660981 
" clip-path="url(#p1d1993fd52)" style="fill: none; stroke: #b0b0b0; stroke-opacity: 0.2; stroke-width: 0.6; stroke-linecap: square"/>
     </g>
     <g id="line2d_20">
      <g>
       <use xlink:href="#m65b6d28f93" x="133.032344" y="66.660981" style="stroke: #000000; stroke-width: 0.75"/>
      </g>
     </g>
     <g id="text_15">
      <!-- remove T4+T5 -->
      <g transform="translate(81.445937 69.197387) scale(0.07 -0.07)">
       <defs>
        <path id="LiberationSans-2b" d="M 2097 1900 
L 2097 563 
L 1638 563 
L 1638 1900 
L 313 1900 
L 313 2356 
L 1638 2356 
L 1638 3694 
L 2097 3694 
L 2097 2356 
L 3422 2356 
L 3422 1900 
L 2097 1900 
z
" transform="scale(0.015625)"/>
       </defs>
       <use xlink:href="#LiberationSans-72"/>
       <use xlink:href="#LiberationSans-65" transform="translate(33.300781 0)"/>
       <use xlink:href="#LiberationSans-6d" transform="translate(88.916016 0)"/>
       <use xlink:href="#LiberationSans-6f" transform="translate(172.216797 0)"/>
       <use xlink:href="#LiberationSans-76" transform="translate(227.832031 0)"/>
       <use xlink:href="#LiberationSans-65" transform="translate(277.832031 0)"/>
       <use xlink:href="#LiberationSans-20" transform="translate(333.447266 0)"/>
       <use xlink:href="#LiberationSans-54" transform="translate(359.480469 0)"/>
       <use xlink:href="#LiberationSans-34" transform="translate(420.564453 0)"/>
       <use xlink:href="#LiberationSans-2b" transform="translate(476.179688 0)"/>
       <use xlink:href="#LiberationSans-54" transform="translate(534.578125 0)"/>
       <use xlink:href="#LiberationSans-35" transform="translate(595.662109 0)"/>
      </g>
     </g>
    </g>
    <g id="ytick_7">
     <g id="line2d_21">
      <path d="M 133.032344 42.943334 
L 315.650526 42.943334 
" clip-path="url(#p1d1993fd52)" style="fill: none; stroke: #b0b0b0; stroke-opacity: 0.2; stroke-width: 0.6; stroke-linecap: square"/>
     </g>
     <g id="line2d_22">
      <g>
       <use xlink:href="#m65b6d28f93" x="133.032344" y="42.943334" style="stroke: #000000; stroke-width: 0.75"/>
      </g>
     </g>
     <g id="text_16">
      <!-- remove top-10 ablation-sensitive types -->
      <g transform="translate(7.2 45.47974) scale(0.07 -0.07)">
       <use xlink:href="#LiberationSans-72"/>
       <use xlink:href="#LiberationSans-65" transform="translate(33.300781 0)"/>
       <use xlink:href="#LiberationSans-6d" transform="translate(88.916016 0)"/>
       <use xlink:href="#LiberationSans-6f" transform="translate(172.216797 0)"/>
       <use xlink:href="#LiberationSans-76" transform="translate(227.832031 0)"/>
       <use xlink:href="#LiberationSans-65" transform="translate(277.832031 0)"/>
       <use xlink:href="#LiberationSans-20" transform="translate(333.447266 0)"/>
       <use xlink:href="#LiberationSans-74" transform="translate(361.230469 0)"/>
       <use xlink:href="#LiberationSans-6f" transform="translate(389.013672 0)"/>
       <use xlink:href="#LiberationSans-70" transform="translate(444.628906 0)"/>
       <use xlink:href="#LiberationSans-2d" transform="translate(500.244141 0)"/>
       <use xlink:href="#LiberationSans-31" transform="translate(533.544922 0)"/>
       <use xlink:href="#LiberationSans-30" transform="translate(589.160156 0)"/>
       <use xlink:href="#LiberationSans-20" transform="translate(644.775391 0)"/>
       <use xlink:href="#LiberationSans-61" transform="translate(672.558594 0)"/>
       <use xlink:href="#LiberationSans-62" transform="translate(728.173828 0)"/>
       <use xlink:href="#LiberationSans-6c" transform="translate(783.789062 0)"/>
       <use xlink:href="#LiberationSans-61" transform="translate(806.005859 0)"/>
       <use xlink:href="#LiberationSans-74" transform="translate(861.621094 0)"/>
       <use xlink:href="#LiberationSans-69" transform="translate(889.404297 0)"/>
       <use xlink:href="#LiberationSans-6f" transform="translate(911.621094 0)"/>
       <use xlink:href="#LiberationSans-6e" transform="translate(967.236328 0)"/>
       <use xlink:href="#LiberationSans-2d" transform="translate(1022.851562 0)"/>
       <use xlink:href="#LiberationSans-73" transform="translate(1056.152344 0)"/>
       <use xlink:href="#LiberationSans-65" transform="translate(1106.152344 0)"/>
       <use xlink:href="#LiberationSans-6e" transform="translate(1161.767578 0)"/>
       <use xlink:href="#LiberationSans-73" transform="translate(1217.382812 0)"/>
       <use xlink:href="#LiberationSans-69" transform="translate(1267.382812 0)"/>
       <use xlink:href="#LiberationSans-74" transform="translate(1289.599609 0)"/>
       <use xlink:href="#LiberationSans-69" transform="translate(1317.382812 0)"/>
       <use xlink:href="#LiberationSans-76" transform="translate(1339.599609 0)"/>
       <use xlink:href="#LiberationSans-65" transform="translate(1389.599609 0)"/>
       <use xlink:href="#LiberationSans-20" transform="translate(1445.214844 0)"/>
       <use xlink:href="#LiberationSans-74" transform="translate(1472.998047 0)"/>
       <use xlink:href="#LiberationSans-79" transform="translate(1500.78125 0)"/>
       <use xlink:href="#LiberationSans-70" transform="translate(1550.78125 0)"/>
       <use xlink:href="#LiberationSans-65" transform="translate(1606.396484 0)"/>
       <use xlink:href="#LiberationSans-73" transform="translate(1662.011719 0)"/>
      </g>
     </g>
    </g>
   </g>
   <g id="patch_3">
    <path d="M 133.032344 194.736275 
L 133.032344 194.736275 
L 133.032344 175.762157 
L 133.032344 175.762157 
z
" clip-path="url(#p1d1993fd52)" style="fill: #1f77b4"/>
   </g>
   <g id="patch_4">
    <path d="M 133.032344 171.018628 
L 219.993383 171.018628 
L 219.993383 152.04451 
L 133.032344 152.04451 
z
" clip-path="url(#p1d1993fd52)" style="fill: #1f77b4"/>
   </g>
   <g id="patch_5">
    <path d="M 133.032344 147.300981 
L 219.993383 147.300981 
L 219.993383 128.326863 
L 133.032344 128.326863 
z
" clip-path="url(#p1d1993fd52)" style="fill: #1f77b4"/>
   </g>
   <g id="patch_6">
    <path d="M 133.032344 123.583334 
L 306.954422 123.583334 
L 306.954422 104.609216 
L 133.032344 104.609216 
z
" clip-path="url(#p1d1993fd52)" style="fill: #1f77b4"/>
   </g>
   <g id="patch_7">
    <path d="M 133.032344 99.865687 
L 306.954422 99.865687 
L 306.954422 80.891569 
L 133.032344 80.891569 
z
" clip-path="url(#p1d1993fd52)" style="fill: #1f77b4"/>
   </g>
   <g id="patch_8">
    <path d="M 133.032344 76.14804 
L 306.954422 76.14804 
L 306.954422 57.173922 
L 133.032344 57.173922 
z
" clip-path="url(#p1d1993fd52)" style="fill: #1f77b4"/>
   </g>
   <g id="patch_9">
    <path d="M 133.032344 52.430393 
L 306.954422 52.430393 
L 306.954422 33.456275 
L 133.032344 33.456275 
z
" clip-path="url(#p1d1993fd52)" style="fill: #1f77b4"/>
   </g>
   <g id="patch_10">
    <path d="M 133.032344 202.800275 
L 133.032344 25.392275 
" style="fill: none; stroke: #000000; stroke-width: 0.75; stroke-linejoin: miter; stroke-linecap: square"/>
   </g>
   <g id="patch_11">
    <path d="M 133.032344 202.800275 
L 315.650526 202.800275 
" style="fill: none; stroke: #000000; stroke-width: 0.75; stroke-linejoin: miter; stroke-linecap: square"/>
   </g>
   <g id="text_17">
    <!-- A -->
    <g transform="translate(105.639616 14.446875) scale(0.1 -0.1)">
     <defs>
      <path id="LiberationSans-Bold-41" d="M 3541 0 
L 3150 1125 
L 1472 1125 
L 1081 0 
L 159 0 
L 1766 4403 
L 2853 4403 
L 4453 0 
L 3541 0 
z
M 2309 3725 
L 2291 3656 
Q 2259 3544 2215 3400 
Q 2172 3256 1678 1819 
L 2944 1819 
L 2509 3084 
L 2375 3509 
L 2309 3725 
z
" transform="scale(0.015625)"/>
     </defs>
     <use xlink:href="#LiberationSans-Bold-41"/>
    </g>
   </g>
  </g>
  <g id="axes_2">
   <g id="patch_12">
    <path d="M 352.174162 202.800275 
L 534.792344 202.800275 
L 534.792344 25.392275 
L 352.174162 25.392275 
z
" style="fill: #ffffff"/>
   </g>
   <g id="matplotlib.axis_3">
    <g id="xtick_9">
     <g id="line2d_23">
      <g>
       <use xlink:href="#mce88289ce3" x="352.174162" y="202.800275" style="stroke: #000000; stroke-width: 0.75"/>
      </g>
     </g>
     <g id="text_18">
      <!-- 0.000 -->
      <g transform="translate(343.416506 213.873088) scale(0.07 -0.07)">
       <use xlink:href="#LiberationSans-30"/>
       <use xlink:href="#LiberationSans-2e" transform="translate(55.615234 0)"/>
       <use xlink:href="#LiberationSans-30" transform="translate(83.398438 0)"/>
       <use xlink:href="#LiberationSans-30" transform="translate(139.013672 0)"/>
       <use xlink:href="#LiberationSans-30" transform="translate(194.628906 0)"/>
      </g>
     </g>
    </g>
    <g id="xtick_10">
     <g id="line2d_24">
      <g>
       <use xlink:href="#mce88289ce3" x="377.218941" y="202.800275" style="stroke: #000000; stroke-width: 0.75"/>
      </g>
     </g>
     <g id="text_19">
      <!-- 0.001 -->
      <g transform="translate(368.461285 213.873088) scale(0.07 -0.07)">
       <use xlink:href="#LiberationSans-30"/>
       <use xlink:href="#LiberationSans-2e" transform="translate(55.615234 0)"/>
       <use xlink:href="#LiberationSans-30" transform="translate(83.398438 0)"/>
       <use xlink:href="#LiberationSans-30" transform="translate(139.013672 0)"/>
       <use xlink:href="#LiberationSans-31" transform="translate(194.628906 0)"/>
      </g>
     </g>
    </g>
    <g id="xtick_11">
     <g id="line2d_25">
      <g>
       <use xlink:href="#mce88289ce3" x="402.26372" y="202.800275" style="stroke: #000000; stroke-width: 0.75"/>
      </g>
     </g>
     <g id="text_20">
      <!-- 0.002 -->
      <g transform="translate(393.506064 213.873088) scale(0.07 -0.07)">
       <use xlink:href="#LiberationSans-30"/>
       <use xlink:href="#LiberationSans-2e" transform="translate(55.615234 0)"/>
       <use xlink:href="#LiberationSans-30" transform="translate(83.398438 0)"/>
       <use xlink:href="#LiberationSans-30" transform="translate(139.013672 0)"/>
       <use xlink:href="#LiberationSans-32" transform="translate(194.628906 0)"/>
      </g>
     </g>
    </g>
    <g id="xtick_12">
     <g id="line2d_26">
      <g>
       <use xlink:href="#mce88289ce3" x="427.3085" y="202.800275" style="stroke: #000000; stroke-width: 0.75"/>
      </g>
     </g>
     <g id="text_21">
      <!-- 0.003 -->
      <g transform="translate(418.550843 213.873088) scale(0.07 -0.07)">
       <use xlink:href="#LiberationSans-30"/>
       <use xlink:href="#LiberationSans-2e" transform="translate(55.615234 0)"/>
       <use xlink:href="#LiberationSans-30" transform="translate(83.398438 0)"/>
       <use xlink:href="#LiberationSans-30" transform="translate(139.013672 0)"/>
       <use xlink:href="#LiberationSans-33" transform="translate(194.628906 0)"/>
      </g>
     </g>
    </g>
    <g id="xtick_13">
     <g id="line2d_27">
      <g>
       <use xlink:href="#mce88289ce3" x="452.353279" y="202.800275" style="stroke: #000000; stroke-width: 0.75"/>
      </g>
     </g>
     <g id="text_22">
      <!-- 0.004 -->
      <g transform="translate(443.595623 213.873088) scale(0.07 -0.07)">
       <use xlink:href="#LiberationSans-30"/>
       <use xlink:href="#LiberationSans-2e" transform="translate(55.615234 0)"/>
       <use xlink:href="#LiberationSans-30" transform="translate(83.398438 0)"/>
       <use xlink:href="#LiberationSans-30" transform="translate(139.013672 0)"/>
       <use xlink:href="#LiberationSans-34" transform="translate(194.628906 0)"/>
      </g>
     </g>
    </g>
    <g id="xtick_14">
     <g id="line2d_28">
      <g>
       <use xlink:href="#mce88289ce3" x="477.398058" y="202.800275" style="stroke: #000000; stroke-width: 0.75"/>
      </g>
     </g>
     <g id="text_23">
      <!-- 0.005 -->
      <g transform="translate(468.640402 213.873088) scale(0.07 -0.07)">
       <use xlink:href="#LiberationSans-30"/>
       <use xlink:href="#LiberationSans-2e" transform="translate(55.615234 0)"/>
       <use xlink:href="#LiberationSans-30" transform="translate(83.398438 0)"/>
       <use xlink:href="#LiberationSans-30" transform="translate(139.013672 0)"/>
       <use xlink:href="#LiberationSans-35" transform="translate(194.628906 0)"/>
      </g>
     </g>
    </g>
    <g id="xtick_15">
     <g id="line2d_29">
      <g>
       <use xlink:href="#mce88289ce3" x="502.442837" y="202.800275" style="stroke: #000000; stroke-width: 0.75"/>
      </g>
     </g>
     <g id="text_24">
      <!-- 0.006 -->
      <g transform="translate(493.685181 213.873088) scale(0.07 -0.07)">
       <use xlink:href="#LiberationSans-30"/>
       <use xlink:href="#LiberationSans-2e" transform="translate(55.615234 0)"/>
       <use xlink:href="#LiberationSans-30" transform="translate(83.398438 0)"/>
       <use xlink:href="#LiberationSans-30" transform="translate(139.013672 0)"/>
       <use xlink:href="#LiberationSans-36" transform="translate(194.628906 0)"/>
      </g>
     </g>
    </g>
    <g id="xtick_16">
     <g id="line2d_30">
      <g>
       <use xlink:href="#mce88289ce3" x="527.487616" y="202.800275" style="stroke: #000000; stroke-width: 0.75"/>
      </g>
     </g>
     <g id="text_25">
      <!-- 0.007 -->
      <g transform="translate(518.72996 213.873088) scale(0.07 -0.07)">
       <use xlink:href="#LiberationSans-30"/>
       <use xlink:href="#LiberationSans-2e" transform="translate(55.615234 0)"/>
       <use xlink:href="#LiberationSans-30" transform="translate(83.398438 0)"/>
       <use xlink:href="#LiberationSans-30" transform="translate(139.013672 0)"/>
       <use xlink:href="#LiberationSans-37" transform="translate(194.628906 0)"/>
      </g>
     </g>
    </g>
    <g id="text_26">
     <!-- Single-type drop -->
     <g transform="translate(414.356378 225.123088) scale(0.08 -0.08)">
      <defs>
       <path id="LiberationSans-53" d="M 3975 1216 
Q 3975 606 3498 271 
Q 3022 -63 2156 -63 
Q 547 -63 291 1056 
L 869 1172 
Q 969 775 1294 589 
Q 1619 403 2178 403 
Q 2756 403 3070 601 
Q 3384 800 3384 1184 
Q 3384 1400 3286 1534 
Q 3188 1669 3009 1756 
Q 2831 1844 2584 1903 
Q 2338 1963 2038 2031 
Q 1516 2147 1245 2262 
Q 975 2378 819 2520 
Q 663 2663 580 2853 
Q 497 3044 497 3291 
Q 497 3856 930 4162 
Q 1363 4469 2169 4469 
Q 2919 4469 3316 4239 
Q 3713 4009 3872 3456 
L 3284 3353 
Q 3188 3703 2916 3861 
Q 2644 4019 2163 4019 
Q 1634 4019 1356 3844 
Q 1078 3669 1078 3322 
Q 1078 3119 1186 2986 
Q 1294 2853 1497 2761 
Q 1700 2669 2306 2534 
Q 2509 2488 2711 2439 
Q 2913 2391 3097 2323 
Q 3281 2256 3442 2165 
Q 3603 2075 3722 1944 
Q 3841 1813 3908 1634 
Q 3975 1456 3975 1216 
z
" transform="scale(0.015625)"/>
       <path id="LiberationSans-67" d="M 1713 -1328 
Q 1159 -1328 831 -1111 
Q 503 -894 409 -494 
L 975 -413 
Q 1031 -647 1223 -773 
Q 1416 -900 1728 -900 
Q 2569 -900 2569 84 
L 2569 628 
L 2563 628 
Q 2403 303 2125 139 
Q 1847 -25 1475 -25 
Q 853 -25 561 387 
Q 269 800 269 1684 
Q 269 2581 583 3007 
Q 897 3434 1538 3434 
Q 1897 3434 2161 3270 
Q 2425 3106 2569 2803 
L 2575 2803 
Q 2575 2897 2587 3128 
Q 2600 3359 2613 3381 
L 3147 3381 
Q 3128 3213 3128 2681 
L 3128 97 
Q 3128 -1328 1713 -1328 
z
M 2569 1691 
Q 2569 2103 2456 2401 
Q 2344 2700 2139 2858 
Q 1934 3016 1675 3016 
Q 1244 3016 1047 2703 
Q 850 2391 850 1691 
Q 850 997 1034 694 
Q 1219 391 1666 391 
Q 1931 391 2137 547 
Q 2344 703 2456 995 
Q 2569 1288 2569 1691 
z
" transform="scale(0.015625)"/>
      </defs>
      <use xlink:href="#LiberationSans-53"/>
      <use xlink:href="#LiberationSans-69" transform="translate(66.699219 0)"/>
      <use xlink:href="#LiberationSans-6e" transform="translate(88.916016 0)"/>
      <use xlink:href="#LiberationSans-67" transform="translate(144.53125 0)"/>
      <use xlink:href="#LiberationSans-6c" transform="translate(200.146484 0)"/>
      <use xlink:href="#LiberationSans-65" transform="translate(222.363281 0)"/>
      <use xlink:href="#LiberationSans-2d" transform="translate(277.978516 0)"/>
      <use xlink:href="#LiberationSans-74" transform="translate(311.279297 0)"/>
      <use xlink:href="#LiberationSans-79" transform="translate(339.0625 0)"/>
      <use xlink:href="#LiberationSans-70" transform="translate(389.0625 0)"/>
      <use xlink:href="#LiberationSans-65" transform="translate(444.677734 0)"/>
      <use xlink:href="#LiberationSans-20" transform="translate(500.292969 0)"/>
      <use xlink:href="#LiberationSans-64" transform="translate(528.076172 0)"/>
      <use xlink:href="#LiberationSans-72" transform="translate(583.691406 0)"/>
      <use xlink:href="#LiberationSans-6f" transform="translate(616.992188 0)"/>
      <use xlink:href="#LiberationSans-70" transform="translate(672.607422 0)"/>
     </g>
    </g>
   </g>
   <g id="matplotlib.axis_4">
    <g id="ytick_8">
     <g id="line2d_31">
      <path d="M 352.174162 190.377356 
L 534.792344 190.377356 
" clip-path="url(#p7584d4f5a9)" style="fill: none; stroke: #b0b0b0; stroke-opacity: 0.2; stroke-width: 0.6; stroke-linecap: square"/>
     </g>
     <g id="line2d_32">
      <g>
       <use xlink:href="#m65b6d28f93" x="352.174162" y="190.377356" style="stroke: #000000; stroke-width: 0.75"/>
      </g>
     </g>
     <g id="text_27">
      <!-- R2 -->
      <g transform="translate(337.226193 192.913762) scale(0.07 -0.07)">
       <defs>
        <path id="LiberationSans-52" d="M 3638 0 
L 2494 1828 
L 1122 1828 
L 1122 0 
L 525 0 
L 525 4403 
L 2597 4403 
Q 3341 4403 3745 4070 
Q 4150 3738 4150 3144 
Q 4150 2653 3864 2318 
Q 3578 1984 3075 1897 
L 4325 0 
L 3638 0 
z
M 3550 3138 
Q 3550 3522 3289 3723 
Q 3028 3925 2538 3925 
L 1122 3925 
L 1122 2300 
L 2563 2300 
Q 3034 2300 3292 2520 
Q 3550 2741 3550 3138 
z
" transform="scale(0.015625)"/>
       </defs>
       <use xlink:href="#LiberationSans-52"/>
       <use xlink:href="#LiberationSans-32" transform="translate(72.216797 0)"/>
      </g>
     </g>
    </g>
    <g id="ytick_9">
     <g id="line2d_33">
      <path d="M 352.174162 179.480059 
L 534.792344 179.480059 
" clip-path="url(#p7584d4f5a9)" style="fill: none; stroke: #b0b0b0; stroke-opacity: 0.2; stroke-width: 0.6; stroke-linecap: square"/>
     </g>
     <g id="line2d_34">
      <g>
       <use xlink:href="#m65b6d28f93" x="352.174162" y="179.480059" style="stroke: #000000; stroke-width: 0.75"/>
      </g>
     </g>
     <g id="text_28">
      <!-- R4 -->
      <g transform="translate(337.226193 182.016465) scale(0.07 -0.07)">
       <use xlink:href="#LiberationSans-52"/>
       <use xlink:href="#LiberationSans-34" transform="translate(72.216797 0)"/>
      </g>
     </g>
    </g>
    <g id="ytick_10">
     <g id="line2d_35">
      <path d="M 352.174162 168.582761 
L 534.792344 168.582761 
" clip-path="url(#p7584d4f5a9)" style="fill: none; stroke: #b0b0b0; stroke-opacity: 0.2; stroke-width: 0.6; stroke-linecap: square"/>
     </g>
     <g id="line2d_36">
      <g>
       <use xlink:href="#m65b6d28f93" x="352.174162" y="168.582761" style="stroke: #000000; stroke-width: 0.75"/>
      </g>
     </g>
     <g id="text_29">
      <!-- R6 -->
      <g transform="translate(337.226193 171.119168) scale(0.07 -0.07)">
       <use xlink:href="#LiberationSans-52"/>
       <use xlink:href="#LiberationSans-36" transform="translate(72.216797 0)"/>
      </g>
     </g>
    </g>
    <g id="ytick_11">
     <g id="line2d_37">
      <path d="M 352.174162 157.685464 
L 534.792344 157.685464 
" clip-path="url(#p7584d4f5a9)" style="fill: none; stroke: #b0b0b0; stroke-opacity: 0.2; stroke-width: 0.6; stroke-linecap: square"/>
     </g>
     <g id="line2d_38">
      <g>
       <use xlink:href="#m65b6d28f93" x="352.174162" y="157.685464" style="stroke: #000000; stroke-width: 0.75"/>
      </g>
     </g>
     <g id="text_30">
      <!-- R7 -->
      <g transform="translate(337.226193 160.22187) scale(0.07 -0.07)">
       <use xlink:href="#LiberationSans-52"/>
       <use xlink:href="#LiberationSans-37" transform="translate(72.216797 0)"/>
      </g>
     </g>
    </g>
    <g id="ytick_12">
     <g id="line2d_39">
      <path d="M 352.174162 146.788167 
L 534.792344 146.788167 
" clip-path="url(#p7584d4f5a9)" style="fill: none; stroke: #b0b0b0; stroke-opacity: 0.2; stroke-width: 0.6; stroke-linecap: square"/>
     </g>
     <g id="line2d_40">
      <g>
       <use xlink:href="#m65b6d28f93" x="352.174162" y="146.788167" style="stroke: #000000; stroke-width: 0.75"/>
      </g>
     </g>
     <g id="text_31">
      <!-- L1 -->
      <g transform="translate(338.388849 149.324573) scale(0.07 -0.07)">
       <defs>
        <path id="LiberationSans-4c" d="M 525 0 
L 525 4403 
L 1122 4403 
L 1122 488 
L 3347 488 
L 3347 0 
L 525 0 
z
" transform="scale(0.015625)"/>
       </defs>
       <use xlink:href="#LiberationSans-4c"/>
       <use xlink:href="#LiberationSans-31" transform="translate(55.615234 0)"/>
      </g>
     </g>
    </g>
    <g id="ytick_13">
     <g id="line2d_41">
      <path d="M 352.174162 135.89087 
L 534.792344 135.89087 
" clip-path="url(#p7584d4f5a9)" style="fill: none; stroke: #b0b0b0; stroke-opacity: 0.2; stroke-width: 0.6; stroke-linecap: square"/>
     </g>
     <g id="line2d_42">
      <g>
       <use xlink:href="#m65b6d28f93" x="352.174162" y="135.89087" style="stroke: #000000; stroke-width: 0.75"/>
      </g>
     </g>
     <g id="text_32">
      <!-- R1 -->
      <g transform="translate(337.226193 138.427276) scale(0.07 -0.07)">
       <use xlink:href="#LiberationSans-52"/>
       <use xlink:href="#LiberationSans-31" transform="translate(72.216797 0)"/>
      </g>
     </g>
    </g>
    <g id="ytick_14">
     <g id="line2d_43">
      <path d="M 352.174162 124.993572 
L 534.792344 124.993572 
" clip-path="url(#p7584d4f5a9)" style="fill: none; stroke: #b0b0b0; stroke-opacity: 0.2; stroke-width: 0.6; stroke-linecap: square"/>
     </g>
     <g id="line2d_44">
      <g>
       <use xlink:href="#m65b6d28f93" x="352.174162" y="124.993572" style="stroke: #000000; stroke-width: 0.75"/>
      </g>
     </g>
     <g id="text_33">
      <!-- TmY14 -->
      <g transform="translate(323.613381 127.529979) scale(0.07 -0.07)">
       <defs>
        <path id="LiberationSans-59" d="M 2428 1825 
L 2428 0 
L 1834 0 
L 1834 1825 
L 141 4403 
L 797 4403 
L 2138 2306 
L 3472 4403 
L 4128 4403 
L 2428 1825 
z
" transform="scale(0.015625)"/>
       </defs>
       <use xlink:href="#LiberationSans-54"/>
       <use xlink:href="#LiberationSans-6d" transform="translate(61.083984 0)"/>
       <use xlink:href="#LiberationSans-59" transform="translate(144.384766 0)"/>
       <use xlink:href="#LiberationSans-31" transform="translate(211.083984 0)"/>
       <use xlink:href="#LiberationSans-34" transform="translate(266.699219 0)"/>
      </g>
     </g>
    </g>
    <g id="ytick_15">
     <g id="line2d_45">
      <path d="M 352.174162 114.096275 
L 534.792344 114.096275 
" clip-path="url(#p7584d4f5a9)" style="fill: none; stroke: #b0b0b0; stroke-opacity: 0.2; stroke-width: 0.6; stroke-linecap: square"/>
     </g>
     <g id="line2d_46">
      <g>
       <use xlink:href="#m65b6d28f93" x="352.174162" y="114.096275" style="stroke: #000000; stroke-width: 0.75"/>
      </g>
     </g>
     <g id="text_34">
      <!-- L5 -->
      <g transform="translate(338.388849 116.632681) scale(0.07 -0.07)">
       <use xlink:href="#LiberationSans-4c"/>
       <use xlink:href="#LiberationSans-35" transform="translate(55.615234 0)"/>
      </g>
     </g>
    </g>
    <g id="ytick_16">
     <g id="line2d_47">
      <path d="M 352.174162 103.198978 
L 534.792344 103.198978 
" clip-path="url(#p7584d4f5a9)" style="fill: none; stroke: #b0b0b0; stroke-opacity: 0.2; stroke-width: 0.6; stroke-linecap: square"/>
     </g>
     <g id="line2d_48">
      <g>
       <use xlink:href="#m65b6d28f93" x="352.174162" y="103.198978" style="stroke: #000000; stroke-width: 0.75"/>
      </g>
     </g>
     <g id="text_35">
      <!-- Mi14 -->
      <g transform="translate(331.002756 105.735384) scale(0.07 -0.07)">
       <defs>
        <path id="LiberationSans-4d" d="M 4269 0 
L 4269 2938 
Q 4269 3425 4297 3875 
Q 4144 3316 4022 3000 
L 2884 0 
L 2466 0 
L 1313 3000 
L 1138 3531 
L 1034 3875 
L 1044 3528 
L 1056 2938 
L 1056 0 
L 525 0 
L 525 4403 
L 1309 4403 
L 2481 1350 
Q 2544 1166 2601 955 
Q 2659 744 2678 650 
Q 2703 775 2783 1029 
Q 2863 1284 2891 1350 
L 4041 4403 
L 4806 4403 
L 4806 0 
L 4269 0 
z
" transform="scale(0.015625)"/>
       </defs>
       <use xlink:href="#LiberationSans-4d"/>
       <use xlink:href="#LiberationSans-69" transform="translate(83.300781 0)"/>
       <use xlink:href="#LiberationSans-31" transform="translate(105.517578 0)"/>
       <use xlink:href="#LiberationSans-34" transform="translate(161.132812 0)"/>
      </g>
     </g>
    </g>
    <g id="ytick_17">
     <g id="line2d_49">
      <path d="M 352.174162 92.30168 
L 534.792344 92.30168 
" clip-path="url(#p7584d4f5a9)" style="fill: none; stroke: #b0b0b0; stroke-opacity: 0.2; stroke-width: 0.6; stroke-linecap: square"/>
     </g>
     <g id="line2d_50">
      <g>
       <use xlink:href="#m65b6d28f93" x="352.174162" y="92.30168" style="stroke: #000000; stroke-width: 0.75"/>
      </g>
     </g>
     <g id="text_36">
      <!-- T4b -->
      <g transform="translate(334.113381 94.838087) scale(0.07 -0.07)">
       <use xlink:href="#LiberationSans-54"/>
       <use xlink:href="#LiberationSans-34" transform="translate(61.083984 0)"/>
       <use xlink:href="#LiberationSans-62" transform="translate(116.699219 0)"/>
      </g>
     </g>
    </g>
    <g id="ytick_18">
     <g id="line2d_51">
      <path d="M 352.174162 81.404383 
L 534.792344 81.404383 
" clip-path="url(#p7584d4f5a9)" style="fill: none; stroke: #b0b0b0; stroke-opacity: 0.2; stroke-width: 0.6; stroke-linecap: square"/>
     </g>
     <g id="line2d_52">
      <g>
       <use xlink:href="#m65b6d28f93" x="352.174162" y="81.404383" style="stroke: #000000; stroke-width: 0.75"/>
      </g>
     </g>
     <g id="text_37">
      <!-- T5c -->
      <g transform="translate(334.506037 83.940789) scale(0.07 -0.07)">
       <use xlink:href="#LiberationSans-54"/>
       <use xlink:href="#LiberationSans-35" transform="translate(61.083984 0)"/>
       <use xlink:href="#LiberationSans-63" transform="translate(116.699219 0)"/>
      </g>
     </g>
    </g>
    <g id="ytick_19">
     <g id="line2d_53">
      <path d="M 352.174162 70.507086 
L 534.792344 70.507086 
" clip-path="url(#p7584d4f5a9)" style="fill: none; stroke: #b0b0b0; stroke-opacity: 0.2; stroke-width: 0.6; stroke-linecap: square"/>
     </g>
     <g id="line2d_54">
      <g>
       <use xlink:href="#m65b6d28f93" x="352.174162" y="70.507086" style="stroke: #000000; stroke-width: 0.75"/>
      </g>
     </g>
     <g id="text_38">
      <!-- T4d -->
      <g transform="translate(334.113381 73.043492) scale(0.07 -0.07)">
       <use xlink:href="#LiberationSans-54"/>
       <use xlink:href="#LiberationSans-34" transform="translate(61.083984 0)"/>
       <use xlink:href="#LiberationSans-64" transform="translate(116.699219 0)"/>
      </g>
     </g>
    </g>
    <g id="ytick_20">
     <g id="line2d_55">
      <path d="M 352.174162 59.609789 
L 534.792344 59.609789 
" clip-path="url(#p7584d4f5a9)" style="fill: none; stroke: #b0b0b0; stroke-opacity: 0.2; stroke-width: 0.6; stroke-linecap: square"/>
     </g>
     <g id="line2d_56">
      <g>
       <use xlink:href="#m65b6d28f93" x="352.174162" y="59.609789" style="stroke: #000000; stroke-width: 0.75"/>
      </g>
     </g>
     <g id="text_39">
      <!-- T5d -->
      <g transform="translate(334.113381 62.146195) scale(0.07 -0.07)">
       <use xlink:href="#LiberationSans-54"/>
       <use xlink:href="#LiberationSans-35" transform="translate(61.083984 0)"/>
       <use xlink:href="#LiberationSans-64" transform="translate(116.699219 0)"/>
      </g>
     </g>
    </g>
    <g id="ytick_21">
     <g id="line2d_57">
      <path d="M 352.174162 48.712491 
L 534.792344 48.712491 
" clip-path="url(#p7584d4f5a9)" style="fill: none; stroke: #b0b0b0; stroke-opacity: 0.2; stroke-width: 0.6; stroke-linecap: square"/>
     </g>
     <g id="line2d_58">
      <g>
       <use xlink:href="#m65b6d28f93" x="352.174162" y="48.712491" style="stroke: #000000; stroke-width: 0.75"/>
      </g>
     </g>
     <g id="text_40">
      <!-- Tm4 -->
      <g transform="translate(332.175256 51.248897) scale(0.07 -0.07)">
       <use xlink:href="#LiberationSans-54"/>
       <use xlink:href="#LiberationSans-6d" transform="translate(61.083984 0)"/>
       <use xlink:href="#LiberationSans-34" transform="translate(144.384766 0)"/>
      </g>
     </g>
    </g>
    <g id="ytick_22">
     <g id="line2d_59">
      <path d="M 352.174162 37.815194 
L 534.792344 37.815194 
" clip-path="url(#p7584d4f5a9)" style="fill: none; stroke: #b0b0b0; stroke-opacity: 0.2; stroke-width: 0.6; stroke-linecap: square"/>
     </g>
     <g id="line2d_60">
      <g>
       <use xlink:href="#m65b6d28f93" x="352.174162" y="37.815194" style="stroke: #000000; stroke-width: 0.75"/>
      </g>
     </g>
     <g id="text_41">
      <!-- T5a -->
      <g transform="translate(334.113381 40.3516) scale(0.07 -0.07)">
       <use xlink:href="#LiberationSans-54"/>
       <use xlink:href="#LiberationSans-35" transform="translate(61.083984 0)"/>
       <use xlink:href="#LiberationSans-61" transform="translate(116.699219 0)"/>
      </g>
     </g>
    </g>
   </g>
   <g id="patch_13">
    <path d="M 352.174162 194.736275 
L 352.174162 194.736275 
L 352.174162 186.018437 
L 352.174162 186.018437 
z
" clip-path="url(#p7584d4f5a9)" style="fill: #9467bd"/>
   </g>
   <g id="patch_14">
    <path d="M 352.174162 183.838978 
L 352.174162 183.838978 
L 352.174162 175.12114 
L 352.174162 175.12114 
z
" clip-path="url(#p7584d4f5a9)" style="fill: #9467bd"/>
   </g>
   <g id="patch_15">
    <path d="M 352.174162 172.94168 
L 352.174162 172.94168 
L 352.174162 164.223843 
L 352.174162 164.223843 
z
" clip-path="url(#p7584d4f5a9)" style="fill: #9467bd"/>
   </g>
   <g id="patch_16">
    <path d="M 352.174162 162.044383 
L 352.174162 162.044383 
L 352.174162 153.326545 
L 352.174162 153.326545 
z
" clip-path="url(#p7584d4f5a9)" style="fill: #9467bd"/>
   </g>
   <g id="patch_17">
    <path d="M 352.174162 151.147086 
L 352.174162 151.147086 
L 352.174162 142.429248 
L 352.174162 142.429248 
z
" clip-path="url(#p7584d4f5a9)" style="fill: #9467bd"/>
   </g>
   <g id="patch_18">
    <path d="M 352.174162 140.249789 
L 352.174162 140.249789 
L 352.174162 131.531951 
L 352.174162 131.531951 
z
" clip-path="url(#p7584d4f5a9)" style="fill: #9467bd"/>
   </g>
   <g id="patch_19">
    <path d="M 352.174162 129.352491 
L 439.135201 129.352491 
L 439.135201 120.634653 
L 352.174162 120.634653 
z
" clip-path="url(#p7584d4f5a9)" style="fill: #9467bd"/>
   </g>
   <g id="patch_20">
    <path d="M 352.174162 118.455194 
L 439.135201 118.455194 
L 439.135201 109.737356 
L 352.174162 109.737356 
z
" clip-path="url(#p7584d4f5a9)" style="fill: #9467bd"/>
   </g>
   <g id="patch_21">
    <path d="M 352.174162 107.557897 
L 439.135201 107.557897 
L 439.135201 98.840059 
L 352.174162 98.840059 
z
" clip-path="url(#p7584d4f5a9)" style="fill: #9467bd"/>
   </g>
   <g id="patch_22">
    <path d="M 352.174162 96.660599 
L 439.135201 96.660599 
L 439.135201 87.942761 
L 352.174162 87.942761 
z
" clip-path="url(#p7584d4f5a9)" style="fill: #9467bd"/>
   </g>
   <g id="patch_23">
    <path d="M 352.174162 85.763302 
L 439.135201 85.763302 
L 439.135201 77.045464 
L 352.174162 77.045464 
z
" clip-path="url(#p7584d4f5a9)" style="fill: #9467bd"/>
   </g>
   <g id="patch_24">
    <path d="M 352.174162 74.866005 
L 439.135201 74.866005 
L 439.135201 66.148167 
L 352.174162 66.148167 
z
" clip-path="url(#p7584d4f5a9)" style="fill: #9467bd"/>
   </g>
   <g id="patch_25">
    <path d="M 352.174162 63.968707 
L 439.135201 63.968707 
L 439.135201 55.25087 
L 352.174162 55.25087 
z
" clip-path="url(#p7584d4f5a9)" style="fill: #9467bd"/>
   </g>
   <g id="patch_26">
    <path d="M 352.174162 53.07141 
L 439.135201 53.07141 
L 439.135201 44.353572 
L 352.174162 44.353572 
z
" clip-path="url(#p7584d4f5a9)" style="fill: #9467bd"/>
   </g>
   <g id="patch_27">
    <path d="M 352.174162 42.174113 
L 526.09624 42.174113 
L 526.09624 33.456275 
L 352.174162 33.456275 
z
" clip-path="url(#p7584d4f5a9)" style="fill: #9467bd"/>
   </g>
   <g id="patch_28">
    <path d="M 352.174162 202.800275 
L 352.174162 25.392275 
" style="fill: none; stroke: #000000; stroke-width: 0.75; stroke-linejoin: miter; stroke-linecap: square"/>
   </g>
   <g id="patch_29">
    <path d="M 352.174162 202.800275 
L 534.792344 202.800275 
" style="fill: none; stroke: #000000; stroke-width: 0.75; stroke-linejoin: miter; stroke-linecap: square"/>
   </g>
   <g id="text_42">
    <!-- B -->
    <g transform="translate(324.781435 14.446875) scale(0.1 -0.1)">
     <defs>
      <path id="LiberationSans-Bold-42" d="M 4331 1256 
Q 4331 656 3881 328 
Q 3431 0 2631 0 
L 428 0 
L 428 4403 
L 2444 4403 
Q 3250 4403 3664 4123 
Q 4078 3844 4078 3297 
Q 4078 2922 3870 2664 
Q 3663 2406 3238 2316 
Q 3772 2253 4051 1979 
Q 4331 1706 4331 1256 
z
M 3150 3172 
Q 3150 3469 2961 3594 
Q 2772 3719 2400 3719 
L 1350 3719 
L 1350 2628 
L 2406 2628 
Q 2797 2628 2973 2764 
Q 3150 2900 3150 3172 
z
M 3406 1328 
Q 3406 1947 2519 1947 
L 1350 1947 
L 1350 684 
L 2553 684 
Q 2997 684 3201 845 
Q 3406 1006 3406 1328 
z
" transform="scale(0.015625)"/>
     </defs>
     <use xlink:href="#LiberationSans-Bold-42"/>
    </g>
   </g>
  </g>
 </g>
 <defs>
  <clipPath id="p1d1993fd52">
   <rect x="133.032344" y="25.392275" width="182.618182" height="177.408"/>
  </clipPath>
  <clipPath id="p7584d4f5a9">
   <rect x="352.174162" y="25.392275" width="182.618182" height="177.408"/>
  </clipPath>
 </defs>
</svg>
