<?xml version="1.0" encoding="utf-8" standalone="no"?>
<!DOCTYPE svg PUBLIC "-//W3C//DTD SVG 1.1//EN"
  "http://www.w3.org/Graphics/SVG/1.1/DTD/svg11.dtd">
<svg xmlns:xlink="http://www.w3.org/1999/xlink" width="473.779539pt" height="222.340688pt" viewBox="0 0 473.779539 222.340688" xmlns="http://www.w3.org/2000/svg" version="1.1">
 <metadata>
  <rdf:RDF xmlns:dc="http://purl.org/dc/elements/1.1/" xmlns:cc="http://creativecommons.org/ns#" xmlns:rdf="http://www.w3.org/1999/02/22-rdf-syntax-ns#">
   <cc:Work>
    <dc:type rdf:resource="http://purl.org/dc/dcmitype/StillImage"/>
    <dc:date>2026-04-29T16:42:54.662594</dc:date>
    <dc:format>image/svg+xml</dc:format>
    <dc:creator>
     <cc:Agent>
      <dc:title>Matplotlib v3.10.1, https://matplotlib.org/</dc:title>
     </cc:Agent>
    </dc:creator>
   </cc:Work>
  </rdf:RDF>
 </metadata>
 <defs>
  <style type="text/css">*{stroke-linejoin: round; stroke-linecap: butt}</style>
 </defs>
 <g id="figure_1">
  <g id="patch_1">
   <path d="M 0 222.340688 
L 473.779539 222.340688 
L 473.779539 -0 
L 0 -0 
z
" style="fill: #ffffff"/>
  </g>
  <g id="axes_1">
   <g id="patch_2">
    <path d="M 64.946406 191.157875 
L 192.899895 191.157875 
L 192.899895 24.837875 
L 64.946406 24.837875 
z
" style="fill: #ffffff"/>
   </g>
   <g id="patch_3">
    <path d="M 64.946406 183.597875 
L 186.806871 183.597875 
L 186.806871 151.766296 
L 64.946406 151.766296 
z
" clip-path="url(#p3286c6f6cc)" style="fill: #8c564b"/>
   </g>
   <g id="patch_4">
    <path d="M 64.946406 143.808401 
L 186.806871 143.808401 
L 186.806871 111.976822 
L 64.946406 111.976822 
z
" clip-path="url(#p3286c6f6cc)" style="fill: #8c564b"/>
   </g>
   <g id="patch_5">
    <path d="M 64.946406 104.018928 
L 186.806871 104.018928 
L 186.806871 72.187349 
L 64.946406 72.187349 
z
" clip-path="url(#p3286c6f6cc)" style="fill: #8c564b"/>
   </g>
   <g id="patch_6">
    <path d="M 64.946406 64.229454 
L 186.806871 64.229454 
L 186.806871 32.397875 
L 64.946406 32.397875 
z
" clip-path="url(#p3286c6f6cc)" style="fill: #8c564b"/>
   </g>
   <g id="matplotlib.axis_1">
    <g id="xtick_1">
     <g id="line2d_1">
      <defs>
       <path id="m6340fc7f1d" d="M 0 0 
L 0 2.5 
" style="stroke: #000000; stroke-width: 0.75"/>
      </defs>
      <g>
       <use xlink:href="#m6340fc7f1d" x="64.946406" y="191.157875" style="stroke: #000000; stroke-width: 0.75"/>
      </g>
     </g>
     <g id="text_1">
      <!-- 0.0 -->
      <g transform="translate(60.081406 202.230688) scale(0.07 -0.07)">
       <defs>
        <path id="LiberationSans-30" d="M 3309 2203 
Q 3309 1100 2920 518 
Q 2531 -63 1772 -63 
Q 1013 -63 631 515 
Q 250 1094 250 2203 
Q 250 3338 620 3903 
Q 991 4469 1791 4469 
Q 2569 4469 2939 3897 
Q 3309 3325 3309 2203 
z
M 2738 2203 
Q 2738 3156 2517 3584 
Q 2297 4013 1791 4013 
Q 1272 4013 1045 3591 
Q 819 3169 819 2203 
Q 819 1266 1048 831 
Q 1278 397 1778 397 
Q 2275 397 2506 840 
Q 2738 1284 2738 2203 
z
" transform="scale(0.015625)"/>
        <path id="LiberationSans-2e" d="M 584 0 
L 584 684 
L 1194 684 
L 1194 0 
L 584 0 
z
" transform="scale(0.015625)"/>
       </defs>
       <use xlink:href="#LiberationSans-30"/>
       <use xlink:href="#LiberationSans-2e" transform="translate(55.615234 0)"/>
       <use xlink:href="#LiberationSans-30" transform="translate(83.398438 0)"/>
      </g>
     </g>
    </g>
    <g id="xtick_2">
     <g id="line2d_2">
      <g>
       <use xlink:href="#m6340fc7f1d" x="91.334236" y="191.157875" style="stroke: #000000; stroke-width: 0.75"/>
      </g>
     </g>
     <g id="text_2">
      <!-- 0.2 -->
      <g transform="translate(86.469236 202.230688) scale(0.07 -0.07)">
       <defs>
        <path id="LiberationSans-32" d="M 322 0 
L 322 397 
Q 481 763 711 1042 
Q 941 1322 1194 1548 
Q 1447 1775 1695 1969 
Q 1944 2163 2144 2356 
Q 2344 2550 2467 2762 
Q 2591 2975 2591 3244 
Q 2591 3606 2378 3806 
Q 2166 4006 1788 4006 
Q 1428 4006 1195 3811 
Q 963 3616 922 3263 
L 347 3316 
Q 409 3844 795 4156 
Q 1181 4469 1788 4469 
Q 2453 4469 2811 4155 
Q 3169 3841 3169 3263 
Q 3169 3006 3051 2753 
Q 2934 2500 2703 2247 
Q 2472 1994 1819 1463 
Q 1459 1169 1246 933 
Q 1034 697 941 478 
L 3238 478 
L 3238 0 
L 322 0 
z
" transform="scale(0.015625)"/>
       </defs>
       <use xlink:href="#LiberationSans-30"/>
       <use xlink:href="#LiberationSans-2e" transform="translate(55.615234 0)"/>
       <use xlink:href="#LiberationSans-32" transform="translate(83.398438 0)"/>
      </g>
     </g>
    </g>
    <g id="xtick_3">
     <g id="line2d_3">
      <g>
       <use xlink:href="#m6340fc7f1d" x="117.722066" y="191.157875" style="stroke: #000000; stroke-width: 0.75"/>
      </g>
     </g>
     <g id="text_3">
      <!-- 0.4 -->
      <g transform="translate(112.857066 202.230688) scale(0.07 -0.07)">
       <defs>
        <path id="LiberationSans-34" d="M 2753 997 
L 2753 0 
L 2222 0 
L 2222 997 
L 147 997 
L 147 1434 
L 2163 4403 
L 2753 4403 
L 2753 1441 
L 3372 1441 
L 3372 997 
L 2753 997 
z
M 2222 3769 
Q 2216 3750 2134 3603 
Q 2053 3456 2013 3397 
L 884 1734 
L 716 1503 
L 666 1441 
L 2222 1441 
L 2222 3769 
z
" transform="scale(0.015625)"/>
       </defs>
       <use xlink:href="#LiberationSans-30"/>
       <use xlink:href="#LiberationSans-2e" transform="translate(55.615234 0)"/>
       <use xlink:href="#LiberationSans-34" transform="translate(83.398438 0)"/>
      </g>
     </g>
    </g>
    <g id="xtick_4">
     <g id="line2d_4">
      <g>
       <use xlink:href="#m6340fc7f1d" x="144.109896" y="191.157875" style="stroke: #000000; stroke-width: 0.75"/>
      </g>
     </g>
     <g id="text_4">
      <!-- 0.6 -->
      <g transform="translate(139.244896 202.230688) scale(0.07 -0.07)">
       <defs>
        <path id="LiberationSans-36" d="M 3278 1441 
Q 3278 744 2900 340 
Q 2522 -63 1856 -63 
Q 1113 -63 719 490 
Q 325 1044 325 2100 
Q 325 3244 734 3856 
Q 1144 4469 1900 4469 
Q 2897 4469 3156 3572 
L 2619 3475 
Q 2453 4013 1894 4013 
Q 1413 4013 1148 3564 
Q 884 3116 884 2266 
Q 1038 2550 1316 2698 
Q 1594 2847 1953 2847 
Q 2563 2847 2920 2465 
Q 3278 2084 3278 1441 
z
M 2706 1416 
Q 2706 1894 2472 2153 
Q 2238 2413 1819 2413 
Q 1425 2413 1183 2183 
Q 941 1953 941 1550 
Q 941 1041 1192 716 
Q 1444 391 1838 391 
Q 2244 391 2475 664 
Q 2706 938 2706 1416 
z
" transform="scale(0.015625)"/>
       </defs>
       <use xlink:href="#LiberationSans-30"/>
       <use xlink:href="#LiberationSans-2e" transform="translate(55.615234 0)"/>
       <use xlink:href="#LiberationSans-36" transform="translate(83.398438 0)"/>
      </g>
     </g>
    </g>
    <g id="xtick_5">
     <g id="line2d_5">
      <g>
       <use xlink:href="#m6340fc7f1d" x="170.497726" y="191.157875" style="stroke: #000000; stroke-width: 0.75"/>
      </g>
     </g>
     <g id="text_5">
      <!-- 0.8 -->
      <g transform="translate(165.632726 202.230688) scale(0.07 -0.07)">
       <defs>
        <path id="LiberationSans-38" d="M 3281 1228 
Q 3281 619 2893 278 
Q 2506 -63 1781 -63 
Q 1075 -63 676 271 
Q 278 606 278 1222 
Q 278 1653 525 1947 
Q 772 2241 1156 2303 
L 1156 2316 
Q 797 2400 589 2681 
Q 381 2963 381 3341 
Q 381 3844 757 4156 
Q 1134 4469 1769 4469 
Q 2419 4469 2795 4162 
Q 3172 3856 3172 3334 
Q 3172 2956 2962 2675 
Q 2753 2394 2391 2322 
L 2391 2309 
Q 2813 2241 3047 1952 
Q 3281 1663 3281 1228 
z
M 2588 3303 
Q 2588 4050 1769 4050 
Q 1372 4050 1164 3862 
Q 956 3675 956 3303 
Q 956 2925 1170 2726 
Q 1384 2528 1775 2528 
Q 2172 2528 2380 2711 
Q 2588 2894 2588 3303 
z
M 2697 1281 
Q 2697 1691 2453 1898 
Q 2209 2106 1769 2106 
Q 1341 2106 1100 1882 
Q 859 1659 859 1269 
Q 859 359 1788 359 
Q 2247 359 2472 579 
Q 2697 800 2697 1281 
z
" transform="scale(0.015625)"/>
       </defs>
       <use xlink:href="#LiberationSans-30"/>
       <use xlink:href="#LiberationSans-2e" transform="translate(55.615234 0)"/>
       <use xlink:href="#LiberationSans-38" transform="translate(83.398438 0)"/>
      </g>
     </g>
    </g>
    <g id="text_6">
     <!-- Accuracy -->
     <g transform="translate(112.4744 213.480688) scale(0.08 -0.08)">
      <defs>
       <path id="LiberationSans-41" d="M 3647 0 
L 3144 1288 
L 1138 1288 
L 631 0 
L 13 0 
L 1809 4403 
L 2488 4403 
L 4256 0 
L 3647 0 
z
M 2141 3953 
L 2113 3866 
Q 2034 3606 1881 3200 
L 1319 1753 
L 2966 1753 
L 2400 3206 
Q 2313 3422 2225 3694 
L 2141 3953 
z
" transform="scale(0.015625)"/>
       <path id="LiberationSans-63" d="M 859 1706 
Q 859 1031 1071 706 
Q 1284 381 1713 381 
Q 2013 381 2214 543 
Q 2416 706 2463 1044 
L 3031 1006 
Q 2966 519 2616 228 
Q 2266 -63 1728 -63 
Q 1019 -63 645 385 
Q 272 834 272 1694 
Q 272 2547 647 2995 
Q 1022 3444 1722 3444 
Q 2241 3444 2583 3175 
Q 2925 2906 3013 2434 
L 2434 2391 
Q 2391 2672 2212 2837 
Q 2034 3003 1706 3003 
Q 1259 3003 1059 2706 
Q 859 2409 859 1706 
z
" transform="scale(0.015625)"/>
       <path id="LiberationSans-75" d="M 981 3381 
L 981 1238 
Q 981 903 1047 718 
Q 1113 534 1256 453 
Q 1400 372 1678 372 
Q 2084 372 2318 650 
Q 2553 928 2553 1422 
L 2553 3381 
L 3116 3381 
L 3116 722 
Q 3116 131 3134 0 
L 2603 0 
Q 2600 16 2597 84 
Q 2594 153 2589 242 
Q 2584 331 2578 578 
L 2569 578 
Q 2375 228 2120 82 
Q 1866 -63 1488 -63 
Q 931 -63 673 214 
Q 416 491 416 1128 
L 416 3381 
L 981 3381 
z
" transform="scale(0.015625)"/>
       <path id="LiberationSans-72" d="M 444 0 
L 444 2594 
Q 444 2950 425 3381 
L 956 3381 
Q 981 2806 981 2691 
L 994 2691 
Q 1128 3125 1303 3284 
Q 1478 3444 1797 3444 
Q 1909 3444 2025 3413 
L 2025 2897 
Q 1913 2928 1725 2928 
Q 1375 2928 1190 2626 
Q 1006 2325 1006 1763 
L 1006 0 
L 444 0 
z
" transform="scale(0.015625)"/>
       <path id="LiberationSans-61" d="M 1294 -63 
Q 784 -63 528 206 
Q 272 475 272 944 
Q 272 1469 617 1750 
Q 963 2031 1731 2050 
L 2491 2063 
L 2491 2247 
Q 2491 2659 2316 2837 
Q 2141 3016 1766 3016 
Q 1388 3016 1216 2887 
Q 1044 2759 1009 2478 
L 422 2531 
Q 566 3444 1778 3444 
Q 2416 3444 2737 3151 
Q 3059 2859 3059 2306 
L 3059 850 
Q 3059 600 3125 473 
Q 3191 347 3375 347 
Q 3456 347 3559 369 
L 3559 19 
Q 3347 -31 3125 -31 
Q 2813 -31 2670 133 
Q 2528 297 2509 647 
L 2491 647 
Q 2275 259 1989 98 
Q 1703 -63 1294 -63 
z
M 1422 359 
Q 1731 359 1972 500 
Q 2213 641 2352 886 
Q 2491 1131 2491 1391 
L 2491 1669 
L 1875 1656 
Q 1478 1650 1273 1575 
Q 1069 1500 959 1344 
Q 850 1188 850 934 
Q 850 659 998 509 
Q 1147 359 1422 359 
z
" transform="scale(0.015625)"/>
       <path id="LiberationSans-79" d="M 597 -1328 
Q 366 -1328 209 -1294 
L 209 -872 
Q 328 -891 472 -891 
Q 997 -891 1303 -119 
L 1356 16 
L 16 3381 
L 616 3381 
L 1328 1513 
Q 1344 1469 1366 1408 
Q 1388 1347 1506 1000 
Q 1625 653 1634 613 
L 1853 1228 
L 2594 3381 
L 3188 3381 
L 1888 0 
Q 1678 -541 1497 -805 
Q 1316 -1069 1095 -1198 
Q 875 -1328 597 -1328 
z
" transform="scale(0.015625)"/>
      </defs>
      <use xlink:href="#LiberationSans-41"/>
      <use xlink:href="#LiberationSans-63" transform="translate(66.699219 0)"/>
      <use xlink:href="#LiberationSans-63" transform="translate(116.699219 0)"/>
      <use xlink:href="#LiberationSans-75" transform="translate(166.699219 0)"/>
      <use xlink:href="#LiberationSans-72" transform="translate(222.314453 0)"/>
      <use xlink:href="#LiberationSans-61" transform="translate(255.615234 0)"/>
      <use xlink:href="#LiberationSans-63" transform="translate(311.230469 0)"/>
      <use xlink:href="#LiberationSans-79" transform="translate(361.230469 0)"/>
     </g>
    </g>
   </g>
   <g id="matplotlib.axis_2">
    <g id="ytick_1">
     <g id="line2d_6">
      <defs>
       <path id="md40dc97309" d="M 0 0 
L -2.5 0 
" style="stroke: #000000; stroke-width: 0.75"/>
      </defs>
      <g>
       <use xlink:href="#md40dc97309" x="64.946406" y="167.682086" style="stroke: #000000; stroke-width: 0.75"/>
      </g>
     </g>
     <g id="text_7">
      <!-- full -->
      <g transform="translate(49.998438 170.218492) scale(0.07 -0.07)">
       <defs>
        <path id="LiberationSans-66" d="M 1128 2972 
L 1128 0 
L 566 0 
L 566 2972 
L 91 2972 
L 91 3381 
L 566 3381 
L 566 3763 
Q 566 4225 769 4428 
Q 972 4631 1391 4631 
Q 1625 4631 1788 4594 
L 1788 4166 
Q 1647 4191 1538 4191 
Q 1322 4191 1225 4081 
Q 1128 3972 1128 3684 
L 1128 3381 
L 1788 3381 
L 1788 2972 
L 1128 2972 
z
" transform="scale(0.015625)"/>
        <path id="LiberationSans-6c" d="M 431 0 
L 431 4638 
L 994 4638 
L 994 0 
L 431 0 
z
" transform="scale(0.015625)"/>
       </defs>
       <use xlink:href="#LiberationSans-66"/>
       <use xlink:href="#LiberationSans-75" transform="translate(27.783203 0)"/>
       <use xlink:href="#LiberationSans-6c" transform="translate(83.398438 0)"/>
       <use xlink:href="#LiberationSans-6c" transform="translate(105.615234 0)"/>
      </g>
     </g>
    </g>
    <g id="ytick_2">
     <g id="line2d_7">
      <g>
       <use xlink:href="#md40dc97309" x="64.946406" y="127.892612" style="stroke: #000000; stroke-width: 0.75"/>
      </g>
     </g>
     <g id="text_8">
      <!-- edge dropout -->
      <g transform="translate(17.692344 130.429018) scale(0.07 -0.07)">
       <defs>
        <path id="LiberationSans-65" d="M 863 1572 
Q 863 991 1103 675 
Q 1344 359 1806 359 
Q 2172 359 2392 506 
Q 2613 653 2691 878 
L 3184 738 
Q 2881 -63 1806 -63 
Q 1056 -63 664 384 
Q 272 831 272 1713 
Q 272 2550 664 2997 
Q 1056 3444 1784 3444 
Q 3275 3444 3275 1647 
L 3275 1572 
L 863 1572 
z
M 2694 2003 
Q 2647 2538 2422 2783 
Q 2197 3028 1775 3028 
Q 1366 3028 1127 2754 
Q 888 2481 869 2003 
L 2694 2003 
z
" transform="scale(0.015625)"/>
        <path id="LiberationSans-64" d="M 2566 544 
Q 2409 219 2151 78 
Q 1894 -63 1513 -63 
Q 872 -63 570 368 
Q 269 800 269 1675 
Q 269 3444 1513 3444 
Q 1897 3444 2153 3303 
Q 2409 3163 2566 2856 
L 2572 2856 
L 2566 3234 
L 2566 4638 
L 3128 4638 
L 3128 697 
Q 3128 169 3147 0 
L 2609 0 
Q 2600 50 2589 231 
Q 2578 413 2578 544 
L 2566 544 
z
M 859 1694 
Q 859 984 1046 678 
Q 1234 372 1656 372 
Q 2134 372 2350 703 
Q 2566 1034 2566 1731 
Q 2566 2403 2350 2715 
Q 2134 3028 1663 3028 
Q 1238 3028 1048 2714 
Q 859 2400 859 1694 
z
" transform="scale(0.015625)"/>
        <path id="LiberationSans-67" d="M 1713 -1328 
Q 1159 -1328 831 -1111 
Q 503 -894 409 -494 
L 975 -413 
Q 1031 -647 1223 -773 
Q 1416 -900 1728 -900 
Q 2569 -900 2569 84 
L 2569 628 
L 2563 628 
Q 2403 303 2125 139 
Q 1847 -25 1475 -25 
Q 853 -25 561 387 
Q 269 800 269 1684 
Q 269 2581 583 3007 
Q 897 3434 1538 3434 
Q 1897 3434 2161 3270 
Q 2425 3106 2569 2803 
L 2575 2803 
Q 2575 2897 2587 3128 
Q 2600 3359 2613 3381 
L 3147 3381 
Q 3128 3213 3128 2681 
L 3128 97 
Q 3128 -1328 1713 -1328 
z
M 2569 1691 
Q 2569 2103 2456 2401 
Q 2344 2700 2139 2858 
Q 1934 3016 1675 3016 
Q 1244 3016 1047 2703 
Q 850 2391 850 1691 
Q 850 997 1034 694 
Q 1219 391 1666 391 
Q 1931 391 2137 547 
Q 2344 703 2456 995 
Q 2569 1288 2569 1691 
z
" transform="scale(0.015625)"/>
        <path id="LiberationSans-20" transform="scale(0.015625)"/>
        <path id="LiberationSans-6f" d="M 3291 1694 
Q 3291 806 2900 371 
Q 2509 -63 1766 -63 
Q 1025 -63 647 389 
Q 269 841 269 1694 
Q 269 3444 1784 3444 
Q 2559 3444 2925 3017 
Q 3291 2591 3291 1694 
z
M 2700 1694 
Q 2700 2394 2492 2711 
Q 2284 3028 1794 3028 
Q 1300 3028 1079 2704 
Q 859 2381 859 1694 
Q 859 1025 1076 689 
Q 1294 353 1759 353 
Q 2266 353 2483 678 
Q 2700 1003 2700 1694 
z
" transform="scale(0.015625)"/>
        <path id="LiberationSans-70" d="M 3291 1706 
Q 3291 -63 2047 -63 
Q 1266 -63 997 525 
L 981 525 
Q 994 500 994 -6 
L 994 -1328 
L 431 -1328 
L 431 2691 
Q 431 3213 413 3381 
L 956 3381 
Q 959 3369 965 3292 
Q 972 3216 980 3056 
Q 988 2897 988 2838 
L 1000 2838 
Q 1150 3150 1397 3295 
Q 1644 3441 2047 3441 
Q 2672 3441 2981 3022 
Q 3291 2603 3291 1706 
z
M 2700 1694 
Q 2700 2400 2509 2703 
Q 2319 3006 1903 3006 
Q 1569 3006 1380 2865 
Q 1191 2725 1092 2426 
Q 994 2128 994 1650 
Q 994 984 1206 668 
Q 1419 353 1897 353 
Q 2316 353 2508 661 
Q 2700 969 2700 1694 
z
" transform="scale(0.015625)"/>
        <path id="LiberationSans-74" d="M 1731 25 
Q 1453 -50 1163 -50 
Q 488 -50 488 716 
L 488 2972 
L 97 2972 
L 97 3381 
L 509 3381 
L 675 4138 
L 1050 4138 
L 1050 3381 
L 1675 3381 
L 1675 2972 
L 1050 2972 
L 1050 838 
Q 1050 594 1129 495 
Q 1209 397 1406 397 
Q 1519 397 1731 441 
L 1731 25 
z
" transform="scale(0.015625)"/>
       </defs>
       <use xlink:href="#LiberationSans-65"/>
       <use xlink:href="#LiberationSans-64" transform="translate(55.615234 0)"/>
       <use xlink:href="#LiberationSans-67" transform="translate(111.230469 0)"/>
       <use xlink:href="#LiberationSans-65" transform="translate(166.845703 0)"/>
       <use xlink:href="#LiberationSans-20" transform="translate(222.460938 0)"/>
       <use xlink:href="#LiberationSans-64" transform="translate(250.244141 0)"/>
       <use xlink:href="#LiberationSans-72" transform="translate(305.859375 0)"/>
       <use xlink:href="#LiberationSans-6f" transform="translate(339.160156 0)"/>
       <use xlink:href="#LiberationSans-70" transform="translate(394.775391 0)"/>
       <use xlink:href="#LiberationSans-6f" transform="translate(450.390625 0)"/>
       <use xlink:href="#LiberationSans-75" transform="translate(506.005859 0)"/>
       <use xlink:href="#LiberationSans-74" transform="translate(561.621094 0)"/>
      </g>
     </g>
    </g>
    <g id="ytick_3">
     <g id="line2d_8">
      <g>
       <use xlink:href="#md40dc97309" x="64.946406" y="88.103138" style="stroke: #000000; stroke-width: 0.75"/>
      </g>
     </g>
     <g id="text_9">
      <!-- T4/T5 atten. -->
      <g transform="translate(21.20875 90.639544) scale(0.07 -0.07)">
       <defs>
        <path id="LiberationSans-54" d="M 2250 3916 
L 2250 0 
L 1656 0 
L 1656 3916 
L 144 3916 
L 144 4403 
L 3763 4403 
L 3763 3916 
L 2250 3916 
z
" transform="scale(0.015625)"/>
        <path id="LiberationSans-2f" d="M 0 -63 
L 1284 4638 
L 1778 4638 
L 506 -63 
L 0 -63 
z
" transform="scale(0.015625)"/>
        <path id="LiberationSans-35" d="M 3291 1434 
Q 3291 738 2877 337 
Q 2463 -63 1728 -63 
Q 1113 -63 734 206 
Q 356 475 256 984 
L 825 1050 
Q 1003 397 1741 397 
Q 2194 397 2450 670 
Q 2706 944 2706 1422 
Q 2706 1838 2448 2094 
Q 2191 2350 1753 2350 
Q 1525 2350 1328 2278 
Q 1131 2206 934 2034 
L 384 2034 
L 531 4403 
L 3034 4403 
L 3034 3925 
L 1044 3925 
L 959 2528 
Q 1325 2809 1869 2809 
Q 2519 2809 2905 2428 
Q 3291 2047 3291 1434 
z
" transform="scale(0.015625)"/>
        <path id="LiberationSans-6e" d="M 2578 0 
L 2578 2144 
Q 2578 2478 2512 2662 
Q 2447 2847 2303 2928 
Q 2159 3009 1881 3009 
Q 1475 3009 1240 2731 
Q 1006 2453 1006 1959 
L 1006 0 
L 444 0 
L 444 2659 
Q 444 3250 425 3381 
L 956 3381 
Q 959 3366 962 3297 
Q 966 3228 970 3139 
Q 975 3050 981 2803 
L 991 2803 
Q 1184 3153 1439 3298 
Q 1694 3444 2072 3444 
Q 2628 3444 2886 3167 
Q 3144 2891 3144 2253 
L 3144 0 
L 2578 0 
z
" transform="scale(0.015625)"/>
       </defs>
       <use xlink:href="#LiberationSans-54"/>
       <use xlink:href="#LiberationSans-34" transform="translate(61.083984 0)"/>
       <use xlink:href="#LiberationSans-2f" transform="translate(116.699219 0)"/>
       <use xlink:href="#LiberationSans-54" transform="translate(144.482422 0)"/>
       <use xlink:href="#LiberationSans-35" transform="translate(205.566406 0)"/>
       <use xlink:href="#LiberationSans-20" transform="translate(261.181641 0)"/>
       <use xlink:href="#LiberationSans-61" transform="translate(288.964844 0)"/>
       <use xlink:href="#LiberationSans-74" transform="translate(344.580078 0)"/>
       <use xlink:href="#LiberationSans-74" transform="translate(372.363281 0)"/>
       <use xlink:href="#LiberationSans-65" transform="translate(400.146484 0)"/>
       <use xlink:href="#LiberationSans-6e" transform="translate(455.761719 0)"/>
       <use xlink:href="#LiberationSans-2e" transform="translate(511.376953 0)"/>
      </g>
     </g>
    </g>
    <g id="ytick_4">
     <g id="line2d_9">
      <g>
       <use xlink:href="#md40dc97309" x="64.946406" y="48.313664" style="stroke: #000000; stroke-width: 0.75"/>
      </g>
     </g>
     <g id="text_10">
      <!-- non-T4/T5 atten. -->
      <g transform="translate(7.2 50.850071) scale(0.07 -0.07)">
       <defs>
        <path id="LiberationSans-2d" d="M 284 1450 
L 284 1950 
L 1847 1950 
L 1847 1450 
L 284 1450 
z
" transform="scale(0.015625)"/>
       </defs>
       <use xlink:href="#LiberationSans-6e"/>
       <use xlink:href="#LiberationSans-6f" transform="translate(55.615234 0)"/>
       <use xlink:href="#LiberationSans-6e" transform="translate(111.230469 0)"/>
       <use xlink:href="#LiberationSans-2d" transform="translate(166.845703 0)"/>
       <use xlink:href="#LiberationSans-54" transform="translate(200.146484 0)"/>
       <use xlink:href="#LiberationSans-34" transform="translate(261.230469 0)"/>
       <use xlink:href="#LiberationSans-2f" transform="translate(316.845703 0)"/>
       <use xlink:href="#LiberationSans-54" transform="translate(344.628906 0)"/>
       <use xlink:href="#LiberationSans-35" transform="translate(405.712891 0)"/>
       <use xlink:href="#LiberationSans-20" transform="translate(461.328125 0)"/>
       <use xlink:href="#LiberationSans-61" transform="translate(489.111328 0)"/>
       <use xlink:href="#LiberationSans-74" transform="translate(544.726562 0)"/>
       <use xlink:href="#LiberationSans-74" transform="translate(572.509766 0)"/>
       <use xlink:href="#LiberationSans-65" transform="translate(600.292969 0)"/>
       <use xlink:href="#LiberationSans-6e" transform="translate(655.908203 0)"/>
       <use xlink:href="#LiberationSans-2e" transform="translate(711.523438 0)"/>
      </g>
     </g>
    </g>
   </g>
   <g id="patch_7">
    <path d="M 64.946406 191.157875 
L 64.946406 24.837875 
" style="fill: none; stroke: #000000; stroke-width: 0.75; stroke-linejoin: miter; stroke-linecap: square"/>
   </g>
   <g id="patch_8">
    <path d="M 64.946406 191.157875 
L 192.899895 191.157875 
" style="fill: none; stroke: #000000; stroke-width: 0.75; stroke-linejoin: miter; stroke-linecap: square"/>
   </g>
   <g id="text_11">
    <!-- A -->
    <g transform="translate(45.753383 14.446875) scale(0.1 -0.1)">
     <defs>
      <path id="LiberationSans-Bold-41" d="M 3541 0 
L 3150 1125 
L 1472 1125 
L 1081 0 
L 159 0 
L 1766 4403 
L 2853 4403 
L 4453 0 
L 3541 0 
z
M 2309 3725 
L 2291 3656 
Q 2259 3544 2215 3400 
Q 2172 3256 1678 1819 
L 2944 1819 
L 2509 3084 
L 2375 3509 
L 2309 3725 
z
" transform="scale(0.015625)"/>
     </defs>
     <use xlink:href="#LiberationSans-Bold-41"/>
    </g>
   </g>
  </g>
  <g id="axes_2">
   <g id="patch_9">
    <path d="M 267.112918 191.157875 
L 395.066406 191.157875 
L 395.066406 24.837875 
L 267.112918 24.837875 
z
" style="fill: #ffffff"/>
   </g>
   <g id="matplotlib.axis_3">
    <g id="xtick_6">
     <g id="line2d_10">
      <g>
       <use xlink:href="#m6340fc7f1d" x="300.266716" y="191.157875" style="stroke: #000000; stroke-width: 0.75"/>
      </g>
     </g>
     <g id="text_12">
      <!-- 0.05 -->
      <g transform="translate(293.455388 202.230688) scale(0.07 -0.07)">
       <use xlink:href="#LiberationSans-30"/>
       <use xlink:href="#LiberationSans-2e" transform="translate(55.615234 0)"/>
       <use xlink:href="#LiberationSans-30" transform="translate(83.398438 0)"/>
       <use xlink:href="#LiberationSans-35" transform="translate(139.013672 0)"/>
      </g>
     </g>
    </g>
    <g id="xtick_7">
     <g id="line2d_11">
      <g>
       <use xlink:href="#m6340fc7f1d" x="333.607031" y="191.157875" style="stroke: #000000; stroke-width: 0.75"/>
      </g>
     </g>
     <g id="text_13">
      <!-- 0.06 -->
      <g transform="translate(326.795703 202.230688) scale(0.07 -0.07)">
       <use xlink:href="#LiberationSans-30"/>
       <use xlink:href="#LiberationSans-2e" transform="translate(55.615234 0)"/>
       <use xlink:href="#LiberationSans-30" transform="translate(83.398438 0)"/>
       <use xlink:href="#LiberationSans-36" transform="translate(139.013672 0)"/>
      </g>
     </g>
    </g>
    <g id="xtick_8">
     <g id="line2d_12">
      <g>
       <use xlink:href="#m6340fc7f1d" x="366.947346" y="191.157875" style="stroke: #000000; stroke-width: 0.75"/>
      </g>
     </g>
     <g id="text_14">
      <!-- 0.07 -->
      <g transform="translate(360.136018 202.230688) scale(0.07 -0.07)">
       <defs>
        <path id="LiberationSans-37" d="M 3238 3947 
Q 2563 2916 2284 2331 
Q 2006 1747 1867 1178 
Q 1728 609 1728 0 
L 1141 0 
Q 1141 844 1498 1776 
Q 1856 2709 2694 3925 
L 328 3925 
L 328 4403 
L 3238 4403 
L 3238 3947 
z
" transform="scale(0.015625)"/>
       </defs>
       <use xlink:href="#LiberationSans-30"/>
       <use xlink:href="#LiberationSans-2e" transform="translate(55.615234 0)"/>
       <use xlink:href="#LiberationSans-30" transform="translate(83.398438 0)"/>
       <use xlink:href="#LiberationSans-37" transform="translate(139.013672 0)"/>
      </g>
     </g>
    </g>
    <g id="text_15">
     <!-- Activity proxy -->
     <g transform="translate(307.529662 213.480688) scale(0.08 -0.08)">
      <defs>
       <path id="LiberationSans-69" d="M 428 4100 
L 428 4638 
L 991 4638 
L 991 4100 
L 428 4100 
z
M 428 0 
L 428 3381 
L 991 3381 
L 991 0 
L 428 0 
z
" transform="scale(0.015625)"/>
       <path id="LiberationSans-76" d="M 1916 0 
L 1250 0 
L 22 3381 
L 622 3381 
L 1366 1181 
Q 1406 1056 1581 441 
L 1691 806 
L 1813 1175 
L 2581 3381 
L 3178 3381 
L 1916 0 
z
" transform="scale(0.015625)"/>
       <path id="LiberationSans-78" d="M 2503 0 
L 1594 1388 
L 678 0 
L 72 0 
L 1275 1738 
L 128 3381 
L 750 3381 
L 1594 2066 
L 2431 3381 
L 3059 3381 
L 1913 1744 
L 3131 0 
L 2503 0 
z
" transform="scale(0.015625)"/>
      </defs>
      <use xlink:href="#LiberationSans-41"/>
      <use xlink:href="#LiberationSans-63" transform="translate(66.699219 0)"/>
      <use xlink:href="#LiberationSans-74" transform="translate(116.699219 0)"/>
      <use xlink:href="#LiberationSans-69" transform="translate(144.482422 0)"/>
      <use xlink:href="#LiberationSans-76" transform="translate(166.699219 0)"/>
      <use xlink:href="#LiberationSans-69" transform="translate(216.699219 0)"/>
      <use xlink:href="#LiberationSans-74" transform="translate(238.916016 0)"/>
      <use xlink:href="#LiberationSans-79" transform="translate(266.699219 0)"/>
      <use xlink:href="#LiberationSans-20" transform="translate(316.699219 0)"/>
      <use xlink:href="#LiberationSans-70" transform="translate(344.482422 0)"/>
      <use xlink:href="#LiberationSans-72" transform="translate(400.097656 0)"/>
      <use xlink:href="#LiberationSans-6f" transform="translate(433.398438 0)"/>
      <use xlink:href="#LiberationSans-78" transform="translate(489.013672 0)"/>
      <use xlink:href="#LiberationSans-79" transform="translate(539.013672 0)"/>
     </g>
    </g>
   </g>
   <g id="matplotlib.axis_4">
    <g id="ytick_5">
     <g id="line2d_13">
      <g>
       <use xlink:href="#md40dc97309" x="267.112918" y="179.391559" style="stroke: #000000; stroke-width: 0.75"/>
      </g>
     </g>
     <g id="text_16">
      <!-- 0.88 -->
      <g transform="translate(247.490262 181.927965) scale(0.07 -0.07)">
       <use xlink:href="#LiberationSans-30"/>
       <use xlink:href="#LiberationSans-2e" transform="translate(55.615234 0)"/>
       <use xlink:href="#LiberationSans-38" transform="translate(83.398438 0)"/>
       <use xlink:href="#LiberationSans-38" transform="translate(139.013672 0)"/>
      </g>
     </g>
    </g>
    <g id="ytick_6">
     <g id="line2d_14">
      <g>
       <use xlink:href="#md40dc97309" x="267.112918" y="146.650507" style="stroke: #000000; stroke-width: 0.75"/>
      </g>
     </g>
     <g id="text_17">
      <!-- 0.90 -->
      <g transform="translate(247.490262 149.186913) scale(0.07 -0.07)">
       <defs>
        <path id="LiberationSans-39" d="M 3256 2291 
Q 3256 1156 2842 546 
Q 2428 -63 1663 -63 
Q 1147 -63 836 154 
Q 525 372 391 856 
L 928 941 
Q 1097 391 1672 391 
Q 2156 391 2422 841 
Q 2688 1291 2700 2125 
Q 2575 1844 2272 1673 
Q 1969 1503 1606 1503 
Q 1013 1503 656 1909 
Q 300 2316 300 2988 
Q 300 3678 687 4073 
Q 1075 4469 1766 4469 
Q 2500 4469 2878 3925 
Q 3256 3381 3256 2291 
z
M 2644 2834 
Q 2644 3366 2400 3689 
Q 2156 4013 1747 4013 
Q 1341 4013 1106 3736 
Q 872 3459 872 2988 
Q 872 2506 1106 2226 
Q 1341 1947 1741 1947 
Q 1984 1947 2193 2058 
Q 2403 2169 2523 2372 
Q 2644 2575 2644 2834 
z
" transform="scale(0.015625)"/>
       </defs>
       <use xlink:href="#LiberationSans-30"/>
       <use xlink:href="#LiberationSans-2e" transform="translate(55.615234 0)"/>
       <use xlink:href="#LiberationSans-39" transform="translate(83.398438 0)"/>
       <use xlink:href="#LiberationSans-30" transform="translate(139.013672 0)"/>
      </g>
     </g>
    </g>
    <g id="ytick_7">
     <g id="line2d_15">
      <g>
       <use xlink:href="#md40dc97309" x="267.112918" y="113.909454" style="stroke: #000000; stroke-width: 0.75"/>
      </g>
     </g>
     <g id="text_18">
      <!-- 0.92 -->
      <g transform="translate(247.490262 116.44586) scale(0.07 -0.07)">
       <use xlink:href="#LiberationSans-30"/>
       <use xlink:href="#LiberationSans-2e" transform="translate(55.615234 0)"/>
       <use xlink:href="#LiberationSans-39" transform="translate(83.398438 0)"/>
       <use xlink:href="#LiberationSans-32" transform="translate(139.013672 0)"/>
      </g>
     </g>
    </g>
    <g id="ytick_8">
     <g id="line2d_16">
      <g>
       <use xlink:href="#md40dc97309" x="267.112918" y="81.168401" style="stroke: #000000; stroke-width: 0.75"/>
      </g>
     </g>
     <g id="text_19">
      <!-- 0.94 -->
      <g transform="translate(247.490262 83.704808) scale(0.07 -0.07)">
       <use xlink:href="#LiberationSans-30"/>
       <use xlink:href="#LiberationSans-2e" transform="translate(55.615234 0)"/>
       <use xlink:href="#LiberationSans-39" transform="translate(83.398438 0)"/>
       <use xlink:href="#LiberationSans-34" transform="translate(139.013672 0)"/>
      </g>
     </g>
    </g>
    <g id="ytick_9">
     <g id="line2d_17">
      <g>
       <use xlink:href="#md40dc97309" x="267.112918" y="48.427349" style="stroke: #000000; stroke-width: 0.75"/>
      </g>
     </g>
     <g id="text_20">
      <!-- 0.96 -->
      <g transform="translate(247.490262 50.963755) scale(0.07 -0.07)">
       <use xlink:href="#LiberationSans-30"/>
       <use xlink:href="#LiberationSans-2e" transform="translate(55.615234 0)"/>
       <use xlink:href="#LiberationSans-39" transform="translate(83.398438 0)"/>
       <use xlink:href="#LiberationSans-36" transform="translate(139.013672 0)"/>
      </g>
     </g>
    </g>
    <g id="text_21">
     <!-- Accuracy -->
     <g transform="translate(241.830262 124.446625) rotate(-90) scale(0.08 -0.08)">
      <use xlink:href="#LiberationSans-41"/>
      <use xlink:href="#LiberationSans-63" transform="translate(66.699219 0)"/>
      <use xlink:href="#LiberationSans-63" transform="translate(116.699219 0)"/>
      <use xlink:href="#LiberationSans-75" transform="translate(166.699219 0)"/>
      <use xlink:href="#LiberationSans-72" transform="translate(222.314453 0)"/>
      <use xlink:href="#LiberationSans-61" transform="translate(255.615234 0)"/>
      <use xlink:href="#LiberationSans-63" transform="translate(311.230469 0)"/>
      <use xlink:href="#LiberationSans-79" transform="translate(361.230469 0)"/>
     </g>
    </g>
   </g>
   <g id="patch_10">
    <path d="M 267.112918 191.157875 
L 267.112918 24.837875 
" style="fill: none; stroke: #000000; stroke-width: 0.75; stroke-linejoin: miter; stroke-linecap: square"/>
   </g>
   <g id="patch_11">
    <path d="M 267.112918 191.157875 
L 395.066406 191.157875 
" style="fill: none; stroke: #000000; stroke-width: 0.75; stroke-linejoin: miter; stroke-linecap: square"/>
   </g>
   <g id="text_22">
    <!-- B -->
    <g transform="translate(247.919895 14.446875) scale(0.1 -0.1)">
     <defs>
      <path id="LiberationSans-Bold-42" d="M 4331 1256 
Q 4331 656 3881 328 
Q 3431 0 2631 0 
L 428 0 
L 428 4403 
L 2444 4403 
Q 3250 4403 3664 4123 
Q 4078 3844 4078 3297 
Q 4078 2922 3870 2664 
Q 3663 2406 3238 2316 
Q 3772 2253 4051 1979 
Q 4331 1706 4331 1256 
z
M 3150 3172 
Q 3150 3469 2961 3594 
Q 2772 3719 2400 3719 
L 1350 3719 
L 1350 2628 
L 2406 2628 
Q 2797 2628 2973 2764 
Q 3150 2900 3150 3172 
z
M 3406 1328 
Q 3406 1947 2519 1947 
L 1350 1947 
L 1350 684 
L 2553 684 
Q 2997 684 3201 845 
Q 3406 1006 3406 1328 
z
" transform="scale(0.015625)"/>
     </defs>
     <use xlink:href="#LiberationSans-Bold-42"/>
    </g>
   </g>
   <g id="PathCollection_1">
    <defs>
     <path id="m1f6d70ab5e" d="M 0 3.24037 
C 0.859356 3.24037 1.683631 2.898944 2.291288 2.291288 
C 2.898944 1.683631 3.24037 0.859356 3.24037 0 
C 3.24037 -0.859356 2.898944 -1.683631 2.291288 -2.291288 
C 1.683631 -2.898944 0.859356 -3.24037 0 -3.24037 
C -0.859356 -3.24037 -1.683631 -2.898944 -2.291288 -2.291288 
C -2.898944 -1.683631 -3.24037 -0.859356 -3.24037 0 
C -3.24037 0.859356 -2.898944 1.683631 -2.291288 2.291288 
C -1.683631 2.898944 -0.859356 3.24037 0 3.24037 
z
" style="stroke: #000000; stroke-width: 0.35"/>
    </defs>
    <g clip-path="url(#p6a464930d9)">
     <use xlink:href="#m1f6d70ab5e" x="389.250339" y="107.997875" style="fill: #1f77b4; stroke: #000000; stroke-width: 0.35"/>
    </g>
   </g>
   <g id="PathCollection_2">
    <defs>
     <path id="m55ccd38a72" d="M -3.24037 3.24037 
L 3.24037 3.24037 
L 3.24037 -3.24037 
L -3.24037 -3.24037 
z
" style="stroke: #000000; stroke-width: 0.35"/>
    </defs>
    <g clip-path="url(#p6a464930d9)">
     <use xlink:href="#m55ccd38a72" x="376.793936" y="107.997875" style="fill: #8c564b; stroke: #000000; stroke-width: 0.35"/>
    </g>
   </g>
   <g id="PathCollection_3">
    <defs>
     <path id="m75c624061a" d="M 0 -3.24037 
L -3.24037 3.24037 
L 3.24037 3.24037 
z
" style="stroke: #000000; stroke-width: 0.35"/>
    </defs>
    <g clip-path="url(#p6a464930d9)">
     <use xlink:href="#m75c624061a" x="377.72908" y="107.997875" style="fill: #9467bd; stroke: #000000; stroke-width: 0.35"/>
    </g>
   </g>
   <g id="PathCollection_4">
    <defs>
     <path id="m21d566b206" d="M -0 4.582576 
L 4.582576 0 
L 0 -4.582576 
L -4.582576 -0 
z
" style="stroke: #000000; stroke-width: 0.35"/>
    </defs>
    <g clip-path="url(#p6a464930d9)">
     <use xlink:href="#m21d566b206" x="272.928986" y="107.997875" style="fill: #7f7f7f; stroke: #000000; stroke-width: 0.35"/>
    </g>
   </g>
   <g id="legend_1">
    <g id="PathCollection_5">
     <g>
      <use xlink:href="#m1f6d70ab5e" x="409.025476" y="95.08475" style="fill: #1f77b4; stroke: #000000; stroke-width: 0.35"/>
     </g>
    </g>
    <g id="text_23">
     <!-- full -->
     <g transform="translate(419.825476 96.65975) scale(0.06 -0.06)">
      <use xlink:href="#LiberationSans-66"/>
      <use xlink:href="#LiberationSans-75" transform="translate(27.783203 0)"/>
      <use xlink:href="#LiberationSans-6c" transform="translate(83.398438 0)"/>
      <use xlink:href="#LiberationSans-6c" transform="translate(105.615234 0)"/>
     </g>
    </g>
    <g id="PathCollection_6">
     <g>
      <use xlink:href="#m55ccd38a72" x="409.025476" y="103.677875" style="fill: #8c564b; stroke: #000000; stroke-width: 0.35"/>
     </g>
    </g>
    <g id="text_24">
     <!-- edge dropout -->
     <g transform="translate(419.825476 105.252875) scale(0.06 -0.06)">
      <use xlink:href="#LiberationSans-65"/>
      <use xlink:href="#LiberationSans-64" transform="translate(55.615234 0)"/>
      <use xlink:href="#LiberationSans-67" transform="translate(111.230469 0)"/>
      <use xlink:href="#LiberationSans-65" transform="translate(166.845703 0)"/>
      <use xlink:href="#LiberationSans-20" transform="translate(222.460938 0)"/>
      <use xlink:href="#LiberationSans-64" transform="translate(250.244141 0)"/>
      <use xlink:href="#LiberationSans-72" transform="translate(305.859375 0)"/>
      <use xlink:href="#LiberationSans-6f" transform="translate(339.160156 0)"/>
      <use xlink:href="#LiberationSans-70" transform="translate(394.775391 0)"/>
      <use xlink:href="#LiberationSans-6f" transform="translate(450.390625 0)"/>
      <use xlink:href="#LiberationSans-75" transform="translate(506.005859 0)"/>
      <use xlink:href="#LiberationSans-74" transform="translate(561.621094 0)"/>
     </g>
    </g>
    <g id="PathCollection_7">
     <g>
      <use xlink:href="#m75c624061a" x="409.025476" y="112.271" style="fill: #9467bd; stroke: #000000; stroke-width: 0.35"/>
     </g>
    </g>
    <g id="text_25">
     <!-- T4/T5 atten. -->
     <g transform="translate(419.825476 113.846) scale(0.06 -0.06)">
      <use xlink:href="#LiberationSans-54"/>
      <use xlink:href="#LiberationSans-34" transform="translate(61.083984 0)"/>
      <use xlink:href="#LiberationSans-2f" transform="translate(116.699219 0)"/>
      <use xlink:href="#LiberationSans-54" transform="translate(144.482422 0)"/>
      <use xlink:href="#LiberationSans-35" transform="translate(205.566406 0)"/>
      <use xlink:href="#LiberationSans-20" transform="translate(261.181641 0)"/>
      <use xlink:href="#LiberationSans-61" transform="translate(288.964844 0)"/>
      <use xlink:href="#LiberationSans-74" transform="translate(344.580078 0)"/>
      <use xlink:href="#LiberationSans-74" transform="translate(372.363281 0)"/>
      <use xlink:href="#LiberationSans-65" transform="translate(400.146484 0)"/>
      <use xlink:href="#LiberationSans-6e" transform="translate(455.761719 0)"/>
      <use xlink:href="#LiberationSans-2e" transform="translate(511.376953 0)"/>
     </g>
    </g>
    <g id="PathCollection_8">
     <g>
      <use xlink:href="#m21d566b206" x="409.025476" y="120.864125" style="fill: #7f7f7f; stroke: #000000; stroke-width: 0.35"/>
     </g>
    </g>
    <g id="text_26">
     <!-- non-T4/T5 atten. -->
     <g transform="translate(419.825476 122.439125) scale(0.06 -0.06)">
      <use xlink:href="#LiberationSans-6e"/>
      <use xlink:href="#LiberationSans-6f" transform="translate(55.615234 0)"/>
      <use xlink:href="#LiberationSans-6e" transform="translate(111.230469 0)"/>
      <use xlink:href="#LiberationSans-2d" transform="translate(166.845703 0)"/>
      <use xlink:href="#LiberationSans-54" transform="translate(200.146484 0)"/>
      <use xlink:href="#LiberationSans-34" transform="translate(261.230469 0)"/>
      <use xlink:href="#LiberationSans-2f" transform="translate(316.845703 0)"/>
      <use xlink:href="#LiberationSans-54" transform="translate(344.628906 0)"/>
      <use xlink:href="#LiberationSans-35" transform="translate(405.712891 0)"/>
      <use xlink:href="#LiberationSans-20" transform="translate(461.328125 0)"/>
      <use xlink:href="#LiberationSans-61" transform="translate(489.111328 0)"/>
      <use xlink:href="#LiberationSans-74" transform="translate(544.726562 0)"/>
      <use xlink:href="#LiberationSans-74" transform="translate(572.509766 0)"/>
      <use xlink:href="#LiberationSans-65" transform="translate(600.292969 0)"/>
      <use xlink:href="#LiberationSans-6e" transform="translate(655.908203 0)"/>
      <use xlink:href="#LiberationSans-2e" transform="translate(711.523438 0)"/>
     </g>
    </g>
   </g>
  </g>
 </g>
 <defs>
  <clipPath id="p3286c6f6cc">
   <rect x="64.946406" y="24.837875" width="127.953488" height="166.32"/>
  </clipPath>
  <clipPath id="p6a464930d9">
   <rect x="267.112918" y="24.837875" width="127.953488" height="166.32"/>
  </clipPath>
 </defs>
</svg>
