<?xml version="1.0" encoding="utf-8" standalone="no"?>
<!DOCTYPE svg PUBLIC "-//W3C//DTD SVG 1.1//EN"
  "http://www.w3.org/Graphics/SVG/1.1/DTD/svg11.dtd">
<svg xmlns:xlink="http://www.w3.org/1999/xlink" width="477.907931pt" height="247.911095pt" viewBox="0 0 477.907931 247.911095" xmlns="http://www.w3.org/2000/svg" version="1.1">
 <metadata>
  <rdf:RDF xmlns:dc="http://purl.org/dc/elements/1.1/" xmlns:cc="http://creativecommons.org/ns#" xmlns:rdf="http://www.w3.org/1999/02/22-rdf-syntax-ns#">
   <cc:Work>
    <dc:type rdf:resource="http://purl.org/dc/dcmitype/StillImage"/>
    <dc:date>2026-04-29T13:12:13.829491</dc:date>
    <dc:format>image/svg+xml</dc:format>
    <dc:creator>
     <cc:Agent>
      <dc:title>Matplotlib v3.10.1, https://matplotlib.org/</dc:title>
     </cc:Agent>
    </dc:creator>
   </cc:Work>
  </rdf:RDF>
 </metadata>
 <defs>
  <style type="text/css">*{stroke-linejoin: round; stroke-linecap: butt}</style>
 </defs>
 <g id="figure_1">
  <g id="patch_1">
   <path d="M 0 247.911095 
L 477.907931 247.911095 
L 477.907931 0 
L 0 0 
z
" style="fill: #ffffff"/>
  </g>
  <g id="axes_1">
   <g id="patch_2">
    <path d="M 34.3875 211.532075 
L 183.266839 211.532075 
L 183.266839 25.808075 
L 34.3875 25.808075 
z
" style="fill: #ffffff"/>
   </g>
   <g id="patch_3">
    <path d="M 148.477887 211.532075 
L 176.499596 211.532075 
L 176.499596 25.808075 
L 148.477887 25.808075 
z
" clip-path="url(#pb78444111d)" style="fill: #d9d9d9; opacity: 0.35; stroke: #d9d9d9; stroke-linejoin: miter"/>
   </g>
   <g id="matplotlib.axis_1">
    <g id="xtick_1">
     <g id="line2d_1">
      <defs>
       <path id="m0f098fc730" d="M 0 0 
L 0 2.5 
" style="stroke: #000000; stroke-width: 0.75"/>
      </defs>
      <g>
       <use xlink:href="#m0f098fc730" x="50.401907" y="211.532075" style="stroke: #000000; stroke-width: 0.75"/>
      </g>
     </g>
     <g id="text_1">
      <!-- moving edge -->
      <g transform="translate(13.463804 239.06788) rotate(-25) scale(0.07 -0.07)">
       <defs>
        <path id="LiberationSans-6d" d="M 2400 0 
L 2400 2144 
Q 2400 2634 2265 2821 
Q 2131 3009 1781 3009 
Q 1422 3009 1212 2734 
Q 1003 2459 1003 1959 
L 1003 0 
L 444 0 
L 444 2659 
Q 444 3250 425 3381 
L 956 3381 
Q 959 3366 962 3297 
Q 966 3228 970 3139 
Q 975 3050 981 2803 
L 991 2803 
Q 1172 3163 1406 3303 
Q 1641 3444 1978 3444 
Q 2363 3444 2586 3291 
Q 2809 3138 2897 2803 
L 2906 2803 
Q 3081 3144 3329 3294 
Q 3578 3444 3931 3444 
Q 4444 3444 4676 3166 
Q 4909 2888 4909 2253 
L 4909 0 
L 4353 0 
L 4353 2144 
Q 4353 2634 4218 2821 
Q 4084 3009 3734 3009 
Q 3366 3009 3161 2736 
Q 2956 2463 2956 1959 
L 2956 0 
L 2400 0 
z
" transform="scale(0.015625)"/>
        <path id="LiberationSans-6f" d="M 3291 1694 
Q 3291 806 2900 371 
Q 2509 -63 1766 -63 
Q 1025 -63 647 389 
Q 269 841 269 1694 
Q 269 3444 1784 3444 
Q 2559 3444 2925 3017 
Q 3291 2591 3291 1694 
z
M 2700 1694 
Q 2700 2394 2492 2711 
Q 2284 3028 1794 3028 
Q 1300 3028 1079 2704 
Q 859 2381 859 1694 
Q 859 1025 1076 689 
Q 1294 353 1759 353 
Q 2266 353 2483 678 
Q 2700 1003 2700 1694 
z
" transform="scale(0.015625)"/>
        <path id="LiberationSans-76" d="M 1916 0 
L 1250 0 
L 22 3381 
L 622 3381 
L 1366 1181 
Q 1406 1056 1581 441 
L 1691 806 
L 1813 1175 
L 2581 3381 
L 3178 3381 
L 1916 0 
z
" transform="scale(0.015625)"/>
        <path id="LiberationSans-69" d="M 428 4100 
L 428 4638 
L 991 4638 
L 991 4100 
L 428 4100 
z
M 428 0 
L 428 3381 
L 991 3381 
L 991 0 
L 428 0 
z
" transform="scale(0.015625)"/>
        <path id="LiberationSans-6e" d="M 2578 0 
L 2578 2144 
Q 2578 2478 2512 2662 
Q 2447 2847 2303 2928 
Q 2159 3009 1881 3009 
Q 1475 3009 1240 2731 
Q 1006 2453 1006 1959 
L 1006 0 
L 444 0 
L 444 2659 
Q 444 3250 425 3381 
L 956 3381 
Q 959 3366 962 3297 
Q 966 3228 970 3139 
Q 975 3050 981 2803 
L 991 2803 
Q 1184 3153 1439 3298 
Q 1694 3444 2072 3444 
Q 2628 3444 2886 3167 
Q 3144 2891 3144 2253 
L 3144 0 
L 2578 0 
z
" transform="scale(0.015625)"/>
        <path id="LiberationSans-67" d="M 1713 -1328 
Q 1159 -1328 831 -1111 
Q 503 -894 409 -494 
L 975 -413 
Q 1031 -647 1223 -773 
Q 1416 -900 1728 -900 
Q 2569 -900 2569 84 
L 2569 628 
L 2563 628 
Q 2403 303 2125 139 
Q 1847 -25 1475 -25 
Q 853 -25 561 387 
Q 269 800 269 1684 
Q 269 2581 583 3007 
Q 897 3434 1538 3434 
Q 1897 3434 2161 3270 
Q 2425 3106 2569 2803 
L 2575 2803 
Q 2575 2897 2587 3128 
Q 2600 3359 2613 3381 
L 3147 3381 
Q 3128 3213 3128 2681 
L 3128 97 
Q 3128 -1328 1713 -1328 
z
M 2569 1691 
Q 2569 2103 2456 2401 
Q 2344 2700 2139 2858 
Q 1934 3016 1675 3016 
Q 1244 3016 1047 2703 
Q 850 2391 850 1691 
Q 850 997 1034 694 
Q 1219 391 1666 391 
Q 1931 391 2137 547 
Q 2344 703 2456 995 
Q 2569 1288 2569 1691 
z
" transform="scale(0.015625)"/>
        <path id="LiberationSans-20" transform="scale(0.015625)"/>
        <path id="LiberationSans-65" d="M 863 1572 
Q 863 991 1103 675 
Q 1344 359 1806 359 
Q 2172 359 2392 506 
Q 2613 653 2691 878 
L 3184 738 
Q 2881 -63 1806 -63 
Q 1056 -63 664 384 
Q 272 831 272 1713 
Q 272 2550 664 2997 
Q 1056 3444 1784 3444 
Q 3275 3444 3275 1647 
L 3275 1572 
L 863 1572 
z
M 2694 2003 
Q 2647 2538 2422 2783 
Q 2197 3028 1775 3028 
Q 1366 3028 1127 2754 
Q 888 2481 869 2003 
L 2694 2003 
z
" transform="scale(0.015625)"/>
        <path id="LiberationSans-64" d="M 2566 544 
Q 2409 219 2151 78 
Q 1894 -63 1513 -63 
Q 872 -63 570 368 
Q 269 800 269 1675 
Q 269 3444 1513 3444 
Q 1897 3444 2153 3303 
Q 2409 3163 2566 2856 
L 2572 2856 
L 2566 3234 
L 2566 4638 
L 3128 4638 
L 3128 697 
Q 3128 169 3147 0 
L 2609 0 
Q 2600 50 2589 231 
Q 2578 413 2578 544 
L 2566 544 
z
M 859 1694 
Q 859 984 1046 678 
Q 1234 372 1656 372 
Q 2134 372 2350 703 
Q 2566 1034 2566 1731 
Q 2566 2403 2350 2715 
Q 2134 3028 1663 3028 
Q 1238 3028 1048 2714 
Q 859 2400 859 1694 
z
" transform="scale(0.015625)"/>
       </defs>
       <use xlink:href="#LiberationSans-6d"/>
       <use xlink:href="#LiberationSans-6f" transform="translate(83.300781 0)"/>
       <use xlink:href="#LiberationSans-76" transform="translate(138.916016 0)"/>
       <use xlink:href="#LiberationSans-69" transform="translate(188.916016 0)"/>
       <use xlink:href="#LiberationSans-6e" transform="translate(211.132812 0)"/>
       <use xlink:href="#LiberationSans-67" transform="translate(266.748047 0)"/>
       <use xlink:href="#LiberationSans-20" transform="translate(322.363281 0)"/>
       <use xlink:href="#LiberationSans-65" transform="translate(350.146484 0)"/>
       <use xlink:href="#LiberationSans-64" transform="translate(405.761719 0)"/>
       <use xlink:href="#LiberationSans-67" transform="translate(461.376953 0)"/>
       <use xlink:href="#LiberationSans-65" transform="translate(516.992188 0)"/>
      </g>
     </g>
    </g>
    <g id="xtick_2">
     <g id="line2d_2">
      <g>
       <use xlink:href="#m0f098fc730" x="78.423615" y="211.532075" style="stroke: #000000; stroke-width: 0.75"/>
      </g>
     </g>
     <g id="text_2">
      <!-- moving bar -->
      <g transform="translate(46.428997 236.762696) rotate(-25) scale(0.07 -0.07)">
       <defs>
        <path id="LiberationSans-62" d="M 3291 1706 
Q 3291 -63 2047 -63 
Q 1663 -63 1408 76 
Q 1153 216 994 525 
L 988 525 
Q 988 428 975 229 
Q 963 31 956 0 
L 413 0 
Q 431 169 431 697 
L 431 4638 
L 994 4638 
L 994 3316 
Q 994 3113 981 2838 
L 994 2838 
Q 1150 3163 1408 3303 
Q 1666 3444 2047 3444 
Q 2688 3444 2989 3012 
Q 3291 2581 3291 1706 
z
M 2700 1688 
Q 2700 2397 2512 2703 
Q 2325 3009 1903 3009 
Q 1428 3009 1211 2684 
Q 994 2359 994 1653 
Q 994 988 1206 670 
Q 1419 353 1897 353 
Q 2322 353 2511 667 
Q 2700 981 2700 1688 
z
" transform="scale(0.015625)"/>
        <path id="LiberationSans-61" d="M 1294 -63 
Q 784 -63 528 206 
Q 272 475 272 944 
Q 272 1469 617 1750 
Q 963 2031 1731 2050 
L 2491 2063 
L 2491 2247 
Q 2491 2659 2316 2837 
Q 2141 3016 1766 3016 
Q 1388 3016 1216 2887 
Q 1044 2759 1009 2478 
L 422 2531 
Q 566 3444 1778 3444 
Q 2416 3444 2737 3151 
Q 3059 2859 3059 2306 
L 3059 850 
Q 3059 600 3125 473 
Q 3191 347 3375 347 
Q 3456 347 3559 369 
L 3559 19 
Q 3347 -31 3125 -31 
Q 2813 -31 2670 133 
Q 2528 297 2509 647 
L 2491 647 
Q 2275 259 1989 98 
Q 1703 -63 1294 -63 
z
M 1422 359 
Q 1731 359 1972 500 
Q 2213 641 2352 886 
Q 2491 1131 2491 1391 
L 2491 1669 
L 1875 1656 
Q 1478 1650 1273 1575 
Q 1069 1500 959 1344 
Q 850 1188 850 934 
Q 850 659 998 509 
Q 1147 359 1422 359 
z
" transform="scale(0.015625)"/>
        <path id="LiberationSans-72" d="M 444 0 
L 444 2594 
Q 444 2950 425 3381 
L 956 3381 
Q 981 2806 981 2691 
L 994 2691 
Q 1128 3125 1303 3284 
Q 1478 3444 1797 3444 
Q 1909 3444 2025 3413 
L 2025 2897 
Q 1913 2928 1725 2928 
Q 1375 2928 1190 2626 
Q 1006 2325 1006 1763 
L 1006 0 
L 444 0 
z
" transform="scale(0.015625)"/>
       </defs>
       <use xlink:href="#LiberationSans-6d"/>
       <use xlink:href="#LiberationSans-6f" transform="translate(83.300781 0)"/>
       <use xlink:href="#LiberationSans-76" transform="translate(138.916016 0)"/>
       <use xlink:href="#LiberationSans-69" transform="translate(188.916016 0)"/>
       <use xlink:href="#LiberationSans-6e" transform="translate(211.132812 0)"/>
       <use xlink:href="#LiberationSans-67" transform="translate(266.748047 0)"/>
       <use xlink:href="#LiberationSans-20" transform="translate(322.363281 0)"/>
       <use xlink:href="#LiberationSans-62" transform="translate(350.146484 0)"/>
       <use xlink:href="#LiberationSans-61" transform="translate(405.761719 0)"/>
       <use xlink:href="#LiberationSans-72" transform="translate(461.376953 0)"/>
      </g>
     </g>
    </g>
    <g id="xtick_3">
     <g id="line2d_3">
      <g>
       <use xlink:href="#m0f098fc730" x="106.445324" y="211.532075" style="stroke: #000000; stroke-width: 0.75"/>
      </g>
     </g>
     <g id="text_3">
      <!-- small target -->
      <g transform="translate(73.044088 237.418612) rotate(-25) scale(0.07 -0.07)">
       <defs>
        <path id="LiberationSans-73" d="M 2969 934 
Q 2969 456 2608 196 
Q 2247 -63 1597 -63 
Q 966 -63 623 145 
Q 281 353 178 794 
L 675 891 
Q 747 619 972 492 
Q 1197 366 1597 366 
Q 2025 366 2223 497 
Q 2422 628 2422 891 
Q 2422 1091 2284 1216 
Q 2147 1341 1841 1422 
L 1438 1528 
Q 953 1653 748 1773 
Q 544 1894 428 2066 
Q 313 2238 313 2488 
Q 313 2950 642 3192 
Q 972 3434 1603 3434 
Q 2163 3434 2492 3237 
Q 2822 3041 2909 2606 
L 2403 2544 
Q 2356 2769 2151 2889 
Q 1947 3009 1603 3009 
Q 1222 3009 1040 2893 
Q 859 2778 859 2544 
Q 859 2400 934 2306 
Q 1009 2213 1156 2147 
Q 1303 2081 1775 1966 
Q 2222 1853 2419 1758 
Q 2616 1663 2730 1547 
Q 2844 1431 2906 1279 
Q 2969 1128 2969 934 
z
" transform="scale(0.015625)"/>
        <path id="LiberationSans-6c" d="M 431 0 
L 431 4638 
L 994 4638 
L 994 0 
L 431 0 
z
" transform="scale(0.015625)"/>
        <path id="LiberationSans-74" d="M 1731 25 
Q 1453 -50 1163 -50 
Q 488 -50 488 716 
L 488 2972 
L 97 2972 
L 97 3381 
L 509 3381 
L 675 4138 
L 1050 4138 
L 1050 3381 
L 1675 3381 
L 1675 2972 
L 1050 2972 
L 1050 838 
Q 1050 594 1129 495 
Q 1209 397 1406 397 
Q 1519 397 1731 441 
L 1731 25 
z
" transform="scale(0.015625)"/>
       </defs>
       <use xlink:href="#LiberationSans-73"/>
       <use xlink:href="#LiberationSans-6d" transform="translate(50 0)"/>
       <use xlink:href="#LiberationSans-61" transform="translate(133.300781 0)"/>
       <use xlink:href="#LiberationSans-6c" transform="translate(188.916016 0)"/>
       <use xlink:href="#LiberationSans-6c" transform="translate(211.132812 0)"/>
       <use xlink:href="#LiberationSans-20" transform="translate(233.349609 0)"/>
       <use xlink:href="#LiberationSans-74" transform="translate(261.132812 0)"/>
       <use xlink:href="#LiberationSans-61" transform="translate(288.916016 0)"/>
       <use xlink:href="#LiberationSans-72" transform="translate(344.53125 0)"/>
       <use xlink:href="#LiberationSans-67" transform="translate(377.832031 0)"/>
       <use xlink:href="#LiberationSans-65" transform="translate(433.447266 0)"/>
       <use xlink:href="#LiberationSans-74" transform="translate(489.0625 0)"/>
      </g>
     </g>
    </g>
    <g id="xtick_4">
     <g id="line2d_4">
      <g>
       <use xlink:href="#m0f098fc730" x="134.467033" y="211.532075" style="stroke: #000000; stroke-width: 0.75"/>
      </g>
     </g>
     <g id="text_4">
      <!-- looming -->
      <g transform="translate(111.637735 232.488837) rotate(-25) scale(0.07 -0.07)">
       <use xlink:href="#LiberationSans-6c"/>
       <use xlink:href="#LiberationSans-6f" transform="translate(22.216797 0)"/>
       <use xlink:href="#LiberationSans-6f" transform="translate(77.832031 0)"/>
       <use xlink:href="#LiberationSans-6d" transform="translate(133.447266 0)"/>
       <use xlink:href="#LiberationSans-69" transform="translate(216.748047 0)"/>
       <use xlink:href="#LiberationSans-6e" transform="translate(238.964844 0)"/>
       <use xlink:href="#LiberationSans-67" transform="translate(294.580078 0)"/>
      </g>
     </g>
    </g>
    <g id="xtick_5">
     <g id="line2d_5">
      <g>
       <use xlink:href="#m0f098fc730" x="162.488742" y="211.532075" style="stroke: #000000; stroke-width: 0.75"/>
      </g>
     </g>
     <g id="text_5">
      <!-- static shapes -->
      <g transform="translate(124.849808 239.394683) rotate(-25) scale(0.07 -0.07)">
       <defs>
        <path id="LiberationSans-63" d="M 859 1706 
Q 859 1031 1071 706 
Q 1284 381 1713 381 
Q 2013 381 2214 543 
Q 2416 706 2463 1044 
L 3031 1006 
Q 2966 519 2616 228 
Q 2266 -63 1728 -63 
Q 1019 -63 645 385 
Q 272 834 272 1694 
Q 272 2547 647 2995 
Q 1022 3444 1722 3444 
Q 2241 3444 2583 3175 
Q 2925 2906 3013 2434 
L 2434 2391 
Q 2391 2672 2212 2837 
Q 2034 3003 1706 3003 
Q 1259 3003 1059 2706 
Q 859 2409 859 1706 
z
" transform="scale(0.015625)"/>
        <path id="LiberationSans-68" d="M 991 2803 
Q 1172 3134 1426 3289 
Q 1681 3444 2072 3444 
Q 2622 3444 2883 3170 
Q 3144 2897 3144 2253 
L 3144 0 
L 2578 0 
L 2578 2144 
Q 2578 2500 2512 2673 
Q 2447 2847 2297 2928 
Q 2147 3009 1881 3009 
Q 1484 3009 1245 2734 
Q 1006 2459 1006 1994 
L 1006 0 
L 444 0 
L 444 4638 
L 1006 4638 
L 1006 3431 
Q 1006 3241 995 3037 
Q 984 2834 981 2803 
L 991 2803 
z
" transform="scale(0.015625)"/>
        <path id="LiberationSans-70" d="M 3291 1706 
Q 3291 -63 2047 -63 
Q 1266 -63 997 525 
L 981 525 
Q 994 500 994 -6 
L 994 -1328 
L 431 -1328 
L 431 2691 
Q 431 3213 413 3381 
L 956 3381 
Q 959 3369 965 3292 
Q 972 3216 980 3056 
Q 988 2897 988 2838 
L 1000 2838 
Q 1150 3150 1397 3295 
Q 1644 3441 2047 3441 
Q 2672 3441 2981 3022 
Q 3291 2603 3291 1706 
z
M 2700 1694 
Q 2700 2400 2509 2703 
Q 2319 3006 1903 3006 
Q 1569 3006 1380 2865 
Q 1191 2725 1092 2426 
Q 994 2128 994 1650 
Q 994 984 1206 668 
Q 1419 353 1897 353 
Q 2316 353 2508 661 
Q 2700 969 2700 1694 
z
" transform="scale(0.015625)"/>
       </defs>
       <use xlink:href="#LiberationSans-73"/>
       <use xlink:href="#LiberationSans-74" transform="translate(50 0)"/>
       <use xlink:href="#LiberationSans-61" transform="translate(77.783203 0)"/>
       <use xlink:href="#LiberationSans-74" transform="translate(133.398438 0)"/>
       <use xlink:href="#LiberationSans-69" transform="translate(161.181641 0)"/>
       <use xlink:href="#LiberationSans-63" transform="translate(183.398438 0)"/>
       <use xlink:href="#LiberationSans-20" transform="translate(233.398438 0)"/>
       <use xlink:href="#LiberationSans-73" transform="translate(261.181641 0)"/>
       <use xlink:href="#LiberationSans-68" transform="translate(311.181641 0)"/>
       <use xlink:href="#LiberationSans-61" transform="translate(366.796875 0)"/>
       <use xlink:href="#LiberationSans-70" transform="translate(422.412109 0)"/>
       <use xlink:href="#LiberationSans-65" transform="translate(478.027344 0)"/>
       <use xlink:href="#LiberationSans-73" transform="translate(533.642578 0)"/>
      </g>
     </g>
    </g>
   </g>
   <g id="matplotlib.axis_2">
    <g id="ytick_1">
     <g id="line2d_6">
      <path d="M 34.3875 211.532075 
L 183.266839 211.532075 
" clip-path="url(#pb78444111d)" style="fill: none; stroke: #b0b0b0; stroke-opacity: 0.15; stroke-width: 0.5; stroke-linecap: square"/>
     </g>
     <g id="line2d_7">
      <defs>
       <path id="m414106a003" d="M 0 0 
L -2.5 0 
" style="stroke: #000000; stroke-width: 0.75"/>
      </defs>
      <g>
       <use xlink:href="#m414106a003" x="34.3875" y="211.532075" style="stroke: #000000; stroke-width: 0.75"/>
      </g>
     </g>
     <g id="text_6">
      <!-- 0.0 -->
      <g transform="translate(18.6575 214.068481) scale(0.07 -0.07)">
       <defs>
        <path id="LiberationSans-30" d="M 3309 2203 
Q 3309 1100 2920 518 
Q 2531 -63 1772 -63 
Q 1013 -63 631 515 
Q 250 1094 250 2203 
Q 250 3338 620 3903 
Q 991 4469 1791 4469 
Q 2569 4469 2939 3897 
Q 3309 3325 3309 2203 
z
M 2738 2203 
Q 2738 3156 2517 3584 
Q 2297 4013 1791 4013 
Q 1272 4013 1045 3591 
Q 819 3169 819 2203 
Q 819 1266 1048 831 
Q 1278 397 1778 397 
Q 2275 397 2506 840 
Q 2738 1284 2738 2203 
z
" transform="scale(0.015625)"/>
        <path id="LiberationSans-2e" d="M 584 0 
L 584 684 
L 1194 684 
L 1194 0 
L 584 0 
z
" transform="scale(0.015625)"/>
       </defs>
       <use xlink:href="#LiberationSans-30"/>
       <use xlink:href="#LiberationSans-2e" transform="translate(55.615234 0)"/>
       <use xlink:href="#LiberationSans-30" transform="translate(83.398438 0)"/>
      </g>
     </g>
    </g>
    <g id="ytick_2">
     <g id="line2d_8">
      <path d="M 34.3875 176.156075 
L 183.266839 176.156075 
" clip-path="url(#pb78444111d)" style="fill: none; stroke: #b0b0b0; stroke-opacity: 0.15; stroke-width: 0.5; stroke-linecap: square"/>
     </g>
     <g id="line2d_9">
      <g>
       <use xlink:href="#m414106a003" x="34.3875" y="176.156075" style="stroke: #000000; stroke-width: 0.75"/>
      </g>
     </g>
     <g id="text_7">
      <!-- 0.2 -->
      <g transform="translate(18.6575 178.692481) scale(0.07 -0.07)">
       <defs>
        <path id="LiberationSans-32" d="M 322 0 
L 322 397 
Q 481 763 711 1042 
Q 941 1322 1194 1548 
Q 1447 1775 1695 1969 
Q 1944 2163 2144 2356 
Q 2344 2550 2467 2762 
Q 2591 2975 2591 3244 
Q 2591 3606 2378 3806 
Q 2166 4006 1788 4006 
Q 1428 4006 1195 3811 
Q 963 3616 922 3263 
L 347 3316 
Q 409 3844 795 4156 
Q 1181 4469 1788 4469 
Q 2453 4469 2811 4155 
Q 3169 3841 3169 3263 
Q 3169 3006 3051 2753 
Q 2934 2500 2703 2247 
Q 2472 1994 1819 1463 
Q 1459 1169 1246 933 
Q 1034 697 941 478 
L 3238 478 
L 3238 0 
L 322 0 
z
" transform="scale(0.015625)"/>
       </defs>
       <use xlink:href="#LiberationSans-30"/>
       <use xlink:href="#LiberationSans-2e" transform="translate(55.615234 0)"/>
       <use xlink:href="#LiberationSans-32" transform="translate(83.398438 0)"/>
      </g>
     </g>
    </g>
    <g id="ytick_3">
     <g id="line2d_10">
      <path d="M 34.3875 140.780075 
L 183.266839 140.780075 
" clip-path="url(#pb78444111d)" style="fill: none; stroke: #b0b0b0; stroke-opacity: 0.15; stroke-width: 0.5; stroke-linecap: square"/>
     </g>
     <g id="line2d_11">
      <g>
       <use xlink:href="#m414106a003" x="34.3875" y="140.780075" style="stroke: #000000; stroke-width: 0.75"/>
      </g>
     </g>
     <g id="text_8">
      <!-- 0.4 -->
      <g transform="translate(18.6575 143.316481) scale(0.07 -0.07)">
       <defs>
        <path id="LiberationSans-34" d="M 2753 997 
L 2753 0 
L 2222 0 
L 2222 997 
L 147 997 
L 147 1434 
L 2163 4403 
L 2753 4403 
L 2753 1441 
L 3372 1441 
L 3372 997 
L 2753 997 
z
M 2222 3769 
Q 2216 3750 2134 3603 
Q 2053 3456 2013 3397 
L 884 1734 
L 716 1503 
L 666 1441 
L 2222 1441 
L 2222 3769 
z
" transform="scale(0.015625)"/>
       </defs>
       <use xlink:href="#LiberationSans-30"/>
       <use xlink:href="#LiberationSans-2e" transform="translate(55.615234 0)"/>
       <use xlink:href="#LiberationSans-34" transform="translate(83.398438 0)"/>
      </g>
     </g>
    </g>
    <g id="ytick_4">
     <g id="line2d_12">
      <path d="M 34.3875 105.404075 
L 183.266839 105.404075 
" clip-path="url(#pb78444111d)" style="fill: none; stroke: #b0b0b0; stroke-opacity: 0.15; stroke-width: 0.5; stroke-linecap: square"/>
     </g>
     <g id="line2d_13">
      <g>
       <use xlink:href="#m414106a003" x="34.3875" y="105.404075" style="stroke: #000000; stroke-width: 0.75"/>
      </g>
     </g>
     <g id="text_9">
      <!-- 0.6 -->
      <g transform="translate(18.6575 107.940481) scale(0.07 -0.07)">
       <defs>
        <path id="LiberationSans-36" d="M 3278 1441 
Q 3278 744 2900 340 
Q 2522 -63 1856 -63 
Q 1113 -63 719 490 
Q 325 1044 325 2100 
Q 325 3244 734 3856 
Q 1144 4469 1900 4469 
Q 2897 4469 3156 3572 
L 2619 3475 
Q 2453 4013 1894 4013 
Q 1413 4013 1148 3564 
Q 884 3116 884 2266 
Q 1038 2550 1316 2698 
Q 1594 2847 1953 2847 
Q 2563 2847 2920 2465 
Q 3278 2084 3278 1441 
z
M 2706 1416 
Q 2706 1894 2472 2153 
Q 2238 2413 1819 2413 
Q 1425 2413 1183 2183 
Q 941 1953 941 1550 
Q 941 1041 1192 716 
Q 1444 391 1838 391 
Q 2244 391 2475 664 
Q 2706 938 2706 1416 
z
" transform="scale(0.015625)"/>
       </defs>
       <use xlink:href="#LiberationSans-30"/>
       <use xlink:href="#LiberationSans-2e" transform="translate(55.615234 0)"/>
       <use xlink:href="#LiberationSans-36" transform="translate(83.398438 0)"/>
      </g>
     </g>
    </g>
    <g id="ytick_5">
     <g id="line2d_14">
      <path d="M 34.3875 70.028075 
L 183.266839 70.028075 
" clip-path="url(#pb78444111d)" style="fill: none; stroke: #b0b0b0; stroke-opacity: 0.15; stroke-width: 0.5; stroke-linecap: square"/>
     </g>
     <g id="line2d_15">
      <g>
       <use xlink:href="#m414106a003" x="34.3875" y="70.028075" style="stroke: #000000; stroke-width: 0.75"/>
      </g>
     </g>
     <g id="text_10">
      <!-- 0.8 -->
      <g transform="translate(18.6575 72.564481) scale(0.07 -0.07)">
       <defs>
        <path id="LiberationSans-38" d="M 3281 1228 
Q 3281 619 2893 278 
Q 2506 -63 1781 -63 
Q 1075 -63 676 271 
Q 278 606 278 1222 
Q 278 1653 525 1947 
Q 772 2241 1156 2303 
L 1156 2316 
Q 797 2400 589 2681 
Q 381 2963 381 3341 
Q 381 3844 757 4156 
Q 1134 4469 1769 4469 
Q 2419 4469 2795 4162 
Q 3172 3856 3172 3334 
Q 3172 2956 2962 2675 
Q 2753 2394 2391 2322 
L 2391 2309 
Q 2813 2241 3047 1952 
Q 3281 1663 3281 1228 
z
M 2588 3303 
Q 2588 4050 1769 4050 
Q 1372 4050 1164 3862 
Q 956 3675 956 3303 
Q 956 2925 1170 2726 
Q 1384 2528 1775 2528 
Q 2172 2528 2380 2711 
Q 2588 2894 2588 3303 
z
M 2697 1281 
Q 2697 1691 2453 1898 
Q 2209 2106 1769 2106 
Q 1341 2106 1100 1882 
Q 859 1659 859 1269 
Q 859 359 1788 359 
Q 2247 359 2472 579 
Q 2697 800 2697 1281 
z
" transform="scale(0.015625)"/>
       </defs>
       <use xlink:href="#LiberationSans-30"/>
       <use xlink:href="#LiberationSans-2e" transform="translate(55.615234 0)"/>
       <use xlink:href="#LiberationSans-38" transform="translate(83.398438 0)"/>
      </g>
     </g>
    </g>
    <g id="ytick_6">
     <g id="line2d_16">
      <path d="M 34.3875 34.652075 
L 183.266839 34.652075 
" clip-path="url(#pb78444111d)" style="fill: none; stroke: #b0b0b0; stroke-opacity: 0.15; stroke-width: 0.5; stroke-linecap: square"/>
     </g>
     <g id="line2d_17">
      <g>
       <use xlink:href="#m414106a003" x="34.3875" y="34.652075" style="stroke: #000000; stroke-width: 0.75"/>
      </g>
     </g>
     <g id="text_11">
      <!-- 1.0 -->
      <g transform="translate(18.6575 37.188481) scale(0.07 -0.07)">
       <defs>
        <path id="LiberationSans-31" d="M 488 0 
L 488 478 
L 1609 478 
L 1609 3866 
L 616 3156 
L 616 3688 
L 1656 4403 
L 2175 4403 
L 2175 478 
L 3247 478 
L 3247 0 
L 488 0 
z
" transform="scale(0.015625)"/>
       </defs>
       <use xlink:href="#LiberationSans-31"/>
       <use xlink:href="#LiberationSans-2e" transform="translate(55.615234 0)"/>
       <use xlink:href="#LiberationSans-30" transform="translate(83.398438 0)"/>
      </g>
     </g>
    </g>
    <g id="text_12">
     <!-- Accuracy -->
     <g transform="translate(12.9975 135.118825) rotate(-90) scale(0.08 -0.08)">
      <defs>
       <path id="LiberationSans-41" d="M 3647 0 
L 3144 1288 
L 1138 1288 
L 631 0 
L 13 0 
L 1809 4403 
L 2488 4403 
L 4256 0 
L 3647 0 
z
M 2141 3953 
L 2113 3866 
Q 2034 3606 1881 3200 
L 1319 1753 
L 2966 1753 
L 2400 3206 
Q 2313 3422 2225 3694 
L 2141 3953 
z
" transform="scale(0.015625)"/>
       <path id="LiberationSans-75" d="M 981 3381 
L 981 1238 
Q 981 903 1047 718 
Q 1113 534 1256 453 
Q 1400 372 1678 372 
Q 2084 372 2318 650 
Q 2553 928 2553 1422 
L 2553 3381 
L 3116 3381 
L 3116 722 
Q 3116 131 3134 0 
L 2603 0 
Q 2600 16 2597 84 
Q 2594 153 2589 242 
Q 2584 331 2578 578 
L 2569 578 
Q 2375 228 2120 82 
Q 1866 -63 1488 -63 
Q 931 -63 673 214 
Q 416 491 416 1128 
L 416 3381 
L 981 3381 
z
" transform="scale(0.015625)"/>
       <path id="LiberationSans-79" d="M 597 -1328 
Q 366 -1328 209 -1294 
L 209 -872 
Q 328 -891 472 -891 
Q 997 -891 1303 -119 
L 1356 16 
L 16 3381 
L 616 3381 
L 1328 1513 
Q 1344 1469 1366 1408 
Q 1388 1347 1506 1000 
Q 1625 653 1634 613 
L 1853 1228 
L 2594 3381 
L 3188 3381 
L 1888 0 
Q 1678 -541 1497 -805 
Q 1316 -1069 1095 -1198 
Q 875 -1328 597 -1328 
z
" transform="scale(0.015625)"/>
      </defs>
      <use xlink:href="#LiberationSans-41"/>
      <use xlink:href="#LiberationSans-63" transform="translate(66.699219 0)"/>
      <use xlink:href="#LiberationSans-63" transform="translate(116.699219 0)"/>
      <use xlink:href="#LiberationSans-75" transform="translate(166.699219 0)"/>
      <use xlink:href="#LiberationSans-72" transform="translate(222.314453 0)"/>
      <use xlink:href="#LiberationSans-61" transform="translate(255.615234 0)"/>
      <use xlink:href="#LiberationSans-63" transform="translate(311.230469 0)"/>
      <use xlink:href="#LiberationSans-79" transform="translate(361.230469 0)"/>
     </g>
    </g>
   </g>
   <g id="patch_4">
    <path d="M 41.154743 211.532075 
L 47.319519 211.532075 
L 47.319519 34.652075 
L 41.154743 34.652075 
z
" clip-path="url(#pb78444111d)" style="fill: #1f77b4; stroke: #000000; stroke-width: 0.3; stroke-linejoin: miter"/>
   </g>
   <g id="patch_5">
    <path d="M 69.176451 211.532075 
L 75.341227 211.532075 
L 75.341227 53.077075 
L 69.176451 53.077075 
z
" clip-path="url(#pb78444111d)" style="fill: #1f77b4; stroke: #000000; stroke-width: 0.3; stroke-linejoin: miter"/>
   </g>
   <g id="patch_6">
    <path d="M 97.19816 211.532075 
L 103.362936 211.532075 
L 103.362936 53.077075 
L 97.19816 53.077075 
z
" clip-path="url(#pb78444111d)" style="fill: #1f77b4; stroke: #000000; stroke-width: 0.3; stroke-linejoin: miter"/>
   </g>
   <g id="patch_7">
    <path d="M 125.219869 211.532075 
L 131.384645 211.532075 
L 131.384645 58.604575 
L 125.219869 58.604575 
z
" clip-path="url(#pb78444111d)" style="fill: #1f77b4; stroke: #000000; stroke-width: 0.3; stroke-linejoin: miter"/>
   </g>
   <g id="patch_8">
    <path d="M 153.241578 211.532075 
L 159.406354 211.532075 
L 159.406354 93.612075 
L 153.241578 93.612075 
z
" clip-path="url(#pb78444111d)" style="fill: #1f77b4; stroke: #000000; stroke-width: 0.3; stroke-linejoin: miter"/>
   </g>
   <g id="patch_9">
    <path d="M 47.319519 211.532075 
L 53.484295 211.532075 
L 53.484295 49.392075 
L 47.319519 49.392075 
z
" clip-path="url(#pb78444111d)" style="fill: #ff7f0e; stroke: #000000; stroke-width: 0.3; stroke-linejoin: miter"/>
   </g>
   <g id="patch_10">
    <path d="M 75.341227 211.532075 
L 81.506003 211.532075 
L 81.506003 174.682075 
L 75.341227 174.682075 
z
" clip-path="url(#pb78444111d)" style="fill: #ff7f0e; stroke: #000000; stroke-width: 0.3; stroke-linejoin: miter"/>
   </g>
   <g id="patch_11">
    <path d="M 103.362936 211.532075 
L 109.527712 211.532075 
L 109.527712 180.209575 
L 103.362936 180.209575 
z
" clip-path="url(#pb78444111d)" style="fill: #ff7f0e; stroke: #000000; stroke-width: 0.3; stroke-linejoin: miter"/>
   </g>
   <g id="patch_12">
    <path d="M 131.384645 211.532075 
L 137.549421 211.532075 
L 137.549421 143.359575 
L 131.384645 143.359575 
z
" clip-path="url(#pb78444111d)" style="fill: #ff7f0e; stroke: #000000; stroke-width: 0.3; stroke-linejoin: miter"/>
   </g>
   <g id="patch_13">
    <path d="M 159.406354 211.532075 
L 165.57113 211.532075 
L 165.57113 145.202075 
L 159.406354 145.202075 
z
" clip-path="url(#pb78444111d)" style="fill: #ff7f0e; stroke: #000000; stroke-width: 0.3; stroke-linejoin: miter"/>
   </g>
   <g id="patch_14">
    <path d="M 53.484295 211.532075 
L 59.64907 211.532075 
L 59.64907 34.652075 
L 53.484295 34.652075 
z
" clip-path="url(#pb78444111d)" style="fill: #2ca02c; stroke: #000000; stroke-width: 0.3; stroke-linejoin: miter"/>
   </g>
   <g id="patch_15">
    <path d="M 81.506003 211.532075 
L 87.670779 211.532075 
L 87.670779 134.147075 
L 81.506003 134.147075 
z
" clip-path="url(#pb78444111d)" style="fill: #2ca02c; stroke: #000000; stroke-width: 0.3; stroke-linejoin: miter"/>
   </g>
   <g id="patch_16">
    <path d="M 109.527712 211.532075 
L 115.692488 211.532075 
L 115.692488 100.982075 
L 109.527712 100.982075 
z
" clip-path="url(#pb78444111d)" style="fill: #2ca02c; stroke: #000000; stroke-width: 0.3; stroke-linejoin: miter"/>
   </g>
   <g id="patch_17">
    <path d="M 137.549421 211.532075 
L 143.714197 211.532075 
L 143.714197 34.652075 
L 137.549421 34.652075 
z
" clip-path="url(#pb78444111d)" style="fill: #2ca02c; stroke: #000000; stroke-width: 0.3; stroke-linejoin: miter"/>
   </g>
   <g id="patch_18">
    <path d="M 165.57113 211.532075 
L 171.735906 211.532075 
L 171.735906 130.462075 
L 165.57113 130.462075 
z
" clip-path="url(#pb78444111d)" style="fill: #2ca02c; stroke: #000000; stroke-width: 0.3; stroke-linejoin: miter"/>
   </g>
   <g id="patch_19">
    <path d="M 34.3875 211.532075 
L 34.3875 25.808075 
" style="fill: none; stroke: #000000; stroke-width: 0.75; stroke-linejoin: miter; stroke-linecap: square"/>
   </g>
   <g id="patch_20">
    <path d="M 34.3875 211.532075 
L 183.266839 211.532075 
" style="fill: none; stroke: #000000; stroke-width: 0.75; stroke-linejoin: miter; stroke-linecap: square"/>
   </g>
   <g id="text_13">
    <!-- A -->
    <g transform="translate(10.566806 14.446875) scale(0.1 -0.1)">
     <defs>
      <path id="LiberationSans-Bold-41" d="M 3541 0 
L 3150 1125 
L 1472 1125 
L 1081 0 
L 159 0 
L 1766 4403 
L 2853 4403 
L 4453 0 
L 3541 0 
z
M 2309 3725 
L 2291 3656 
Q 2259 3544 2215 3400 
Q 2172 3256 1678 1819 
L 2944 1819 
L 2509 3084 
L 2375 3509 
L 2309 3725 
z
" transform="scale(0.015625)"/>
     </defs>
     <use xlink:href="#LiberationSans-Bold-41"/>
    </g>
   </g>
   <g id="text_14">
    <!-- static -->
    <g transform="translate(154.32007 43.262487) scale(0.07 -0.07)">
     <use xlink:href="#LiberationSans-73"/>
     <use xlink:href="#LiberationSans-74" transform="translate(50 0)"/>
     <use xlink:href="#LiberationSans-61" transform="translate(77.783203 0)"/>
     <use xlink:href="#LiberationSans-74" transform="translate(133.398438 0)"/>
     <use xlink:href="#LiberationSans-69" transform="translate(161.181641 0)"/>
     <use xlink:href="#LiberationSans-63" transform="translate(183.398438 0)"/>
    </g>
   </g>
   <g id="text_15">
    <!-- Primary comparison -->
    <g transform="translate(68.819357 21.808075) scale(0.09 -0.09)">
     <defs>
      <path id="LiberationSans-50" d="M 3931 3078 
Q 3931 2453 3523 2084 
Q 3116 1716 2416 1716 
L 1122 1716 
L 1122 0 
L 525 0 
L 525 4403 
L 2378 4403 
Q 3119 4403 3525 4056 
Q 3931 3709 3931 3078 
z
M 3331 3072 
Q 3331 3925 2306 3925 
L 1122 3925 
L 1122 2188 
L 2331 2188 
Q 3331 2188 3331 3072 
z
" transform="scale(0.015625)"/>
     </defs>
     <use xlink:href="#LiberationSans-50"/>
     <use xlink:href="#LiberationSans-72" transform="translate(66.699219 0)"/>
     <use xlink:href="#LiberationSans-69" transform="translate(100 0)"/>
     <use xlink:href="#LiberationSans-6d" transform="translate(122.216797 0)"/>
     <use xlink:href="#LiberationSans-61" transform="translate(205.517578 0)"/>
     <use xlink:href="#LiberationSans-72" transform="translate(261.132812 0)"/>
     <use xlink:href="#LiberationSans-79" transform="translate(294.433594 0)"/>
     <use xlink:href="#LiberationSans-20" transform="translate(344.433594 0)"/>
     <use xlink:href="#LiberationSans-63" transform="translate(372.216797 0)"/>
     <use xlink:href="#LiberationSans-6f" transform="translate(422.216797 0)"/>
     <use xlink:href="#LiberationSans-6d" transform="translate(477.832031 0)"/>
     <use xlink:href="#LiberationSans-70" transform="translate(561.132812 0)"/>
     <use xlink:href="#LiberationSans-61" transform="translate(616.748047 0)"/>
     <use xlink:href="#LiberationSans-72" transform="translate(672.363281 0)"/>
     <use xlink:href="#LiberationSans-69" transform="translate(705.664062 0)"/>
     <use xlink:href="#LiberationSans-73" transform="translate(727.880859 0)"/>
     <use xlink:href="#LiberationSans-6f" transform="translate(777.880859 0)"/>
     <use xlink:href="#LiberationSans-6e" transform="translate(833.496094 0)"/>
    </g>
   </g>
   <g id="legend_1">
    <g id="patch_21">
     <path d="M 192.544426 110.454919 
L 206.544426 110.454919 
L 206.544426 105.554919 
L 192.544426 105.554919 
z
" style="fill: #1f77b4; stroke: #000000; stroke-width: 0.3; stroke-linejoin: miter"/>
    </g>
    <g id="text_16">
     <!-- FlyVis -->
     <g transform="translate(212.144426 110.454919) scale(0.07 -0.07)">
      <defs>
       <path id="LiberationSans-46" d="M 1122 3916 
L 1122 2278 
L 3578 2278 
L 3578 1784 
L 1122 1784 
L 1122 0 
L 525 0 
L 525 4403 
L 3653 4403 
L 3653 3916 
L 1122 3916 
z
" transform="scale(0.015625)"/>
       <path id="LiberationSans-56" d="M 2444 0 
L 1825 0 
L 28 4403 
L 656 4403 
L 1875 1303 
L 2138 525 
L 2400 1303 
L 3613 4403 
L 4241 4403 
L 2444 0 
z
" transform="scale(0.015625)"/>
      </defs>
      <use xlink:href="#LiberationSans-46"/>
      <use xlink:href="#LiberationSans-6c" transform="translate(61.083984 0)"/>
      <use xlink:href="#LiberationSans-79" transform="translate(83.300781 0)"/>
      <use xlink:href="#LiberationSans-56" transform="translate(133.300781 0)"/>
      <use xlink:href="#LiberationSans-69" transform="translate(198.25 0)"/>
      <use xlink:href="#LiberationSans-73" transform="translate(220.466797 0)"/>
     </g>
    </g>
    <g id="patch_22">
     <path d="M 192.544426 120.480231 
L 206.544426 120.480231 
L 206.544426 115.580231 
L 192.544426 115.580231 
z
" style="fill: #ff7f0e; stroke: #000000; stroke-width: 0.3; stroke-linejoin: miter"/>
    </g>
    <g id="text_17">
     <!-- CNN -->
     <g transform="translate(212.144426 120.480231) scale(0.07 -0.07)">
      <defs>
       <path id="LiberationSans-43" d="M 2475 3981 
Q 1744 3981 1337 3511 
Q 931 3041 931 2222 
Q 931 1413 1354 920 
Q 1778 428 2500 428 
Q 3425 428 3891 1344 
L 4378 1100 
Q 4106 531 3614 234 
Q 3122 -63 2472 -63 
Q 1806 -63 1320 214 
Q 834 491 579 1005 
Q 325 1519 325 2222 
Q 325 3275 894 3872 
Q 1463 4469 2469 4469 
Q 3172 4469 3644 4194 
Q 4116 3919 4338 3378 
L 3772 3191 
Q 3619 3575 3280 3778 
Q 2941 3981 2475 3981 
z
" transform="scale(0.015625)"/>
       <path id="LiberationSans-4e" d="M 3381 0 
L 1025 3750 
L 1041 3447 
L 1056 2925 
L 1056 0 
L 525 0 
L 525 4403 
L 1219 4403 
L 3600 628 
Q 3563 1241 3563 1516 
L 3563 4403 
L 4100 4403 
L 4100 0 
L 3381 0 
z
" transform="scale(0.015625)"/>
      </defs>
      <use xlink:href="#LiberationSans-43"/>
      <use xlink:href="#LiberationSans-4e" transform="translate(72.216797 0)"/>
      <use xlink:href="#LiberationSans-4e" transform="translate(144.433594 0)"/>
     </g>
    </g>
    <g id="patch_23">
     <path d="M 192.544426 130.505544 
L 206.544426 130.505544 
L 206.544426 125.605544 
L 192.544426 125.605544 
z
" style="fill: #2ca02c; stroke: #000000; stroke-width: 0.3; stroke-linejoin: miter"/>
    </g>
    <g id="text_18">
     <!-- pixel -->
     <g transform="translate(212.144426 130.505544) scale(0.07 -0.07)">
      <defs>
       <path id="LiberationSans-78" d="M 2503 0 
L 1594 1388 
L 678 0 
L 72 0 
L 1275 1738 
L 128 3381 
L 750 3381 
L 1594 2066 
L 2431 3381 
L 3059 3381 
L 1913 1744 
L 3131 0 
L 2503 0 
z
" transform="scale(0.015625)"/>
      </defs>
      <use xlink:href="#LiberationSans-70"/>
      <use xlink:href="#LiberationSans-69" transform="translate(55.615234 0)"/>
      <use xlink:href="#LiberationSans-78" transform="translate(77.832031 0)"/>
      <use xlink:href="#LiberationSans-65" transform="translate(127.832031 0)"/>
      <use xlink:href="#LiberationSans-6c" transform="translate(183.447266 0)"/>
     </g>
    </g>
   </g>
  </g>
  <g id="axes_2">
   <g id="patch_24">
    <path d="M 245.796161 211.532075 
L 394.6755 211.532075 
L 394.6755 25.808075 
L 245.796161 25.808075 
z
" style="fill: #ffffff"/>
   </g>
   <g id="patch_25">
    <path d="M 359.593434 211.532075 
L 387.908257 211.532075 
L 387.908257 25.808075 
L 359.593434 25.808075 
z
" clip-path="url(#pd66d99f58b)" style="fill: #d9d9d9; opacity: 0.35; stroke: #d9d9d9; stroke-linejoin: miter"/>
   </g>
   <g id="matplotlib.axis_3">
    <g id="xtick_6">
     <g id="line2d_18">
      <g>
       <use xlink:href="#m0f098fc730" x="260.491554" y="211.532075" style="stroke: #000000; stroke-width: 0.75"/>
      </g>
     </g>
     <g id="text_19">
      <!-- moving edge -->
      <g transform="translate(223.553452 239.06788) rotate(-25) scale(0.07 -0.07)">
       <use xlink:href="#LiberationSans-6d"/>
       <use xlink:href="#LiberationSans-6f" transform="translate(83.300781 0)"/>
       <use xlink:href="#LiberationSans-76" transform="translate(138.916016 0)"/>
       <use xlink:href="#LiberationSans-69" transform="translate(188.916016 0)"/>
       <use xlink:href="#LiberationSans-6e" transform="translate(211.132812 0)"/>
       <use xlink:href="#LiberationSans-67" transform="translate(266.748047 0)"/>
       <use xlink:href="#LiberationSans-20" transform="translate(322.363281 0)"/>
       <use xlink:href="#LiberationSans-65" transform="translate(350.146484 0)"/>
       <use xlink:href="#LiberationSans-64" transform="translate(405.761719 0)"/>
       <use xlink:href="#LiberationSans-67" transform="translate(461.376953 0)"/>
       <use xlink:href="#LiberationSans-65" transform="translate(516.992188 0)"/>
      </g>
     </g>
    </g>
    <g id="xtick_7">
     <g id="line2d_19">
      <g>
       <use xlink:href="#m0f098fc730" x="288.806377" y="211.532075" style="stroke: #000000; stroke-width: 0.75"/>
      </g>
     </g>
     <g id="text_20">
      <!-- moving bar -->
      <g transform="translate(256.811759 236.762696) rotate(-25) scale(0.07 -0.07)">
       <use xlink:href="#LiberationSans-6d"/>
       <use xlink:href="#LiberationSans-6f" transform="translate(83.300781 0)"/>
       <use xlink:href="#LiberationSans-76" transform="translate(138.916016 0)"/>
       <use xlink:href="#LiberationSans-69" transform="translate(188.916016 0)"/>
       <use xlink:href="#LiberationSans-6e" transform="translate(211.132812 0)"/>
       <use xlink:href="#LiberationSans-67" transform="translate(266.748047 0)"/>
       <use xlink:href="#LiberationSans-20" transform="translate(322.363281 0)"/>
       <use xlink:href="#LiberationSans-62" transform="translate(350.146484 0)"/>
       <use xlink:href="#LiberationSans-61" transform="translate(405.761719 0)"/>
       <use xlink:href="#LiberationSans-72" transform="translate(461.376953 0)"/>
      </g>
     </g>
    </g>
    <g id="xtick_8">
     <g id="line2d_20">
      <g>
       <use xlink:href="#m0f098fc730" x="317.1212" y="211.532075" style="stroke: #000000; stroke-width: 0.75"/>
      </g>
     </g>
     <g id="text_21">
      <!-- small target -->
      <g transform="translate(283.719964 237.418612) rotate(-25) scale(0.07 -0.07)">
       <use xlink:href="#LiberationSans-73"/>
       <use xlink:href="#LiberationSans-6d" transform="translate(50 0)"/>
       <use xlink:href="#LiberationSans-61" transform="translate(133.300781 0)"/>
       <use xlink:href="#LiberationSans-6c" transform="translate(188.916016 0)"/>
       <use xlink:href="#LiberationSans-6c" transform="translate(211.132812 0)"/>
       <use xlink:href="#LiberationSans-20" transform="translate(233.349609 0)"/>
       <use xlink:href="#LiberationSans-74" transform="translate(261.132812 0)"/>
       <use xlink:href="#LiberationSans-61" transform="translate(288.916016 0)"/>
       <use xlink:href="#LiberationSans-72" transform="translate(344.53125 0)"/>
       <use xlink:href="#LiberationSans-67" transform="translate(377.832031 0)"/>
       <use xlink:href="#LiberationSans-65" transform="translate(433.447266 0)"/>
       <use xlink:href="#LiberationSans-74" transform="translate(489.0625 0)"/>
      </g>
     </g>
    </g>
    <g id="xtick_9">
     <g id="line2d_21">
      <g>
       <use xlink:href="#m0f098fc730" x="345.436023" y="211.532075" style="stroke: #000000; stroke-width: 0.75"/>
      </g>
     </g>
     <g id="text_22">
      <!-- looming -->
      <g transform="translate(322.606725 232.488837) rotate(-25) scale(0.07 -0.07)">
       <use xlink:href="#LiberationSans-6c"/>
       <use xlink:href="#LiberationSans-6f" transform="translate(22.216797 0)"/>
       <use xlink:href="#LiberationSans-6f" transform="translate(77.832031 0)"/>
       <use xlink:href="#LiberationSans-6d" transform="translate(133.447266 0)"/>
       <use xlink:href="#LiberationSans-69" transform="translate(216.748047 0)"/>
       <use xlink:href="#LiberationSans-6e" transform="translate(238.964844 0)"/>
       <use xlink:href="#LiberationSans-67" transform="translate(294.580078 0)"/>
      </g>
     </g>
    </g>
    <g id="xtick_10">
     <g id="line2d_22">
      <g>
       <use xlink:href="#m0f098fc730" x="373.750846" y="211.532075" style="stroke: #000000; stroke-width: 0.75"/>
      </g>
     </g>
     <g id="text_23">
      <!-- static shapes -->
      <g transform="translate(336.111912 239.394683) rotate(-25) scale(0.07 -0.07)">
       <use xlink:href="#LiberationSans-73"/>
       <use xlink:href="#LiberationSans-74" transform="translate(50 0)"/>
       <use xlink:href="#LiberationSans-61" transform="translate(77.783203 0)"/>
       <use xlink:href="#LiberationSans-74" transform="translate(133.398438 0)"/>
       <use xlink:href="#LiberationSans-69" transform="translate(161.181641 0)"/>
       <use xlink:href="#LiberationSans-63" transform="translate(183.398438 0)"/>
       <use xlink:href="#LiberationSans-20" transform="translate(233.398438 0)"/>
       <use xlink:href="#LiberationSans-73" transform="translate(261.181641 0)"/>
       <use xlink:href="#LiberationSans-68" transform="translate(311.181641 0)"/>
       <use xlink:href="#LiberationSans-61" transform="translate(366.796875 0)"/>
       <use xlink:href="#LiberationSans-70" transform="translate(422.412109 0)"/>
       <use xlink:href="#LiberationSans-65" transform="translate(478.027344 0)"/>
       <use xlink:href="#LiberationSans-73" transform="translate(533.642578 0)"/>
      </g>
     </g>
    </g>
   </g>
   <g id="matplotlib.axis_4">
    <g id="ytick_7">
     <g id="line2d_23">
      <path d="M 245.796161 211.532075 
L 394.6755 211.532075 
" clip-path="url(#pd66d99f58b)" style="fill: none; stroke: #b0b0b0; stroke-opacity: 0.15; stroke-width: 0.5; stroke-linecap: square"/>
     </g>
     <g id="line2d_24">
      <g>
       <use xlink:href="#m414106a003" x="245.796161" y="211.532075" style="stroke: #000000; stroke-width: 0.75"/>
      </g>
     </g>
    </g>
    <g id="ytick_8">
     <g id="line2d_25">
      <path d="M 245.796161 176.156075 
L 394.6755 176.156075 
" clip-path="url(#pd66d99f58b)" style="fill: none; stroke: #b0b0b0; stroke-opacity: 0.15; stroke-width: 0.5; stroke-linecap: square"/>
     </g>
     <g id="line2d_26">
      <g>
       <use xlink:href="#m414106a003" x="245.796161" y="176.156075" style="stroke: #000000; stroke-width: 0.75"/>
      </g>
     </g>
    </g>
    <g id="ytick_9">
     <g id="line2d_27">
      <path d="M 245.796161 140.780075 
L 394.6755 140.780075 
" clip-path="url(#pd66d99f58b)" style="fill: none; stroke: #b0b0b0; stroke-opacity: 0.15; stroke-width: 0.5; stroke-linecap: square"/>
     </g>
     <g id="line2d_28">
      <g>
       <use xlink:href="#m414106a003" x="245.796161" y="140.780075" style="stroke: #000000; stroke-width: 0.75"/>
      </g>
     </g>
    </g>
    <g id="ytick_10">
     <g id="line2d_29">
      <path d="M 245.796161 105.404075 
L 394.6755 105.404075 
" clip-path="url(#pd66d99f58b)" style="fill: none; stroke: #b0b0b0; stroke-opacity: 0.15; stroke-width: 0.5; stroke-linecap: square"/>
     </g>
     <g id="line2d_30">
      <g>
       <use xlink:href="#m414106a003" x="245.796161" y="105.404075" style="stroke: #000000; stroke-width: 0.75"/>
      </g>
     </g>
    </g>
    <g id="ytick_11">
     <g id="line2d_31">
      <path d="M 245.796161 70.028075 
L 394.6755 70.028075 
" clip-path="url(#pd66d99f58b)" style="fill: none; stroke: #b0b0b0; stroke-opacity: 0.15; stroke-width: 0.5; stroke-linecap: square"/>
     </g>
     <g id="line2d_32">
      <g>
       <use xlink:href="#m414106a003" x="245.796161" y="70.028075" style="stroke: #000000; stroke-width: 0.75"/>
      </g>
     </g>
    </g>
    <g id="ytick_12">
     <g id="line2d_33">
      <path d="M 245.796161 34.652075 
L 394.6755 34.652075 
" clip-path="url(#pd66d99f58b)" style="fill: none; stroke: #b0b0b0; stroke-opacity: 0.15; stroke-width: 0.5; stroke-linecap: square"/>
     </g>
     <g id="line2d_34">
      <g>
       <use xlink:href="#m414106a003" x="245.796161" y="34.652075" style="stroke: #000000; stroke-width: 0.75"/>
      </g>
     </g>
    </g>
   </g>
   <g id="patch_26">
    <path d="M 252.563404 211.532075 
L 260.491554 211.532075 
L 260.491554 78.872075 
L 252.563404 78.872075 
z
" clip-path="url(#pd66d99f58b)" style="fill: #9467bd; stroke: #000000; stroke-width: 0.3; stroke-linejoin: miter"/>
   </g>
   <g id="patch_27">
    <path d="M 280.878227 211.532075 
L 288.806377 211.532075 
L 288.806377 152.572075 
L 280.878227 152.572075 
z
" clip-path="url(#pd66d99f58b)" style="fill: #9467bd; stroke: #000000; stroke-width: 0.3; stroke-linejoin: miter"/>
   </g>
   <g id="patch_28">
    <path d="M 309.19305 211.532075 
L 317.1212 211.532075 
L 317.1212 154.414575 
L 309.19305 154.414575 
z
" clip-path="url(#pd66d99f58b)" style="fill: #9467bd; stroke: #000000; stroke-width: 0.3; stroke-linejoin: miter"/>
   </g>
   <g id="patch_29">
    <path d="M 337.507873 211.532075 
L 345.436023 211.532075 
L 345.436023 178.367075 
L 337.507873 178.367075 
z
" clip-path="url(#pd66d99f58b)" style="fill: #9467bd; stroke: #000000; stroke-width: 0.3; stroke-linejoin: miter"/>
   </g>
   <g id="patch_30">
    <path d="M 365.822695 211.532075 
L 373.750846 211.532075 
L 373.750846 123.092075 
L 365.822695 123.092075 
z
" clip-path="url(#pd66d99f58b)" style="fill: #9467bd; stroke: #000000; stroke-width: 0.3; stroke-linejoin: miter"/>
   </g>
   <g id="patch_31">
    <path d="M 260.491554 211.532075 
L 268.419705 211.532075 
L 268.419705 113.879575 
L 260.491554 113.879575 
z
" clip-path="url(#pd66d99f58b)" style="fill: #8c564b; stroke: #000000; stroke-width: 0.3; stroke-linejoin: miter"/>
   </g>
   <g id="patch_32">
    <path d="M 288.806377 211.532075 
L 296.734528 211.532075 
L 296.734528 156.7177 
L 288.806377 156.7177 
z
" clip-path="url(#pd66d99f58b)" style="fill: #8c564b; stroke: #000000; stroke-width: 0.3; stroke-linejoin: miter"/>
   </g>
   <g id="patch_33">
    <path d="M 317.1212 211.532075 
L 325.04935 211.532075 
L 325.04935 168.69395 
L 317.1212 168.69395 
z
" clip-path="url(#pd66d99f58b)" style="fill: #8c564b; stroke: #000000; stroke-width: 0.3; stroke-linejoin: miter"/>
   </g>
   <g id="patch_34">
    <path d="M 345.436023 211.532075 
L 353.364173 211.532075 
L 353.364173 167.312075 
L 345.436023 167.312075 
z
" clip-path="url(#pd66d99f58b)" style="fill: #8c564b; stroke: #000000; stroke-width: 0.3; stroke-linejoin: miter"/>
   </g>
   <g id="patch_35">
    <path d="M 373.750846 211.532075 
L 381.678996 211.532075 
L 381.678996 135.068325 
L 373.750846 135.068325 
z
" clip-path="url(#pd66d99f58b)" style="fill: #8c564b; stroke: #000000; stroke-width: 0.3; stroke-linejoin: miter"/>
   </g>
   <g id="patch_36">
    <path d="M 245.796161 211.532075 
L 245.796161 25.808075 
" style="fill: none; stroke: #000000; stroke-width: 0.75; stroke-linejoin: miter; stroke-linecap: square"/>
   </g>
   <g id="patch_37">
    <path d="M 245.796161 211.532075 
L 394.6755 211.532075 
" style="fill: none; stroke: #000000; stroke-width: 0.75; stroke-linejoin: miter; stroke-linecap: square"/>
   </g>
   <g id="text_24">
    <!-- B -->
    <g transform="translate(221.975467 14.446875) scale(0.1 -0.1)">
     <defs>
      <path id="LiberationSans-Bold-42" d="M 4331 1256 
Q 4331 656 3881 328 
Q 3431 0 2631 0 
L 428 0 
L 428 4403 
L 2444 4403 
Q 3250 4403 3664 4123 
Q 4078 3844 4078 3297 
Q 4078 2922 3870 2664 
Q 3663 2406 3238 2316 
Q 3772 2253 4051 1979 
Q 4331 1706 4331 1256 
z
M 3150 3172 
Q 3150 3469 2961 3594 
Q 2772 3719 2400 3719 
L 1350 3719 
L 1350 2628 
L 2406 2628 
Q 2797 2628 2973 2764 
Q 3150 2900 3150 3172 
z
M 3406 1328 
Q 3406 1947 2519 1947 
L 1350 1947 
L 1350 684 
L 2553 684 
Q 2997 684 3201 845 
Q 3406 1006 3406 1328 
z
" transform="scale(0.015625)"/>
     </defs>
     <use xlink:href="#LiberationSans-Bold-42"/>
    </g>
   </g>
   <g id="text_25">
    <!-- static -->
    <g transform="translate(365.582174 43.262487) scale(0.07 -0.07)">
     <use xlink:href="#LiberationSans-73"/>
     <use xlink:href="#LiberationSans-74" transform="translate(50 0)"/>
     <use xlink:href="#LiberationSans-61" transform="translate(77.783203 0)"/>
     <use xlink:href="#LiberationSans-74" transform="translate(133.398438 0)"/>
     <use xlink:href="#LiberationSans-69" transform="translate(161.181641 0)"/>
     <use xlink:href="#LiberationSans-63" transform="translate(183.398438 0)"/>
    </g>
   </g>
   <g id="text_26">
    <!-- Structural controls -->
    <g transform="translate(283.974268 21.808075) scale(0.09 -0.09)">
     <defs>
      <path id="LiberationSans-53" d="M 3975 1216 
Q 3975 606 3498 271 
Q 3022 -63 2156 -63 
Q 547 -63 291 1056 
L 869 1172 
Q 969 775 1294 589 
Q 1619 403 2178 403 
Q 2756 403 3070 601 
Q 3384 800 3384 1184 
Q 3384 1400 3286 1534 
Q 3188 1669 3009 1756 
Q 2831 1844 2584 1903 
Q 2338 1963 2038 2031 
Q 1516 2147 1245 2262 
Q 975 2378 819 2520 
Q 663 2663 580 2853 
Q 497 3044 497 3291 
Q 497 3856 930 4162 
Q 1363 4469 2169 4469 
Q 2919 4469 3316 4239 
Q 3713 4009 3872 3456 
L 3284 3353 
Q 3188 3703 2916 3861 
Q 2644 4019 2163 4019 
Q 1634 4019 1356 3844 
Q 1078 3669 1078 3322 
Q 1078 3119 1186 2986 
Q 1294 2853 1497 2761 
Q 1700 2669 2306 2534 
Q 2509 2488 2711 2439 
Q 2913 2391 3097 2323 
Q 3281 2256 3442 2165 
Q 3603 2075 3722 1944 
Q 3841 1813 3908 1634 
Q 3975 1456 3975 1216 
z
" transform="scale(0.015625)"/>
     </defs>
     <use xlink:href="#LiberationSans-53"/>
     <use xlink:href="#LiberationSans-74" transform="translate(66.699219 0)"/>
     <use xlink:href="#LiberationSans-72" transform="translate(94.482422 0)"/>
     <use xlink:href="#LiberationSans-75" transform="translate(127.783203 0)"/>
     <use xlink:href="#LiberationSans-63" transform="translate(183.398438 0)"/>
     <use xlink:href="#LiberationSans-74" transform="translate(233.398438 0)"/>
     <use xlink:href="#LiberationSans-75" transform="translate(261.181641 0)"/>
     <use xlink:href="#LiberationSans-72" transform="translate(316.796875 0)"/>
     <use xlink:href="#LiberationSans-61" transform="translate(350.097656 0)"/>
     <use xlink:href="#LiberationSans-6c" transform="translate(405.712891 0)"/>
     <use xlink:href="#LiberationSans-20" transform="translate(427.929688 0)"/>
     <use xlink:href="#LiberationSans-63" transform="translate(455.712891 0)"/>
     <use xlink:href="#LiberationSans-6f" transform="translate(505.712891 0)"/>
     <use xlink:href="#LiberationSans-6e" transform="translate(561.328125 0)"/>
     <use xlink:href="#LiberationSans-74" transform="translate(616.943359 0)"/>
     <use xlink:href="#LiberationSans-72" transform="translate(644.726562 0)"/>
     <use xlink:href="#LiberationSans-6f" transform="translate(678.027344 0)"/>
     <use xlink:href="#LiberationSans-6c" transform="translate(733.642578 0)"/>
     <use xlink:href="#LiberationSans-73" transform="translate(755.859375 0)"/>
    </g>
   </g>
   <g id="legend_2">
    <g id="patch_38">
     <path d="M 403.953087 115.467575 
L 417.953087 115.467575 
L 417.953087 110.567575 
L 403.953087 110.567575 
z
" style="fill: #9467bd; stroke: #000000; stroke-width: 0.3; stroke-linejoin: miter"/>
    </g>
    <g id="text_27">
     <!-- local RNN -->
     <g transform="translate(423.553087 115.467575) scale(0.07 -0.07)">
      <defs>
       <path id="LiberationSans-52" d="M 3638 0 
L 2494 1828 
L 1122 1828 
L 1122 0 
L 525 0 
L 525 4403 
L 2597 4403 
Q 3341 4403 3745 4070 
Q 4150 3738 4150 3144 
Q 4150 2653 3864 2318 
Q 3578 1984 3075 1897 
L 4325 0 
L 3638 0 
z
M 3550 3138 
Q 3550 3522 3289 3723 
Q 3028 3925 2538 3925 
L 1122 3925 
L 1122 2300 
L 2563 2300 
Q 3034 2300 3292 2520 
Q 3550 2741 3550 3138 
z
" transform="scale(0.015625)"/>
      </defs>
      <use xlink:href="#LiberationSans-6c"/>
      <use xlink:href="#LiberationSans-6f" transform="translate(22.216797 0)"/>
      <use xlink:href="#LiberationSans-63" transform="translate(77.832031 0)"/>
      <use xlink:href="#LiberationSans-61" transform="translate(127.832031 0)"/>
      <use xlink:href="#LiberationSans-6c" transform="translate(183.447266 0)"/>
      <use xlink:href="#LiberationSans-20" transform="translate(205.664062 0)"/>
      <use xlink:href="#LiberationSans-52" transform="translate(233.447266 0)"/>
      <use xlink:href="#LiberationSans-4e" transform="translate(305.664062 0)"/>
      <use xlink:href="#LiberationSans-4e" transform="translate(377.880859 0)"/>
     </g>
    </g>
    <g id="patch_39">
     <path d="M 403.953087 125.492887 
L 417.953087 125.492887 
L 417.953087 120.592887 
L 403.953087 120.592887 
z
" style="fill: #8c564b; stroke: #000000; stroke-width: 0.3; stroke-linejoin: miter"/>
    </g>
    <g id="text_28">
     <!-- graph controls -->
     <g transform="translate(423.553087 125.492887) scale(0.07 -0.07)">
      <use xlink:href="#LiberationSans-67"/>
      <use xlink:href="#LiberationSans-72" transform="translate(55.615234 0)"/>
      <use xlink:href="#LiberationSans-61" transform="translate(88.916016 0)"/>
      <use xlink:href="#LiberationSans-70" transform="translate(144.53125 0)"/>
      <use xlink:href="#LiberationSans-68" transform="translate(200.146484 0)"/>
      <use xlink:href="#LiberationSans-20" transform="translate(255.761719 0)"/>
      <use xlink:href="#LiberationSans-63" transform="translate(283.544922 0)"/>
      <use xlink:href="#LiberationSans-6f" transform="translate(333.544922 0)"/>
      <use xlink:href="#LiberationSans-6e" transform="translate(389.160156 0)"/>
      <use xlink:href="#LiberationSans-74" transform="translate(444.775391 0)"/>
      <use xlink:href="#LiberationSans-72" transform="translate(472.558594 0)"/>
      <use xlink:href="#LiberationSans-6f" transform="translate(505.859375 0)"/>
      <use xlink:href="#LiberationSans-6c" transform="translate(561.474609 0)"/>
      <use xlink:href="#LiberationSans-73" transform="translate(583.691406 0)"/>
     </g>
    </g>
   </g>
  </g>
 </g>
 <defs>
  <clipPath id="pb78444111d">
   <rect x="34.3875" y="25.808075" width="148.879339" height="185.724"/>
  </clipPath>
  <clipPath id="pd66d99f58b">
   <rect x="245.796161" y="25.808075" width="148.879339" height="185.724"/>
  </clipPath>
 </defs>
</svg>
